<svg width="48" height="48" viewBox="0 0 48 48" fill="none" xmlns="http://www.w3.org/2000/svg">
<path fill-rule="evenodd" clip-rule="evenodd" d="M35.459 30.25V36.5C35.459 37.075 35.9257 37.5416 36.5007 37.5416H42.7507C43.3257 37.5416 43.7923 37.075 43.7923 36.5C43.7923 35.925 43.3257 35.4583 42.7507 35.4583H37.5423V30.25C37.5423 29.675 37.0757 29.2083 36.5007 29.2083C35.9257 29.2083 35.459 29.675 35.459 30.25Z" fill="#A5A5A5"/>
<path fill-rule="evenodd" clip-rule="evenodd" d="M12.542 19C12.542 18.3927 12.3003 17.8094 11.8712 17.3791C11.441 16.95 10.8576 16.7083 10.2503 16.7083H8.58366C7.97636 16.7083 7.39303 16.95 6.96282 17.3791C6.53366 17.8094 6.29199 18.3927 6.29199 19V20.6666C6.29199 21.2739 6.53366 21.8573 6.96282 22.2875C7.39303 22.7166 7.97636 22.9583 8.58366 22.9583H10.2503C10.8576 22.9583 11.441 22.7166 11.8712 22.2875C12.3003 21.8573 12.542 21.2739 12.542 20.6666V19ZM10.4587 19V20.6666C10.4587 20.7219 10.4368 20.775 10.3972 20.8135C10.3587 20.8531 10.3055 20.875 10.2503 20.875H8.58366C8.52845 20.875 8.47533 20.8531 8.43679 20.8135C8.39721 20.775 8.37533 20.7219 8.37533 20.6666V19C8.37533 18.9448 8.39721 18.8916 8.43679 18.8531C8.47533 18.8135 8.52845 18.7916 8.58366 18.7916H10.2503C10.3055 18.7916 10.3587 18.8135 10.3972 18.8531C10.4368 18.8916 10.4587 18.9448 10.4587 19Z" fill="#A5A5A5"/>
<path fill-rule="evenodd" clip-rule="evenodd" d="M12.542 27.3333C12.542 26.726 12.3003 26.1427 11.8712 25.7125C11.441 25.2833 10.8576 25.0417 10.2503 25.0417H8.58366C7.97636 25.0417 7.39303 25.2833 6.96282 25.7125C6.53366 26.1427 6.29199 26.726 6.29199 27.3333V29C6.29199 29.6073 6.53366 30.1906 6.96282 30.6208C7.39303 31.05 7.97636 31.2917 8.58366 31.2917H10.2503C10.8576 31.2917 11.441 31.05 11.8712 30.6208C12.3003 30.1906 12.542 29.6073 12.542 29V27.3333ZM10.4587 27.3333V29C10.4587 29.0552 10.4368 29.1083 10.3972 29.1469C10.3587 29.1864 10.3055 29.2083 10.2503 29.2083H8.58366C8.52845 29.2083 8.47533 29.1864 8.43679 29.1469C8.39721 29.1083 8.37533 29.0552 8.37533 29V27.3333C8.37533 27.2781 8.39721 27.225 8.43679 27.1864C8.47533 27.1469 8.52845 27.125 8.58366 27.125H10.2503C10.3055 27.125 10.3587 27.1469 10.3972 27.1864C10.4368 27.225 10.4587 27.2781 10.4587 27.3333Z" fill="#A5A5A5"/>
<path fill-rule="evenodd" clip-rule="evenodd" d="M12.542 35.6667C12.542 35.0594 12.3003 34.476 11.8712 34.0458C11.441 33.6167 10.8576 33.375 10.2503 33.375H8.58366C7.97636 33.375 7.39303 33.6167 6.96282 34.0458C6.53366 34.476 6.29199 35.0594 6.29199 35.6667V37.3333C6.29199 37.9406 6.53366 38.524 6.96282 38.9542C7.39303 39.3833 7.97636 39.625 8.58366 39.625H10.2503C10.8576 39.625 11.441 39.3833 11.8712 38.9542C12.3003 38.524 12.542 37.9406 12.542 37.3333V35.6667ZM10.4587 35.6667V37.3333C10.4587 37.3885 10.4368 37.4417 10.3972 37.4802C10.3587 37.5198 10.3055 37.5417 10.2503 37.5417H8.58366C8.52845 37.5417 8.47533 37.5198 8.43679 37.4802C8.39721 37.4417 8.37533 37.3885 8.37533 37.3333V35.6667C8.37533 35.6115 8.39721 35.5583 8.43679 35.5198C8.47533 35.4802 8.52845 35.4583 8.58366 35.4583H10.2503C10.3055 35.4583 10.3587 35.4802 10.3972 35.5198C10.4368 35.5583 10.4587 35.6115 10.4587 35.6667Z" fill="#A5A5A5"/>
<path fill-rule="evenodd" clip-rule="evenodd" d="M20.875 19C20.875 18.3927 20.6333 17.8094 20.2042 17.3791C19.774 16.95 19.1906 16.7083 18.5833 16.7083H16.9167C16.3094 16.7083 15.726 16.95 15.2958 17.3791C14.8667 17.8094 14.625 18.3927 14.625 19V20.6666C14.625 21.2739 14.8667 21.8573 15.2958 22.2875C15.726 22.7166 16.3094 22.9583 16.9167 22.9583H18.5833C19.1906 22.9583 19.774 22.7166 20.2042 22.2875C20.6333 21.8573 20.875 21.2739 20.875 20.6666V19ZM18.7917 19V20.6666C18.7917 20.7219 18.7698 20.775 18.7302 20.8135C18.6917 20.8531 18.6385 20.875 18.5833 20.875H16.9167C16.8615 20.875 16.8083 20.8531 16.7698 20.8135C16.7302 20.775 16.7083 20.7219 16.7083 20.6666V19C16.7083 18.9448 16.7302 18.8916 16.7698 18.8531C16.8083 18.8135 16.8615 18.7916 16.9167 18.7916H18.5833C18.6385 18.7916 18.6917 18.8135 18.7302 18.8531C18.7698 18.8916 18.7917 18.9448 18.7917 19Z" fill="#A5A5A5"/>
<path fill-rule="evenodd" clip-rule="evenodd" d="M20.875 27.3333C20.875 26.726 20.6333 26.1427 20.2042 25.7125C19.774 25.2833 19.1906 25.0417 18.5833 25.0417H16.9167C16.3094 25.0417 15.726 25.2833 15.2958 25.7125C14.8667 26.1427 14.625 26.726 14.625 27.3333V29C14.625 29.6073 14.8667 30.1906 15.2958 30.6208C15.726 31.05 16.3094 31.2917 16.9167 31.2917H18.5833C19.1906 31.2917 19.774 31.05 20.2042 30.6208C20.6333 30.1906 20.875 29.6073 20.875 29V27.3333ZM18.7917 27.3333V29C18.7917 29.0552 18.7698 29.1083 18.7302 29.1469C18.6917 29.1864 18.6385 29.2083 18.5833 29.2083H16.9167C16.8615 29.2083 16.8083 29.1864 16.7698 29.1469C16.7302 29.1083 16.7083 29.0552 16.7083 29V27.3333C16.7083 27.2781 16.7302 27.225 16.7698 27.1864C16.8083 27.1469 16.8615 27.125 16.9167 27.125H18.5833C18.6385 27.125 18.6917 27.1469 18.7302 27.1864C18.7698 27.225 18.7917 27.2781 18.7917 27.3333Z" fill="#A5A5A5"/>
<path fill-rule="evenodd" clip-rule="evenodd" d="M20.875 35.6667C20.875 35.0594 20.6333 34.476 20.2042 34.0458C19.774 33.6167 19.1906 33.375 18.5833 33.375H16.9167C16.3094 33.375 15.726 33.6167 15.2958 34.0458C14.8667 34.476 14.625 35.0594 14.625 35.6667V37.3333C14.625 37.9406 14.8667 38.524 15.2958 38.9542C15.726 39.3833 16.3094 39.625 16.9167 39.625H18.5833C19.1906 39.625 19.774 39.3833 20.2042 38.9542C20.6333 38.524 20.875 37.9406 20.875 37.3333V35.6667ZM18.7917 35.6667V37.3333C18.7917 37.3885 18.7698 37.4417 18.7302 37.4802C18.6917 37.5198 18.6385 37.5417 18.5833 37.5417H16.9167C16.8615 37.5417 16.8083 37.5198 16.7698 37.4802C16.7302 37.4417 16.7083 37.3885 16.7083 37.3333V35.6667C16.7083 35.6115 16.7302 35.5583 16.7698 35.5198C16.8083 35.4802 16.8615 35.4583 16.9167 35.4583H18.5833C18.6385 35.4583 18.6917 35.4802 18.7302 35.5198C18.7698 35.5583 18.7917 35.6115 18.7917 35.6667Z" fill="#A5A5A5"/>
<path fill-rule="evenodd" clip-rule="evenodd" d="M29.209 19C29.209 18.3927 28.9673 17.8094 28.5382 17.3791C28.1079 16.95 27.5246 16.7083 26.9173 16.7083H25.2506C24.6434 16.7083 24.06 16.95 23.6298 17.3791C23.2006 17.8094 22.959 18.3927 22.959 19V20.6666C22.959 21.2739 23.2006 21.8573 23.6298 22.2875C24.06 22.7166 24.6434 22.9583 25.2506 22.9583H26.9173C27.5246 22.9583 28.1079 22.7166 28.5382 22.2875C28.9673 21.8573 29.209 21.2739 29.209 20.6666V19ZM27.1257 19V20.6666C27.1257 20.7219 27.1038 20.775 27.0642 20.8135C27.0256 20.8531 26.9725 20.875 26.9173 20.875H25.2506C25.1954 20.875 25.1423 20.8531 25.1038 20.8135C25.0642 20.775 25.0423 20.7219 25.0423 20.6666V19C25.0423 18.9448 25.0642 18.8916 25.1038 18.8531C25.1423 18.8135 25.1954 18.7916 25.2506 18.7916H26.9173C26.9725 18.7916 27.0256 18.8135 27.0642 18.8531C27.1038 18.8916 27.1257 18.9448 27.1257 19Z" fill="#A5A5A5"/>
<path fill-rule="evenodd" clip-rule="evenodd" d="M37.542 19C37.542 18.3927 37.3003 17.8094 36.8712 17.3791C36.441 16.95 35.8576 16.7083 35.2503 16.7083H33.5837C32.9764 16.7083 32.393 16.95 31.9628 17.3791C31.5337 17.8094 31.292 18.3927 31.292 19V20.6666C31.292 21.2739 31.5337 21.8573 31.9628 22.2875C32.393 22.7166 32.9764 22.9583 33.5837 22.9583H35.2503C35.8576 22.9583 36.441 22.7166 36.8712 22.2875C37.3003 21.8573 37.542 21.2739 37.542 20.6666V19ZM35.4587 19V20.6666C35.4587 20.7219 35.4368 20.775 35.3972 20.8135C35.3587 20.8531 35.3055 20.875 35.2503 20.875H33.5837C33.5284 20.875 33.4753 20.8531 33.4368 20.8135C33.3972 20.775 33.3753 20.7219 33.3753 20.6666V19C33.3753 18.9448 33.3972 18.8916 33.4368 18.8531C33.4753 18.8135 33.5284 18.7916 33.5837 18.7916H35.2503C35.3055 18.7916 35.3587 18.8135 35.3972 18.8531C35.4368 18.8916 35.4587 18.9448 35.4587 19Z" fill="#A5A5A5"/>
<path fill-rule="evenodd" clip-rule="evenodd" d="M27.6639 43.7917H5.25033C3.86908 43.7917 2.54408 43.2427 1.567 42.2667C0.590955 41.2896 0.0419922 39.9646 0.0419922 38.5833V9.41666C0.0419922 6.54062 2.37428 4.20832 5.25033 4.20832H8.37533V3.16666C8.37533 1.44061 9.77428 0.0416565 11.5003 0.0416565C13.2264 0.0416565 14.6253 1.44061 14.6253 3.16666V4.20832H29.2087V3.16666C29.2087 1.44061 30.6076 0.0416565 32.3337 0.0416565C34.0597 0.0416565 35.4587 1.44061 35.4587 3.16666V4.20832H38.5837C41.4597 4.20832 43.792 6.54062 43.792 9.41666V27.6635C46.3368 29.7667 47.9587 32.9448 47.9587 36.5C47.9587 42.824 42.8243 47.9583 36.5003 47.9583C32.9451 47.9583 29.767 46.3365 27.6639 43.7917ZM36.5003 27.125C41.6743 27.125 45.8753 31.326 45.8753 36.5C45.8753 41.674 41.6743 45.875 36.5003 45.875C31.3264 45.875 27.1253 41.674 27.1253 36.5C27.1253 31.326 31.3264 27.125 36.5003 27.125ZM41.7087 26.2927V14.625H2.12533V38.5833C2.12533 39.4125 2.45449 40.2073 3.04095 40.7927C3.62637 41.3792 4.42116 41.7083 5.25033 41.7083H26.293C25.493 40.1458 25.042 38.375 25.042 36.5C25.042 30.176 30.1764 25.0417 36.5003 25.0417C38.3753 25.0417 40.1462 25.4927 41.7087 26.2927ZM35.4587 6.29166V7.33332C35.4587 9.05937 34.0597 10.4583 32.3337 10.4583C30.6076 10.4583 29.2087 9.05937 29.2087 7.33332V6.29166H14.6253V7.33332C14.6253 9.05937 13.2264 10.4583 11.5003 10.4583C9.77428 10.4583 8.37533 9.05937 8.37533 7.33332V6.29166H5.25033C3.52428 6.29166 2.12533 7.69062 2.12533 9.41666V12.5417H41.7087V9.41666C41.7087 7.69062 40.3097 6.29166 38.5837 6.29166H35.4587ZM33.3753 3.16666V7.33332C33.3753 7.90832 32.9087 8.37499 32.3337 8.37499C31.7587 8.37499 31.292 7.90832 31.292 7.33332V3.16666C31.292 2.59166 31.7587 2.12499 32.3337 2.12499C32.9087 2.12499 33.3753 2.59166 33.3753 3.16666ZM12.542 3.16666V7.33332C12.542 7.90832 12.0753 8.37499 11.5003 8.37499C10.9253 8.37499 10.4587 7.90832 10.4587 7.33332V3.16666C10.4587 2.59166 10.9253 2.12499 11.5003 2.12499C12.0753 2.12499 12.542 2.59166 12.542 3.16666Z" fill="#A5A5A5"/>
</svg>
