<svg width="24" height="19" viewBox="0 0 24 19" fill="none" xmlns="http://www.w3.org/2000/svg">
<path d="M12.1667 0.333344C5.73333 0.333344 0.5 4.44584 0.5 9.50001C0.5 14.5542 5.73333 18.6667 12.1667 18.6667C13.9839 18.6711 15.7855 18.3318 17.4767 17.6667L16.8567 16.1192C15.3629 16.7061 13.7716 17.005 12.1667 17C6.6525 17 2.16667 13.635 2.16667 9.50001C2.16667 5.36501 6.6525 2.00001 12.1667 2.00001C17.6808 2.00001 22.1667 5.36501 22.1667 9.50001C22.1172 11.3149 21.3071 13.0253 19.9342 14.2133L21.0658 15.4367C22.7818 13.9348 23.7864 11.7799 23.8333 9.50001C23.8333 4.44584 18.6 0.333344 12.1667 0.333344Z" fill="#21AFFF"/>
</svg>
