<svg width="50" height="44" viewBox="0 0 50 44" fill="none" xmlns="http://www.w3.org/2000/svg">
<path d="M40.3186 23.7055V5.34355C40.3186 2.80066 38.2455 0.727539 35.7026 0.727539H4.61601C2.07312 0.727539 0 2.80066 0 5.34355V23.7055C0 26.2484 2.07312 28.3215 4.61601 28.3215H5.93341V33.8566C5.93341 34.8779 6.76062 35.7051 7.79208 35.7051C8.32312 35.7051 8.83374 35.4702 9.19118 35.0617L15.0225 28.3113H35.7128C38.2455 28.3215 40.3186 26.2484 40.3186 23.7055ZM14.4404 25.8195C14.0727 25.8195 13.7357 25.9726 13.4906 26.2484L8.42525 32.1001V27.0654C8.42525 26.3709 7.86356 25.8092 7.16912 25.8092H4.61601C3.4518 25.8092 2.50204 24.8595 2.50204 23.6953V5.34355C2.50204 4.17934 3.4518 3.22958 4.61601 3.22958H35.7026C36.8668 3.22958 37.8166 4.17934 37.8166 5.34355V23.7055C37.8166 24.8697 36.8668 25.8195 35.7026 25.8195H14.4404Z" fill="#A5A5A5"/>
<path d="M40.8195 42.6291C41.177 43.0478 41.6876 43.2725 42.2084 43.2725C42.4229 43.2725 42.6475 43.2316 42.862 43.1499C43.5973 42.8742 44.0671 42.2002 44.0671 41.4138V35.8787H45.3845C47.9274 35.8787 50.0005 33.8056 50.0005 31.2627V12.9007C50.0005 10.3578 47.9274 8.28473 45.3845 8.28473C44.69 8.28473 44.1283 8.84641 44.1283 9.53064C44.1283 10.2251 44.69 10.7868 45.3845 10.7868C46.5487 10.7868 47.4984 11.7365 47.4984 12.9007V31.2627C47.4984 32.4269 46.5487 33.3766 45.3845 33.3766H42.8211C42.1267 33.3766 41.565 33.9383 41.565 34.6328V39.6675L36.4997 33.8158C36.2648 33.54 35.9176 33.3869 35.5499 33.3869H16.7591C16.0646 33.3869 15.5029 33.9485 15.5029 34.643C15.5029 35.3374 16.0646 35.8991 16.7591 35.8991H34.978L40.8195 42.6291Z" fill="#A5A5A5"/>
<path d="M20.159 16.4547C20.9824 16.4547 21.65 15.7871 21.65 14.9637C21.65 14.1402 20.9824 13.4726 20.159 13.4726C19.3355 13.4726 18.668 14.1402 18.668 14.9637C18.668 15.7871 19.3355 16.4547 20.159 16.4547Z" fill="#A5A5A5"/>
<path d="M25.1531 16.4547C25.9766 16.4547 26.6441 15.7871 26.6441 14.9637C26.6441 14.1402 25.9766 13.4726 25.1531 13.4726C24.3297 13.4726 23.6621 14.1402 23.6621 14.9637C23.6621 15.7871 24.3297 16.4547 25.1531 16.4547Z" fill="#A5A5A5"/>
<path d="M15.1658 16.4547C15.9893 16.4547 16.6568 15.7871 16.6568 14.9637C16.6568 14.1402 15.9893 13.4726 15.1658 13.4726C14.3424 13.4726 13.6748 14.1402 13.6748 14.9637C13.6748 15.7871 14.3424 16.4547 15.1658 16.4547Z" fill="#A5A5A5"/>
</svg>
