<svg width="21" height="50" viewBox="0 0 21 50" fill="none" xmlns="http://www.w3.org/2000/svg">
<path d="M16.6663 50C16.2203 50 15.7973 49.9374 15.3747 49.8062L2.83728 45.6292C1.1314 45.0334 0 43.4438 0 41.667V4.16819C0 1.87029 1.86876 0.00152588 4.16666 0.00152588C4.61221 0.00152588 5.03524 0.064085 5.45828 0.195306L17.9953 4.37227C19.7015 4.96811 20.8326 6.55764 20.8326 8.33447V45.8333C20.8326 48.1312 18.9642 50 16.6663 50ZM4.16666 3.12643C3.59371 3.12643 3.1249 3.59524 3.1249 4.16819V41.667C3.1249 42.1107 3.42282 42.523 3.84776 42.671L16.3264 46.8293C16.416 46.8583 16.5328 46.8751 16.6663 46.8751C17.2392 46.8751 17.7077 46.4062 17.7077 45.8333V8.33447C17.7077 7.89084 17.4097 7.47848 16.9848 7.33047L4.50616 3.1722C4.41652 3.14321 4.29979 3.12643 4.16666 3.12643Z" fill="#FFA800"/>
</svg>
