<svg width="22" height="14" viewBox="0 0 22 14" fill="none" xmlns="http://www.w3.org/2000/svg">
<path d="M11.0003 13.1667C10.8728 13.1667 10.7445 13.1375 10.6278 13.0792L0.627825 8.07917C0.345325 7.9375 0.166992 7.64917 0.166992 7.33334V0.960837C0.166992 0.675837 0.312826 0.410004 0.553659 0.257504C0.794493 0.104171 1.09699 0.0866702 1.35449 0.20667L11.0003 4.74584L20.6453 0.20667C20.9037 0.0858368 21.2062 0.104171 21.4462 0.257504C21.6878 0.410004 21.8337 0.675837 21.8337 0.960837V7.33334C21.8337 7.64917 21.6553 7.9375 21.3728 8.07917L11.3728 13.0792C11.2562 13.1375 11.1278 13.1667 11.0003 13.1667ZM1.83366 6.81834L11.0003 11.4017L20.167 6.81834V2.27417L11.3553 6.42084C11.1303 6.52667 10.8703 6.52667 10.6453 6.42084L1.83366 2.27417V6.81834Z" fill="#A5A5A5"/>
</svg>
