<svg width="30" height="16" viewBox="0 0 30 16" fill="none" xmlns="http://www.w3.org/2000/svg">
<path d="M15 15.5C14.8783 15.5 14.7575 15.4733 14.645 15.4208L0.478334 8.75417C0.186667 8.61667 0 8.3225 0 8C0 7.6775 0.186667 7.38334 0.478334 7.24584L14.645 0.579169C14.87 0.473336 15.13 0.473336 15.355 0.579169L29.5217 7.24584C29.8133 7.38334 30 7.6775 30 8C30 8.3225 29.8133 8.61667 29.5217 8.75417L15.355 15.4208C15.2425 15.4733 15.1217 15.5 15 15.5ZM2.79083 8L15 13.7458L27.2092 8L15 2.25417L2.79083 8Z" fill="#A5A5A5"/>
</svg>
