<svg width="20" height="20" viewBox="0 0 20 20" fill="none" xmlns="http://www.w3.org/2000/svg">
<path d="M17.5357 4.6195H11.2057C10.9487 4.6195 10.6978 4.51399 10.5244 4.33466L8.54932 2.25404C8.07456 1.78079 7.42499 1.53361 6.7671 1.5374H2.46421C1.10551 1.53736 0 2.64286 0 4.00153V15.9985C0 17.3572 1.10551 18.4627 2.46421 18.4627H17.5448H17.5471C18.905 18.4567 20.006 17.3459 20 15.991V7.08367C20 5.72497 18.8945 4.6195 17.5357 4.6195ZM18.4928 15.994C18.4951 16.5215 18.0678 16.9533 17.5433 16.9556H2.46421C1.93672 16.9556 1.50718 16.526 1.50718 15.9985V4.00153C1.50718 3.47403 1.93672 3.0445 2.46421 3.04372H6.78671C6.79499 3.04372 6.80327 3.04372 6.81159 3.04372C7.06327 3.04372 7.30745 3.14396 7.47171 3.30673L9.43627 5.37755C9.89744 5.85379 10.5425 6.12661 11.2057 6.12661H17.5357C18.0632 6.12661 18.4928 6.55614 18.4928 7.08364V15.994H18.4928Z" fill="black"/>
</svg>
