<svg width="84" height="50" viewBox="0 0 84 50" fill="none" xmlns="http://www.w3.org/2000/svg">
<rect x="0.5" y="0.5" width="83" height="49" rx="3.5" fill="white" stroke="black"/>
<g clip-path="url(#clip0_507_193)">
<path d="M49.4455 19.8591L44.7581 15.1717C44.6487 15.0622 44.4994 15 44.3438 15H36.1406C35.1714 15 34.3828 15.7886 34.3828 16.7578V33.2422C34.3828 34.2114 35.1714 35 36.1406 35H47.8594C48.8286 35 49.6172 34.2114 49.6172 33.2422V20.2734C49.6172 20.1137 49.5501 19.9636 49.4455 19.8591ZM44.9297 17.0005L47.6167 19.6875H45.5156C45.1925 19.6875 44.9297 19.4246 44.9297 19.1016V17.0005ZM47.8594 33.8281H36.1406C35.8175 33.8281 35.5547 33.5653 35.5547 33.2422V16.7578C35.5547 16.4347 35.8175 16.1719 36.1406 16.1719H43.7578V19.1016C43.7578 20.0708 44.5464 20.8594 45.5156 20.8594H48.4453V33.2422C48.4453 33.5653 48.1825 33.8281 47.8594 33.8281Z" fill="black"/>
<path d="M45.5156 23.2812H38.4844C38.1608 23.2812 37.8984 23.5436 37.8984 23.8672C37.8984 24.1908 38.1608 24.4531 38.4844 24.4531H45.5156C45.8392 24.4531 46.1016 24.1908 46.1016 23.8672C46.1016 23.5436 45.8392 23.2812 45.5156 23.2812Z" fill="black"/>
<path d="M45.5156 25.625H38.4844C38.1608 25.625 37.8984 25.8873 37.8984 26.2109C37.8984 26.5345 38.1608 26.7969 38.4844 26.7969H45.5156C45.8392 26.7969 46.1016 26.5345 46.1016 26.2109C46.1016 25.8873 45.8392 25.625 45.5156 25.625Z" fill="black"/>
<path d="M45.5156 27.9688H38.4844C38.1608 27.9688 37.8984 28.2311 37.8984 28.5547C37.8984 28.8783 38.1608 29.1406 38.4844 29.1406H45.5156C45.8392 29.1406 46.1016 28.8783 46.1016 28.5547C46.1016 28.2311 45.8392 27.9688 45.5156 27.9688Z" fill="black"/>
<path d="M43.1719 30.3125H38.4844C38.1608 30.3125 37.8984 30.5748 37.8984 30.8984C37.8984 31.222 38.1608 31.4844 38.4844 31.4844H43.1719C43.4955 31.4844 43.7578 31.222 43.7578 30.8984C43.7578 30.5748 43.4955 30.3125 43.1719 30.3125Z" fill="black"/>
</g>
<defs>
<clipPath id="clip0_507_193">
<rect width="20" height="20" fill="white" transform="translate(32 15)"/>
</clipPath>
</defs>
</svg>
