<svg width="84" height="50" viewBox="0 0 84 50" fill="none" xmlns="http://www.w3.org/2000/svg">
<rect x="0.5" y="0.5" width="83" height="49" rx="3.5" fill="white" stroke="black"/>
<g clip-path="url(#clip0_507_198)">
<path d="M39.2648 15H33.5227C32.683 15 32 15.683 32 16.5227V22.2648C32 23.1044 32.683 23.7874 33.5227 23.7874H39.2648C40.1044 23.7874 40.7874 23.1044 40.7874 22.2648V16.5227C40.7873 15.683 40.1044 15 39.2648 15Z" fill="black"/>
<path d="M50.4776 15H44.7356C43.8959 15 43.2129 15.683 43.2129 16.5227V22.2648C43.2129 23.1044 43.8959 23.7874 44.7356 23.7874H50.4776C51.3173 23.7874 52.0003 23.1044 52.0003 22.2648V16.5227C52.0003 15.683 51.3173 15 50.4776 15Z" fill="black"/>
<path d="M39.2648 26.2125H33.5227C32.683 26.2125 32 26.8955 32 27.7351V33.4772C32 34.3169 32.683 34.9999 33.5227 34.9999H39.2648C40.1044 34.9999 40.7874 34.3169 40.7874 33.4772V27.7351C40.7873 26.8955 40.1044 26.2125 39.2648 26.2125Z" fill="black"/>
<path d="M50.4776 26.2125H44.7356C43.8959 26.2125 43.2129 26.8956 43.2129 27.7352V33.4773C43.2129 34.3169 43.8959 35 44.7356 35H50.4776C51.3173 34.9999 52.0003 34.3169 52.0003 33.4772V27.7351C52.0003 26.8955 51.3173 26.2125 50.4776 26.2125Z" fill="black"/>
</g>
<defs>
<clipPath id="clip0_507_198">
<rect width="20" height="20" fill="white" transform="translate(32 15)"/>
</clipPath>
</defs>
</svg>
