<svg width="84" height="50" viewBox="0 0 84 50" fill="none" xmlns="http://www.w3.org/2000/svg">
<rect x="0.5" y="0.5" width="83" height="49" rx="3.5" fill="white" stroke="black"/>
<path d="M51.0027 32.2623H37.6288C37.0776 32.2623 36.6309 31.8155 36.6309 31.2643C36.6309 30.7131 37.0776 30.2664 37.6288 30.2664H51.0024C51.5536 30.2664 52.0004 30.7131 52.0004 31.2643C52.0004 31.8155 51.5539 32.2623 51.0027 32.2623Z" fill="black"/>
<path d="M51.0027 25.9981H37.6288C37.0776 25.9981 36.6309 25.5514 36.6309 25.0002C36.6309 24.4489 37.0776 24.0022 37.6288 24.0022H51.0024C51.5536 24.0022 52.0004 24.4489 52.0004 25.0002C52.0007 25.5514 51.5539 25.9981 51.0027 25.9981Z" fill="black"/>
<path d="M51.0027 19.7339H37.6288C37.0776 19.7339 36.6309 19.2872 36.6309 18.736C36.6309 18.1848 37.0776 17.738 37.6288 17.738H51.0024C51.5536 17.738 52.0004 18.1848 52.0004 18.736C52.0004 19.2872 51.5539 19.7339 51.0027 19.7339Z" fill="black"/>
<path d="M33.3403 20.1534C34.0805 20.1534 34.6805 19.5534 34.6805 18.8132C34.6805 18.073 34.0805 17.4729 33.3403 17.4729C32.6001 17.4729 32 18.073 32 18.8132C32 19.5534 32.6001 20.1534 33.3403 20.1534Z" fill="black"/>
<path d="M33.3403 26.3404C34.0805 26.3404 34.6805 25.7404 34.6805 25.0002C34.6805 24.26 34.0805 23.6599 33.3403 23.6599C32.6001 23.6599 32 24.26 32 25.0002C32 25.7404 32.6001 26.3404 33.3403 26.3404Z" fill="black"/>
<path d="M33.3403 32.5274C34.0805 32.5274 34.6805 31.9274 34.6805 31.1872C34.6805 30.447 34.0805 29.8469 33.3403 29.8469C32.6001 29.8469 32 30.447 32 31.1872C32 31.9274 32.6001 32.5274 33.3403 32.5274Z" fill="black"/>
</svg>
