<svg width="94" height="94" viewBox="0 0 94 94" fill="none" xmlns="http://www.w3.org/2000/svg">
<path d="M94 6.11383C94 2.73726 91.2598 -0.0207075 87.8904 0.198753C77.6363 0.866631 67.5468 3.2124 58.0278 7.15532C46.6231 11.8793 36.2607 18.8033 27.532 27.532C18.8033 36.2607 11.8793 46.6232 7.15532 58.0278C3.21239 67.5468 0.866628 77.6363 0.198752 87.8904C-0.0207079 91.2598 2.73725 94 6.11382 94L20.4612 94C23.8377 94 26.5462 91.2572 26.852 87.8945C27.4668 81.1332 29.1004 74.4915 31.7074 68.1976C35.0958 60.0172 40.0623 52.5843 46.3233 46.3233C52.5843 40.0623 60.0172 35.0958 68.1976 31.7074C74.4915 29.1004 81.1332 27.4668 87.8945 26.852C91.2572 26.5462 94 23.8377 94 20.4612L94 6.11383Z" fill="#FFA800"/>
</svg>
