<svg width="188" height="94" viewBox="0 0 188 94" fill="none" xmlns="http://www.w3.org/2000/svg">
<path d="M181.886 94C185.263 94 188.021 91.2598 187.801 87.8904C187.133 77.6363 184.788 67.5468 180.845 58.0278C176.121 46.6232 169.197 36.2607 160.468 27.532C151.739 18.8033 141.377 11.8793 129.972 7.15532C118.568 2.43138 106.344 -5.39585e-07 94 0C81.6557 5.39585e-07 69.4324 2.43138 58.0278 7.15533C46.6231 11.8793 36.2607 18.8033 27.532 27.532C18.8033 36.2607 11.8793 46.6232 7.15532 58.0278C3.21239 67.5468 0.866629 77.6363 0.198753 87.8904C-0.0207077 91.2598 2.73725 94 6.11382 94L20.4612 94C23.8377 94 26.5462 91.2572 26.852 87.8945C27.4668 81.1332 29.1004 74.4915 31.7074 68.1976C35.0958 60.0172 40.0623 52.5843 46.3233 46.3233C52.5843 40.0623 60.0172 35.0958 68.1976 31.7074C76.3779 28.319 85.1456 26.575 94 26.575C102.854 26.575 111.622 28.319 119.802 31.7074C127.983 35.0958 135.416 40.0623 141.677 46.3233C147.938 52.5843 152.904 60.0172 156.293 68.1976C158.9 74.4915 160.533 81.1332 161.148 87.8945C161.454 91.2572 164.162 94 167.539 94H181.886Z" fill="#E1E1E1"/>
</svg>
