<svg width="40" height="40" viewBox="0 0 40 40" fill="none" xmlns="http://www.w3.org/2000/svg">
<g clip-path="url(#clip0_2_106)">
<rect width="40" height="40" fill="#21D7FF"/>
<path d="M8.8125 11.4258L8.81236 11.4258C8.78766 12.4817 9.6265 13.3551 10.6781 13.3828H10.7344H11.875C12.9448 13.3828 13.8254 12.5321 13.8672 11.4596V11.4063V11.3937L13.8678 11.3812C14.038 7.99547 16.9217 5.39306 20.3063 5.56314C23.692 5.73328 26.2945 8.61703 26.1244 12.0017C25.9626 15.2516 23.2831 17.8111 20.026 17.8281L20.0234 17.8281L19.9688 17.8281H19.9638V17.8281C19.458 17.8231 19.0453 18.2266 19.0391 18.7294V18.7344V20.1563V20.1719V29.2969C19.0391 30.5928 20.0904 31.6484 21.3828 31.6484C22.6761 31.6484 23.7273 30.5994 23.7344 29.3033V22.6016V22.2596L24.0531 22.1356C29.8195 19.8918 32.6758 13.4003 30.4326 7.64246L30.4322 7.64154C28.787 3.39388 24.7418 0.57477 20.1873 0.499947L8.8125 11.4258ZM8.8125 11.4258V11.4141M8.8125 11.4258V11.4141M8.8125 11.4141V11.3128M8.8125 11.4141V11.3128M8.8125 11.3128C9.01101 5.2314 14.1021 0.402884 20.1871 0.499944L8.8125 11.3128Z" fill="#FFA800" stroke="#150095"/>
<path d="M23.2549 35C24.282 36.0271 24.2812 37.6963 23.2494 38.7282C22.2175 39.7601 20.5483 39.7609 19.5211 38.7337C18.494 37.7066 18.4948 36.0374 19.5267 35.0055C20.5585 33.9736 22.2277 33.9728 23.2549 35Z" fill="#FFA800" stroke="#150095"/>
</g>
<defs>
<clipPath id="clip0_2_106">
<rect width="40" height="40" fill="white"/>
</clipPath>
</defs>
</svg>
