<svg width="50" height="50" viewBox="0 0 50 50" fill="none" xmlns="http://www.w3.org/2000/svg">
<path d="M40.3186 26.7055V8.34355C40.3186 5.80066 38.2455 3.72754 35.7026 3.72754H4.61601C2.07312 3.72754 0 5.80066 0 8.34355V26.7055C0 29.2484 2.07312 31.3215 4.61601 31.3215H5.93341V36.8566C5.93341 37.8779 6.76062 38.7051 7.79208 38.7051C8.32312 38.7051 8.83374 38.4702 9.19118 38.0617L15.0225 31.3113H35.7128C38.2455 31.3215 40.3186 29.2484 40.3186 26.7055ZM14.4404 28.8195C14.0727 28.8195 13.7357 28.9726 13.4906 29.2484L8.42525 35.1001V30.0654C8.42525 29.3709 7.86356 28.8092 7.16912 28.8092H4.61601C3.4518 28.8092 2.50204 27.8595 2.50204 26.6953V8.34355C2.50204 7.17934 3.4518 6.22958 4.61601 6.22958H35.7026C36.8668 6.22958 37.8166 7.17934 37.8166 8.34355V26.7055C37.8166 27.8697 36.8668 28.8195 35.7026 28.8195H14.4404Z" fill="#A5A5A5"/>
<path d="M40.819 45.629C41.1765 46.0477 41.6871 46.2724 42.2079 46.2724C42.4224 46.2724 42.6471 46.2316 42.8615 46.1499C43.5968 45.8741 44.0666 45.2001 44.0666 44.4138V38.8786H45.384C47.9269 38.8786 50 36.8055 50 34.2626V15.9007C50 13.3578 47.9269 11.2847 45.384 11.2847C44.6895 11.2847 44.1278 11.8464 44.1278 12.5306C44.1278 13.225 44.6895 13.7867 45.384 13.7867C46.5482 13.7867 47.4979 14.7365 47.4979 15.9007V34.2626C47.4979 35.4268 46.5482 36.3766 45.384 36.3766H42.8207C42.1262 36.3766 41.5645 36.9383 41.5645 37.6327V42.6674L36.4992 36.8157C36.2643 36.54 35.9171 36.3868 35.5494 36.3868H16.7586C16.0641 36.3868 15.5024 36.9485 15.5024 37.6429C15.5024 38.3374 16.0641 38.899 16.7586 38.899H34.9775L40.819 45.629Z" fill="#A5A5A5"/>
<path d="M20.1595 19.4547C20.9829 19.4547 21.6505 18.7871 21.6505 17.9637C21.6505 17.1402 20.9829 16.4727 20.1595 16.4727C19.336 16.4727 18.6685 17.1402 18.6685 17.9637C18.6685 18.7871 19.336 19.4547 20.1595 19.4547Z" fill="#A5A5A5"/>
<path d="M25.1531 19.4547C25.9766 19.4547 26.6441 18.7871 26.6441 17.9637C26.6441 17.1402 25.9766 16.4727 25.1531 16.4727C24.3297 16.4727 23.6621 17.1402 23.6621 17.9637C23.6621 18.7871 24.3297 19.4547 25.1531 19.4547Z" fill="#A5A5A5"/>
<path d="M15.1653 19.4547C15.9888 19.4547 16.6563 18.7871 16.6563 17.9637C16.6563 17.1402 15.9888 16.4727 15.1653 16.4727C14.3419 16.4727 13.6743 17.1402 13.6743 17.9637C13.6743 18.7871 14.3419 19.4547 15.1653 19.4547Z" fill="#A5A5A5"/>
</svg>
