<svg width="50" height="50" viewBox="0 0 50 50" fill="none" xmlns="http://www.w3.org/2000/svg">
<g clip-path="url(#clip0_345_423)">
<path d="M25 22.5C24.8783 22.5 24.7575 22.4733 24.645 22.4208L10.4783 15.7541C10.1867 15.6166 10 15.3225 10 15C10 14.6775 10.1867 14.3833 10.4783 14.2458L24.645 7.57913C24.87 7.4733 25.13 7.4733 25.355 7.57913L39.5217 14.2458C39.8133 14.3833 40 14.6775 40 15C40 15.3225 39.8133 15.6166 39.5217 15.7541L25.355 22.4208C25.2425 22.4733 25.1217 22.5 25 22.5ZM12.7908 15L25 20.7458L37.2092 15L25 9.25413L12.7908 15Z" fill="#A5A5A5"/>
<path d="M24.9998 29.1667C24.8723 29.1667 24.744 29.1376 24.6273 29.0792L14.6273 24.0792C14.3448 23.9375 14.1665 23.6492 14.1665 23.3334V16.9609C14.1665 16.6759 14.3123 16.41 14.5532 16.2575C14.794 16.1042 15.0965 16.0867 15.354 16.2067L24.9998 20.7459L34.6448 16.2067C34.9032 16.0859 35.2057 16.1042 35.4457 16.2575C35.6873 16.41 35.8332 16.6759 35.8332 16.9609V23.3334C35.8332 23.6492 35.6548 23.9375 35.3723 24.0792L25.3723 29.0792C25.2557 29.1376 25.1273 29.1667 24.9998 29.1667ZM15.8332 22.8184L24.9998 27.4017L34.1665 22.8184V18.2742L25.3548 22.4209C25.1298 22.5267 24.8698 22.5267 24.6448 22.4209L15.8332 18.2742V22.8184Z" fill="#A5A5A5"/>
<path d="M39.1665 15.8333H24.9998C24.5398 15.8333 24.1665 15.46 24.1665 15C24.1665 14.54 24.5398 14.1666 24.9998 14.1666H39.1665C39.6265 14.1666 39.9998 14.54 39.9998 15C39.9998 15.46 39.6265 15.8333 39.1665 15.8333Z" fill="#A5A5A5"/>
<path d="M39.1668 23.3333C38.7068 23.3333 38.3335 22.96 38.3335 22.5V15C38.3335 14.54 38.7068 14.1666 39.1668 14.1666C39.6268 14.1666 40.0002 14.54 40.0002 15V22.5C40.0002 22.96 39.6268 23.3333 39.1668 23.3333Z" fill="#A5A5A5"/>
<path d="M24.9998 17.5C24.5398 17.5 24.1665 17.1267 24.1665 16.6667V13.3333C24.1665 12.8733 24.5398 12.5 24.9998 12.5C25.4598 12.5 25.8332 12.8733 25.8332 13.3333V16.6667C25.8332 17.1267 25.4598 17.5 24.9998 17.5Z" fill="#A5A5A5"/>
<path d="M37.4994 25.8333C37.3411 25.8333 37.1802 25.7883 37.0377 25.6933C36.6552 25.4383 36.5519 24.9208 36.8069 24.5374L38.4736 22.0374C38.7286 21.6541 39.2452 21.5499 39.6294 21.8066C40.0119 22.0616 40.1152 22.5791 39.8602 22.9624L38.1936 25.4624C38.0327 25.7033 37.7686 25.8333 37.4994 25.8333Z" fill="#A5A5A5"/>
<path d="M40.8342 25.8333C40.5651 25.8333 40.3009 25.7033 40.1401 25.4624L38.4734 22.9624C38.2184 22.5799 38.3217 22.0616 38.7042 21.8066C39.0867 21.5499 39.6042 21.6541 39.8601 22.0374L41.5267 24.5374C41.7817 24.9199 41.6784 25.4383 41.2959 25.6933C41.1534 25.7883 40.9926 25.8333 40.8342 25.8333Z" fill="#A5A5A5"/>
<path d="M24.9998 25C24.5398 25 24.1665 24.6267 24.1665 24.1667V21.6667C24.1665 21.2067 24.5398 20.8334 24.9998 20.8334C25.4598 20.8334 25.8332 21.2067 25.8332 21.6667V24.1667C25.8332 24.6267 25.4598 25 24.9998 25Z" fill="#A5A5A5"/>
<path d="M49.1667 32.5H0.833333C0.373333 32.5 0 32.1267 0 31.6667V4.16754C0 2.32921 1.49583 0.833374 3.33417 0.833374H46.6658C48.5042 0.833374 50 2.32921 50 4.16754V31.6667C50 32.1267 49.6267 32.5 49.1667 32.5ZM1.66667 30.8334H48.3333V4.16754C48.3333 3.24754 47.5858 2.50004 46.6658 2.50004H3.33417C2.41417 2.50004 1.66667 3.24754 1.66667 4.16754V30.8334Z" fill="#A5A5A5"/>
<path d="M46.6658 39.1667H3.33417C1.49583 39.1667 0 37.6709 0 35.8325V31.6667C0 31.2067 0.373333 30.8334 0.833333 30.8334H49.1667C49.6267 30.8334 50 31.2067 50 31.6667V35.8325C50 37.6709 48.5042 39.1667 46.6658 39.1667ZM1.66667 32.5V35.8325C1.66667 36.7525 2.41417 37.5 3.33417 37.5H46.6658C47.5858 37.5 48.3333 36.7525 48.3333 35.8325V32.5H1.66667Z" fill="#A5A5A5"/>
<path d="M27.4998 35.8333H22.4998C22.0398 35.8333 21.6665 35.46 21.6665 35C21.6665 34.54 22.0398 34.1666 22.4998 34.1666H27.4998C27.9598 34.1666 28.3332 34.54 28.3332 35C28.3332 35.46 27.9598 35.8333 27.4998 35.8333Z" fill="#A5A5A5"/>
<path d="M45.8335 32.5H4.16683C3.70683 32.5 3.3335 32.1266 3.3335 31.6666V4.99996C3.3335 4.53996 3.70683 4.16663 4.16683 4.16663H45.8335C46.2935 4.16663 46.6668 4.53996 46.6668 4.99996V31.6666C46.6668 32.1266 46.2935 32.5 45.8335 32.5ZM5.00016 30.8333H45.0002V5.83329H5.00016V30.8333Z" fill="#A5A5A5"/>
<path d="M35.8332 49.1666H14.1665C12.7882 49.1666 11.6665 48.045 11.6665 46.6666C11.6665 45.2883 12.7882 44.1666 14.1665 44.1666H35.8332C37.2115 44.1666 38.3332 45.2883 38.3332 46.6666C38.3332 48.045 37.2115 49.1666 35.8332 49.1666ZM14.1665 45.8333C13.7073 45.8333 13.3332 46.2075 13.3332 46.6666C13.3332 47.1258 13.7073 47.5 14.1665 47.5H35.8332C36.2923 47.5 36.6665 47.1258 36.6665 46.6666C36.6665 46.2075 36.2923 45.8333 35.8332 45.8333H14.1665Z" fill="#A5A5A5"/>
<path d="M34.1667 45.8333H15.8333C15.3733 45.8333 15 45.46 15 45C15 44.54 15.3733 44.1667 15.8333 44.1667C18.5983 44.1667 20 42.2042 20 38.3333C20 37.8733 20.3733 37.5 20.8333 37.5H29.1667C29.6267 37.5 30 37.8733 30 38.3333C30 42.2042 31.4017 44.1667 34.1667 44.1667C34.6267 44.1667 35 44.54 35 45C35 45.46 34.6267 45.8333 34.1667 45.8333ZM19.8925 44.1667H30.1083C29.0817 43.03 28.4775 41.3375 28.3567 39.1667H21.6442C21.5225 41.3375 20.9192 43.03 19.8925 44.1667Z" fill="#A5A5A5"/>
</g>
<defs>
<clipPath id="clip0_345_423">
<rect width="50" height="50" fill="white"/>
</clipPath>
</defs>
</svg>
