<svg width="50" height="50" viewBox="0 0 50 50" fill="none" xmlns="http://www.w3.org/2000/svg">
<g clip-path="url(#clip0_345_601)">
<path d="M48.4361 23.4383H28.645C27.7825 23.4383 27.0825 22.7383 27.0825 21.8758C27.0825 21.0133 27.7825 20.3134 28.645 20.3134H48.4361C49.2986 20.3134 49.9986 21.0133 49.9986 21.8758C49.9986 22.7383 49.2986 23.4383 48.4361 23.4383Z" fill="#FFA800"/>
<path d="M40.6236 31.2506C40.2234 31.2506 39.8237 31.0984 39.5193 30.7924C38.9089 30.1817 38.9089 29.1922 39.5193 28.5819L46.2276 21.874L39.5193 15.1656C38.9089 14.5553 38.9089 13.5658 39.5193 12.9555C40.13 12.3448 41.1195 12.3448 41.7298 12.9555L49.5421 20.7677C50.1524 21.3781 50.1524 22.3676 49.5421 22.9779L41.7298 30.7902C41.4235 31.0984 41.0237 31.2506 40.6236 31.2506Z" fill="#FFA800"/>
<path d="M16.6663 50C16.2203 50 15.7973 49.9375 15.3747 49.8062L2.83728 45.6293C1.1314 45.0334 0 43.4439 0 41.6671V4.16825C0 1.87035 1.86876 0.00158691 4.16666 0.00158691C4.61221 0.00158691 5.03524 0.064146 5.45828 0.195368L17.9953 4.37233C19.7015 4.96817 20.8326 6.5577 20.8326 8.33453V45.8334C20.8326 48.1313 18.9642 50 16.6663 50ZM4.16666 3.12649C3.59371 3.12649 3.1249 3.5953 3.1249 4.16825V41.6671C3.1249 42.1107 3.42282 42.5231 3.84776 42.6711L16.3264 46.8293C16.416 46.8583 16.5328 46.8751 16.6663 46.8751C17.2392 46.8751 17.7077 46.4063 17.7077 45.8334V8.33453C17.7077 7.8909 17.4097 7.47854 16.9848 7.33054L4.50616 3.17226C4.41652 3.14327 4.29979 3.12649 4.16666 3.12649Z" fill="#FFA800"/>
<path d="M31.7695 16.6679C30.907 16.6679 30.2071 15.9679 30.2071 15.1054V5.7307C30.2071 4.29528 29.0386 3.12649 27.6032 3.12649H4.16646C3.30398 3.12649 2.604 2.42651 2.604 1.56404C2.604 0.701562 3.30398 0.00158691 4.16646 0.00158691H27.6032C30.7636 0.00158691 33.332 2.57032 33.332 5.7307V15.1054C33.332 15.9679 32.632 16.6679 31.7695 16.6679Z" fill="#FFA800"/>
<path d="M27.6033 43.7501H19.27C18.4075 43.7501 17.7075 43.0502 17.7075 42.1877C17.7075 41.3252 18.4075 40.6252 19.27 40.6252H27.6033C29.0387 40.6252 30.2071 39.4564 30.2071 38.021V28.6463C30.2071 27.7838 30.9071 27.0839 31.7696 27.0839C32.6321 27.0839 33.332 27.7838 33.332 28.6463V38.021C33.332 41.1814 30.7637 43.7501 27.6033 43.7501Z" fill="#FFA800"/>
</g>
<defs>
<clipPath id="clip0_345_601">
<rect width="50" height="50" fill="white"/>
</clipPath>
</defs>
</svg>
