<svg width="52" height="52" viewBox="0 0 52 52" fill="none" xmlns="http://www.w3.org/2000/svg">
<path d="M48.4908 23.7303H8.07536L21.061 10.7447C21.8677 9.93793 21.8677 8.63397 21.061 7.82723C20.2538 7.02048 18.9498 7.02048 18.1431 7.82723L1.63529 24.333C1.44512 24.5247 1.29457 24.754 1.18957 25.0055C0.981079 25.5092 0.981079 26.0787 1.18957 26.5824C1.29457 26.834 1.44512 27.0628 1.63529 27.2549L18.1431 43.7607C18.5452 44.1633 19.0736 44.3654 19.602 44.3654C20.13 44.3654 20.6584 44.1633 21.061 43.7607C21.8677 42.954 21.8677 41.65 21.061 40.8428L8.07536 27.8576H48.4908C49.6298 27.8576 50.5544 26.933 50.5544 25.794C50.5544 24.6549 49.6298 23.7303 48.4908 23.7303Z" fill="#21AFFF"/>
</svg>
