<svg width="50" height="50" viewBox="0 0 50 50" fill="none" xmlns="http://www.w3.org/2000/svg">
<path d="M40.3186 26.7055V8.34354C40.3186 5.80065 38.2455 3.72753 35.7026 3.72753H4.61601C2.07312 3.72753 0 5.80065 0 8.34354V26.7055C0 29.2484 2.07312 31.3215 4.61601 31.3215H5.93341V36.8566C5.93341 37.8779 6.76062 38.7051 7.79208 38.7051C8.32312 38.7051 8.83374 38.4702 9.19118 38.0617L15.0225 31.3113H35.7128C38.2455 31.3215 40.3186 29.2484 40.3186 26.7055ZM14.4404 28.8194C14.0727 28.8194 13.7357 28.9726 13.4906 29.2484L8.42525 35.1001V30.0654C8.42525 29.3709 7.86356 28.8092 7.16912 28.8092H4.61601C3.4518 28.8092 2.50204 27.8595 2.50204 26.6953V8.34354C2.50204 7.17933 3.4518 6.22957 4.61601 6.22957H35.7026C36.8668 6.22957 37.8166 7.17933 37.8166 8.34354V26.7055C37.8166 27.8697 36.8668 28.8194 35.7026 28.8194H14.4404Z" fill="#A5A5A5"/>
<path d="M40.819 45.6291C41.1765 46.0478 41.6871 46.2725 42.2079 46.2725C42.4224 46.2725 42.6471 46.2316 42.8615 46.1499C43.5968 45.8742 44.0666 45.2002 44.0666 44.4138V38.8787H45.384C47.9269 38.8787 50 36.8056 50 34.2627V15.9007C50 13.3578 47.9269 11.2847 45.384 11.2847C44.6895 11.2847 44.1278 11.8464 44.1278 12.5306C44.1278 13.2251 44.6895 13.7868 45.384 13.7868C46.5482 13.7868 47.4979 14.7365 47.4979 15.9007V34.2627C47.4979 35.4269 46.5482 36.3766 45.384 36.3766H42.8207C42.1262 36.3766 41.5645 36.9383 41.5645 37.6328V42.6675L36.4992 36.8158C36.2643 36.54 35.9171 36.3868 35.5494 36.3868H16.7586C16.0641 36.3868 15.5024 36.9485 15.5024 37.643C15.5024 38.3374 16.0641 38.8991 16.7586 38.8991H34.9775L40.819 45.6291Z" fill="#A5A5A5"/>
<path d="M20.1593 19.4547C20.9827 19.4547 21.6503 18.7871 21.6503 17.9636C21.6503 17.1402 20.9827 16.4726 20.1593 16.4726C19.3358 16.4726 18.6683 17.1402 18.6683 17.9636C18.6683 18.7871 19.3358 19.4547 20.1593 19.4547Z" fill="#A5A5A5"/>
<path d="M25.1532 19.4547C25.9766 19.4547 26.6442 18.7871 26.6442 17.9636C26.6442 17.1402 25.9766 16.4726 25.1532 16.4726C24.3297 16.4726 23.6622 17.1402 23.6622 17.9636C23.6622 18.7871 24.3297 19.4547 25.1532 19.4547Z" fill="#A5A5A5"/>
<path d="M15.1655 19.4547C15.9889 19.4547 16.6565 18.7871 16.6565 17.9636C16.6565 17.1402 15.9889 16.4726 15.1655 16.4726C14.342 16.4726 13.6744 17.1402 13.6744 17.9636C13.6744 18.7871 14.342 19.4547 15.1655 19.4547Z" fill="#A5A5A5"/>
</svg>
