<svg width="50" height="50" viewBox="0 0 50 50" fill="none" xmlns="http://www.w3.org/2000/svg">
<path fill-rule="evenodd" clip-rule="evenodd" d="M36.4584 31.25V37.5C36.4584 38.075 36.925 38.5417 37.5 38.5417H43.75C44.325 38.5417 44.7917 38.075 44.7917 37.5C44.7917 36.925 44.325 36.4583 43.75 36.4583H38.5417V31.25C38.5417 30.675 38.075 30.2083 37.5 30.2083C36.925 30.2083 36.4584 30.675 36.4584 31.25Z" fill="#A5A5A5"/>
<path fill-rule="evenodd" clip-rule="evenodd" d="M13.5417 20C13.5417 19.3927 13.3 18.8094 12.8709 18.3792C12.4406 17.95 11.8573 17.7083 11.25 17.7083H9.58335C8.97606 17.7083 8.39273 17.95 7.96252 18.3792C7.53335 18.8094 7.29169 19.3927 7.29169 20V21.6667C7.29169 22.274 7.53335 22.8573 7.96252 23.2875C8.39273 23.7167 8.97606 23.9583 9.58335 23.9583H11.25C11.8573 23.9583 12.4406 23.7167 12.8709 23.2875C13.3 22.8573 13.5417 22.274 13.5417 21.6667V20ZM11.4584 20V21.6667C11.4584 21.7219 11.4365 21.775 11.3969 21.8135C11.3583 21.8531 11.3052 21.875 11.25 21.875H9.58335C9.52814 21.875 9.47503 21.8531 9.43648 21.8135C9.3969 21.775 9.37502 21.7219 9.37502 21.6667V20C9.37502 19.9448 9.3969 19.8917 9.43648 19.8531C9.47503 19.8135 9.52814 19.7917 9.58335 19.7917H11.25C11.3052 19.7917 11.3583 19.8135 11.3969 19.8531C11.4365 19.8917 11.4584 19.9448 11.4584 20Z" fill="#A5A5A5"/>
<path fill-rule="evenodd" clip-rule="evenodd" d="M13.5417 28.3333C13.5417 27.726 13.3 27.1427 12.8709 26.7125C12.4406 26.2833 11.8573 26.0417 11.25 26.0417H9.58335C8.97606 26.0417 8.39273 26.2833 7.96252 26.7125C7.53335 27.1427 7.29169 27.726 7.29169 28.3333V30C7.29169 30.6073 7.53335 31.1906 7.96252 31.6208C8.39273 32.05 8.97606 32.2917 9.58335 32.2917H11.25C11.8573 32.2917 12.4406 32.05 12.8709 31.6208C13.3 31.1906 13.5417 30.6073 13.5417 30V28.3333ZM11.4584 28.3333V30C11.4584 30.0552 11.4365 30.1083 11.3969 30.1469C11.3583 30.1865 11.3052 30.2083 11.25 30.2083H9.58335C9.52814 30.2083 9.47503 30.1865 9.43648 30.1469C9.3969 30.1083 9.37502 30.0552 9.37502 30V28.3333C9.37502 28.2781 9.3969 28.225 9.43648 28.1865C9.47503 28.1469 9.52814 28.125 9.58335 28.125H11.25C11.3052 28.125 11.3583 28.1469 11.3969 28.1865C11.4365 28.225 11.4584 28.2781 11.4584 28.3333Z" fill="#A5A5A5"/>
<path fill-rule="evenodd" clip-rule="evenodd" d="M13.5417 36.6667C13.5417 36.0594 13.3 35.476 12.8709 35.0458C12.4406 34.6167 11.8573 34.375 11.25 34.375H9.58335C8.97606 34.375 8.39273 34.6167 7.96252 35.0458C7.53335 35.476 7.29169 36.0594 7.29169 36.6667V38.3333C7.29169 38.9406 7.53335 39.524 7.96252 39.9542C8.39273 40.3833 8.97606 40.625 9.58335 40.625H11.25C11.8573 40.625 12.4406 40.3833 12.8709 39.9542C13.3 39.524 13.5417 38.9406 13.5417 38.3333V36.6667ZM11.4584 36.6667V38.3333C11.4584 38.3885 11.4365 38.4417 11.3969 38.4802C11.3583 38.5198 11.3052 38.5417 11.25 38.5417H9.58335C9.52814 38.5417 9.47503 38.5198 9.43648 38.4802C9.3969 38.4417 9.37502 38.3885 9.37502 38.3333V36.6667C9.37502 36.6115 9.3969 36.5583 9.43648 36.5198C9.47503 36.4802 9.52814 36.4583 9.58335 36.4583H11.25C11.3052 36.4583 11.3583 36.4802 11.3969 36.5198C11.4365 36.5583 11.4584 36.6115 11.4584 36.6667Z" fill="#A5A5A5"/>
<path fill-rule="evenodd" clip-rule="evenodd" d="M21.875 20C21.875 19.3927 21.6333 18.8094 21.2042 18.3792C20.774 17.95 20.1906 17.7083 19.5833 17.7083H17.9167C17.3094 17.7083 16.726 17.95 16.2958 18.3792C15.8667 18.8094 15.625 19.3927 15.625 20V21.6667C15.625 22.274 15.8667 22.8573 16.2958 23.2875C16.726 23.7167 17.3094 23.9583 17.9167 23.9583H19.5833C20.1906 23.9583 20.774 23.7167 21.2042 23.2875C21.6333 22.8573 21.875 22.274 21.875 21.6667V20ZM19.7917 20V21.6667C19.7917 21.7219 19.7698 21.775 19.7302 21.8135C19.6917 21.8531 19.6385 21.875 19.5833 21.875H17.9167C17.8615 21.875 17.8083 21.8531 17.7698 21.8135C17.7302 21.775 17.7083 21.7219 17.7083 21.6667V20C17.7083 19.9448 17.7302 19.8917 17.7698 19.8531C17.8083 19.8135 17.8615 19.7917 17.9167 19.7917H19.5833C19.6385 19.7917 19.6917 19.8135 19.7302 19.8531C19.7698 19.8917 19.7917 19.9448 19.7917 20Z" fill="#A5A5A5"/>
<path fill-rule="evenodd" clip-rule="evenodd" d="M21.875 28.3333C21.875 27.726 21.6333 27.1427 21.2042 26.7125C20.774 26.2833 20.1906 26.0417 19.5833 26.0417H17.9167C17.3094 26.0417 16.726 26.2833 16.2958 26.7125C15.8667 27.1427 15.625 27.726 15.625 28.3333V30C15.625 30.6073 15.8667 31.1906 16.2958 31.6208C16.726 32.05 17.3094 32.2917 17.9167 32.2917H19.5833C20.1906 32.2917 20.774 32.05 21.2042 31.6208C21.6333 31.1906 21.875 30.6073 21.875 30V28.3333ZM19.7917 28.3333V30C19.7917 30.0552 19.7698 30.1083 19.7302 30.1469C19.6917 30.1865 19.6385 30.2083 19.5833 30.2083H17.9167C17.8615 30.2083 17.8083 30.1865 17.7698 30.1469C17.7302 30.1083 17.7083 30.0552 17.7083 30V28.3333C17.7083 28.2781 17.7302 28.225 17.7698 28.1865C17.8083 28.1469 17.8615 28.125 17.9167 28.125H19.5833C19.6385 28.125 19.6917 28.1469 19.7302 28.1865C19.7698 28.225 19.7917 28.2781 19.7917 28.3333Z" fill="#A5A5A5"/>
<path fill-rule="evenodd" clip-rule="evenodd" d="M21.875 36.6667C21.875 36.0594 21.6333 35.476 21.2042 35.0458C20.774 34.6167 20.1906 34.375 19.5833 34.375H17.9167C17.3094 34.375 16.726 34.6167 16.2958 35.0458C15.8667 35.476 15.625 36.0594 15.625 36.6667V38.3333C15.625 38.9406 15.8667 39.524 16.2958 39.9542C16.726 40.3833 17.3094 40.625 17.9167 40.625H19.5833C20.1906 40.625 20.774 40.3833 21.2042 39.9542C21.6333 39.524 21.875 38.9406 21.875 38.3333V36.6667ZM19.7917 36.6667V38.3333C19.7917 38.3885 19.7698 38.4417 19.7302 38.4802C19.6917 38.5198 19.6385 38.5417 19.5833 38.5417H17.9167C17.8615 38.5417 17.8083 38.5198 17.7698 38.4802C17.7302 38.4417 17.7083 38.3885 17.7083 38.3333V36.6667C17.7083 36.6115 17.7302 36.5583 17.7698 36.5198C17.8083 36.4802 17.8615 36.4583 17.9167 36.4583H19.5833C19.6385 36.4583 19.6917 36.4802 19.7302 36.5198C19.7698 36.5583 19.7917 36.6115 19.7917 36.6667Z" fill="#A5A5A5"/>
<path fill-rule="evenodd" clip-rule="evenodd" d="M30.2084 20C30.2084 19.3927 29.9667 18.8094 29.5375 18.3792C29.1073 17.95 28.524 17.7083 27.9167 17.7083H26.25C25.6427 17.7083 25.0594 17.95 24.6292 18.3792C24.2 18.8094 23.9584 19.3927 23.9584 20V21.6667C23.9584 22.274 24.2 22.8573 24.6292 23.2875C25.0594 23.7167 25.6427 23.9583 26.25 23.9583H27.9167C28.524 23.9583 29.1073 23.7167 29.5375 23.2875C29.9667 22.8573 30.2084 22.274 30.2084 21.6667V20ZM28.125 20V21.6667C28.125 21.7219 28.1032 21.775 28.0636 21.8135C28.025 21.8531 27.9719 21.875 27.9167 21.875H26.25C26.1948 21.875 26.1417 21.8531 26.1032 21.8135C26.0636 21.775 26.0417 21.7219 26.0417 21.6667V20C26.0417 19.9448 26.0636 19.8917 26.1032 19.8531C26.1417 19.8135 26.1948 19.7917 26.25 19.7917H27.9167C27.9719 19.7917 28.025 19.8135 28.0636 19.8531C28.1032 19.8917 28.125 19.9448 28.125 20Z" fill="#A5A5A5"/>
<path fill-rule="evenodd" clip-rule="evenodd" d="M38.5417 20C38.5417 19.3927 38.3 18.8094 37.8709 18.3792C37.4406 17.95 36.8573 17.7083 36.25 17.7083H34.5834C33.9761 17.7083 33.3927 17.95 32.9625 18.3792C32.5334 18.8094 32.2917 19.3927 32.2917 20V21.6667C32.2917 22.274 32.5334 22.8573 32.9625 23.2875C33.3927 23.7167 33.9761 23.9583 34.5834 23.9583H36.25C36.8573 23.9583 37.4406 23.7167 37.8709 23.2875C38.3 22.8573 38.5417 22.274 38.5417 21.6667V20ZM36.4584 20V21.6667C36.4584 21.7219 36.4365 21.775 36.3969 21.8135C36.3583 21.8531 36.3052 21.875 36.25 21.875H34.5834C34.5281 21.875 34.475 21.8531 34.4365 21.8135C34.3969 21.775 34.375 21.7219 34.375 21.6667V20C34.375 19.9448 34.3969 19.8917 34.4365 19.8531C34.475 19.8135 34.5281 19.7917 34.5834 19.7917H36.25C36.3052 19.7917 36.3583 19.8135 36.3969 19.8531C36.4365 19.8917 36.4584 19.9448 36.4584 20Z" fill="#A5A5A5"/>
<path fill-rule="evenodd" clip-rule="evenodd" d="M28.6636 44.7917H6.25002C4.86877 44.7917 3.54378 44.2427 2.56669 43.2667C1.59065 42.2896 1.04169 40.9646 1.04169 39.5833V10.4167C1.04169 7.54063 3.37398 5.20834 6.25002 5.20834H9.37502V4.16667C9.37502 2.44063 10.774 1.04167 12.5 1.04167C14.2261 1.04167 15.625 2.44063 15.625 4.16667V5.20834H30.2084V4.16667C30.2084 2.44063 31.6073 1.04167 33.3334 1.04167C35.0594 1.04167 36.4584 2.44063 36.4584 4.16667V5.20834H39.5834C42.4594 5.20834 44.7917 7.54063 44.7917 10.4167V28.6635C47.3365 30.7667 48.9584 33.9448 48.9584 37.5C48.9584 43.824 43.824 48.9583 37.5 48.9583C33.9448 48.9583 30.7667 47.3365 28.6636 44.7917ZM37.5 28.125C42.674 28.125 46.875 32.326 46.875 37.5C46.875 42.674 42.674 46.875 37.5 46.875C32.3261 46.875 28.125 42.674 28.125 37.5C28.125 32.326 32.3261 28.125 37.5 28.125ZM42.7084 27.2927V15.625H3.12502V39.5833C3.12502 40.4125 3.45418 41.2073 4.04064 41.7927C4.62606 42.3792 5.42085 42.7083 6.25002 42.7083H27.2927C26.4927 41.1458 26.0417 39.375 26.0417 37.5C26.0417 31.176 31.1761 26.0417 37.5 26.0417C39.375 26.0417 41.1459 26.4927 42.7084 27.2927ZM36.4584 7.29167V8.33334C36.4584 10.0594 35.0594 11.4583 33.3334 11.4583C31.6073 11.4583 30.2084 10.0594 30.2084 8.33334V7.29167H15.625V8.33334C15.625 10.0594 14.2261 11.4583 12.5 11.4583C10.774 11.4583 9.37502 10.0594 9.37502 8.33334V7.29167H6.25002C4.52398 7.29167 3.12502 8.69063 3.12502 10.4167V13.5417H42.7084V10.4167C42.7084 8.69063 41.3094 7.29167 39.5834 7.29167H36.4584ZM34.375 4.16667V8.33334C34.375 8.90834 33.9084 9.37501 33.3334 9.37501C32.7584 9.37501 32.2917 8.90834 32.2917 8.33334V4.16667C32.2917 3.59167 32.7584 3.12501 33.3334 3.12501C33.9084 3.12501 34.375 3.59167 34.375 4.16667ZM13.5417 4.16667V8.33334C13.5417 8.90834 13.075 9.37501 12.5 9.37501C11.925 9.37501 11.4584 8.90834 11.4584 8.33334V4.16667C11.4584 3.59167 11.925 3.12501 12.5 3.12501C13.075 3.12501 13.5417 3.59167 13.5417 4.16667Z" fill="#A5A5A5"/>
</svg>
