<svg width="801" height="632" viewBox="0 0 801 632" fill="none" xmlns="http://www.w3.org/2000/svg">
<path d="M786.789 548.244H10.6675V548.651H786.789V548.244Z" fill="#EBEBEB"/>
<path d="M377.351 474.872H59.7585C57.2775 474.867 54.8993 473.881 53.1432 472.128C51.3872 470.374 50.396 467.997 50.3862 465.516V18.8983C50.4082 16.4247 51.4047 14.0595 53.1594 12.3163C54.9142 10.5732 57.2855 9.59279 59.7585 9.58801H377.351C379.84 9.59291 382.224 10.5845 383.983 12.3453C385.742 14.1062 386.731 16.4926 386.733 18.9816V465.516C386.721 467.998 385.728 470.375 383.97 472.128C382.212 473.881 379.833 474.867 377.351 474.872ZM59.7585 9.92119C57.3807 9.92608 55.1018 10.8738 53.4213 12.5565C51.7408 14.2392 50.7958 16.5198 50.7933 18.8983V465.516C50.7958 467.894 51.7408 470.175 53.4213 471.858C55.1018 473.54 57.3807 474.488 59.7585 474.493H377.351C379.73 474.488 382.01 473.541 383.692 471.858C385.374 470.176 386.321 467.895 386.326 465.516V18.8983C386.321 16.5189 385.374 14.2384 383.692 12.5559C382.01 10.8734 379.73 9.92608 377.351 9.92119H59.7585Z" fill="#EBEBEB"/>
<path d="M733.127 474.872H415.525C413.047 474.86 410.674 473.871 408.921 472.119C407.168 470.367 406.177 467.994 406.162 465.516V18.8983C406.186 16.4222 407.186 14.0557 408.945 12.3125C410.703 10.5693 413.077 9.59033 415.553 9.58801H733.127C735.597 9.59765 737.964 10.5802 739.714 12.3228C741.465 14.0654 742.459 16.4278 742.481 18.8983V465.516C742.471 467.994 741.483 470.368 739.731 472.121C737.979 473.874 735.605 474.863 733.127 474.872ZM415.525 9.92119C413.145 9.92363 410.863 10.8699 409.179 12.5527C407.495 14.2354 406.546 16.5173 406.541 18.8983V465.516C406.546 467.897 407.495 470.179 409.179 471.861C410.863 473.544 413.145 474.49 415.525 474.493H733.127C735.506 474.488 737.786 473.541 739.468 471.858C741.15 470.176 742.097 467.895 742.102 465.516V18.8983C742.097 16.5189 741.15 14.2384 739.468 12.5559C737.786 10.8734 735.506 9.92608 733.127 9.92119H415.525Z" fill="#EBEBEB"/>
<path d="M727.512 563.913H675.589V564.32H727.512V563.913Z" fill="#EBEBEB"/>
<path d="M539.085 559.452H484.138V559.859H539.085V559.452Z" fill="#EBEBEB"/>
<path d="M742.509 579.192H639.831V579.599H742.509V579.192Z" fill="#EBEBEB"/>
<path d="M105.454 576.434H73.8215V576.842H105.454V576.434Z" fill="#EBEBEB"/>
<path d="M169.931 576.434H120.109V576.842H169.931V576.434Z" fill="#EBEBEB"/>
<path d="M389.092 569.484H299.357V569.891H389.092V569.484Z" fill="#EBEBEB"/>
<path d="M687.598 69.235H443.55V326.851H687.598V69.235Z" fill="#E6E6E6"/>
<path d="M417.394 60.8873H703.401C703.719 60.8873 704.034 60.95 704.328 61.0719C704.623 61.1937 704.89 61.3723 705.115 61.5975C705.34 61.8226 705.519 62.0899 705.64 62.3841C705.762 62.6783 705.825 62.9936 705.825 63.312C705.818 63.9503 705.559 64.5599 705.105 65.0087C704.651 65.4574 704.039 65.7091 703.401 65.709H417.394C416.753 65.7115 416.137 65.4597 415.681 65.0087C415.225 64.5577 414.966 63.9443 414.961 63.3028C414.961 62.6572 415.217 62.0381 415.674 61.5817C416.13 61.1252 416.749 60.8688 417.394 60.8688V60.8873Z" fill="#E6E6E6"/>
<path d="M682.76 69.235H433.187V326.851H682.76V69.235Z" fill="#F0F0F0"/>
<path d="M687.598 326.842H443.55V336.467H687.598V326.842Z" fill="#E6E6E6"/>
<path d="M665.505 326.842H415.932V336.467H665.505V326.842Z" fill="#F0F0F0"/>
<path d="M668.252 83.7466H447.676V312.358H668.252V83.7466Z" fill="#FAFAFA"/>
<path d="M618.19 312.349L533.109 83.728H492.927L578.027 312.349H618.19Z" fill="white"/>
<path d="M569.386 312.349L484.305 83.728H468.65L553.731 312.349H569.386Z" fill="white"/>
<path d="M449.535 83.7466H447.694V312.358H449.535V83.7466Z" fill="#E6E6E6"/>
<g opacity="0.6">
<path d="M505.01 289.582H421.955L426.674 56.2323H509.738L505.01 289.582Z" fill="#F0F0F0"/>
<path d="M537.365 289.582H472.666L477.384 56.2322H542.083L537.365 289.582Z" fill="#E6E6E6"/>
<path d="M588.075 289.582H505.01L509.738 56.2322H592.793L588.075 289.582Z" fill="#F0F0F0"/>
<path d="M620.429 289.582H555.72L560.439 56.2321L625.147 56.2136L620.429 289.582Z" fill="#E6E6E6"/>
<path d="M671.13 289.582H588.075L592.793 56.2321L675.858 56.2136L671.13 289.582Z" fill="#F0F0F0"/>
</g>
<path d="M350.419 43.1088H128.381V290.998H350.419V43.1088Z" fill="#EBEBEB"/>
<path d="M352.427 43.1088H350.419V290.998H352.427V43.1088Z" fill="#E0E0E0"/>
<path d="M333.997 59.536H144.849V274.525H333.997V59.536Z" fill="#F5F5F5"/>
<path d="M299.663 207.085H246.39V281.66H299.663V207.085Z" fill="white"/>
<path d="M182.31 288.185H235.574L239.404 213.582H186.141L182.31 288.185Z" fill="white"/>
<path d="M135.912 195.822H189.175L193.006 121.219H139.742L135.912 195.822Z" fill="white"/>
<path d="M301.414 70.4814L298.901 127.834L339.867 129.63L342.38 72.2777L301.414 70.4814Z" fill="white"/>
<path d="M138.43 47.4472L135.917 104.8L176.882 106.596L179.396 49.2435L138.43 47.4472Z" fill="white"/>
<path d="M300.536 138.085L299.775 195.487L340.776 196.031L341.538 138.629L300.536 138.085Z" fill="white"/>
<path d="M288.071 68.8029L201.231 71.3203L204.754 192.923L291.594 190.406L288.071 68.8029Z" fill="white"/>
<path d="M181.57 320.539H90.2717V548.244H181.57V320.539Z" fill="#F0F0F0"/>
<path d="M176.556 326.25H95.2678V393.273H176.556V326.25Z" fill="#E6E6E6"/>
<path d="M176.556 399.298H95.2678V466.321H176.556V399.298Z" fill="#E6E6E6"/>
<path d="M176.556 472.355H95.2678V539.378H176.556V472.355Z" fill="#E6E6E6"/>
<path d="M127.243 326.25H95.2678V393.273H127.243V326.25Z" fill="#E0E0E0"/>
<path d="M127.243 399.298H95.2678V466.321H127.243V399.298Z" fill="#E0E0E0"/>
<path d="M127.233 472.355H95.2585V539.378H127.233V472.355Z" fill="#E0E0E0"/>
<path d="M206.356 320.539H181.57V548.244H206.356V320.539Z" fill="#F5F5F5"/>
<path d="M279.188 320.539H187.889V548.244H279.188V320.539Z" fill="#F0F0F0"/>
<path d="M274.173 326.25H192.885V393.273H274.173V326.25Z" fill="#E6E6E6"/>
<path d="M274.173 399.298H192.885V466.321H274.173V399.298Z" fill="#E6E6E6"/>
<path d="M274.192 472.336H192.904V539.36H274.192V472.336Z" fill="#E6E6E6"/>
<path d="M224.86 326.25H192.885V393.273H224.86V326.25Z" fill="#E0E0E0"/>
<path d="M224.86 399.298H192.885V466.321H224.86V399.298Z" fill="#E0E0E0"/>
<path d="M224.851 472.355H192.876V539.378H224.851V472.355Z" fill="#E0E0E0"/>
<path d="M303.974 320.539H279.188V548.244H303.974V320.539Z" fill="#F5F5F5"/>
<path d="M161.91 453.151C161.91 460.426 152.5 466.312 140.908 466.312C129.315 466.312 119.97 460.388 119.97 453.151H161.91Z" fill="#F0F0F0"/>
<path d="M161.91 443.304C161.91 450.578 152.501 456.465 140.908 456.465C129.315 456.465 119.924 450.578 119.924 443.304H161.91Z" fill="#F0F0F0"/>
<path d="M262.211 380.122C262.211 387.387 250.451 393.282 235.898 393.282C221.344 393.282 209.585 387.387 209.585 380.122H262.211Z" fill="#FAFAFA"/>
<path d="M262.211 370.265C262.211 377.54 250.451 383.426 235.898 383.426C221.344 383.426 209.585 377.521 209.585 370.265H262.211Z" fill="#FAFAFA"/>
<path d="M264.422 481.989H198.418V539.36H264.422V481.989Z" fill="#F0F0F0"/>
<path d="M274.173 482.008H264.403V539.378H274.173V482.008Z" fill="#E0E0E0"/>
<path d="M166.804 335.912H100.8V393.282H166.804V335.912Z" fill="#F0F0F0"/>
<path d="M176.556 335.912H166.786V393.282H176.556V335.912Z" fill="#E0E0E0"/>
<path d="M440.524 427.719H427.71V548.253H440.524V427.719Z" fill="#E6E6E6"/>
<path d="M431.818 427.719H424.268V548.253H431.818V427.719Z" fill="#F0F0F0"/>
<path d="M603.812 427.719H421.955V441.064H603.812V427.719Z" fill="#F0F0F0"/>
<path d="M697.942 427.719H685.128V548.253H697.942V427.719Z" fill="#E6E6E6"/>
<path d="M690.282 427.719H682.732V548.253H690.282V427.719Z" fill="#F0F0F0"/>
<path d="M700.227 427.719H609.29V441.064H700.227V427.719Z" fill="#E6E6E6"/>
<path d="M617.718 427.719H604.904V548.253H617.718V427.719Z" fill="#E6E6E6"/>
<path d="M609.031 427.719H601.481V548.253H609.031V427.719Z" fill="#F0F0F0"/>
<path d="M251.228 472.457H230.541V499.731H251.228V472.457Z" fill="#3F4347"/>
<path d="M239.793 493.891H240.552C245.071 493.891 249.406 495.687 252.602 498.884C255.798 502.081 257.594 506.417 257.594 510.938H222.751C222.751 506.417 224.546 502.081 227.742 498.884C230.938 495.687 235.273 493.891 239.793 493.891Z" fill="#2E3135"/>
<path d="M146.311 536.778V554.315H154.638V542.099L234.482 515.316L282.186 542.33V553.779H289.245V531.632L326.484 542.59L326.734 553.788H333.997V536.981L252.367 504.386C248.075 502.674 243.497 501.795 238.877 501.794C234.152 501.792 229.473 502.713 225.101 504.506L146.311 536.778Z" fill="#3F4347"/>
<path d="M205.228 550.623V536.741L219.189 520.378L234.436 515.316L242.226 519.453L212.287 542.83V551.835L205.228 550.623Z" fill="#2E3135"/>
<path d="M208.632 577.406C216.297 577.406 222.51 571.191 222.51 563.524C222.51 555.857 216.297 549.642 208.632 549.642C200.968 549.642 194.754 555.857 194.754 563.524C194.754 571.191 200.968 577.406 208.632 577.406Z" fill="#2E3135"/>
<path d="M152.399 577.406C160.063 577.406 166.277 571.191 166.277 563.524C166.277 555.857 160.063 549.642 152.399 549.642C144.734 549.642 138.521 555.857 138.521 563.524C138.521 571.191 144.734 577.406 152.399 577.406Z" fill="#2E3135"/>
<path d="M287.256 577.406C294.92 577.406 301.134 571.191 301.134 563.524C301.134 555.857 294.92 549.642 287.256 549.642C279.591 549.642 273.378 555.857 273.378 563.524C273.378 571.191 279.591 577.406 287.256 577.406Z" fill="#2E3135"/>
<path d="M328.88 577.406C336.545 577.406 342.758 571.191 342.758 563.524C342.758 555.857 336.545 549.642 328.88 549.642C321.216 549.642 315.002 555.857 315.002 563.524C315.002 571.191 321.216 577.406 328.88 577.406Z" fill="#2E3135"/>
<path d="M151.668 551.104C153.242 551.71 154.66 552.663 155.816 553.892C156.972 555.121 157.838 556.594 158.348 558.202C158.909 559.9 159.086 561.701 158.864 563.476C158.642 565.25 158.028 566.953 157.065 568.46C156.103 569.967 154.817 571.24 153.3 572.187C151.784 573.134 150.076 573.732 148.3 573.935H148.022" stroke="#3F4347" stroke-linecap="round" stroke-linejoin="round"/>
<path d="M209.854 551.835C211.426 552.443 212.842 553.396 213.997 554.625C215.151 555.853 216.015 557.326 216.524 558.933C217.086 560.631 217.262 562.433 217.04 564.207C216.818 565.981 216.204 567.684 215.242 569.191C214.279 570.698 212.993 571.971 211.477 572.918C209.961 573.866 208.253 574.463 206.477 574.667H206.199" stroke="#3F4347" stroke-linecap="round" stroke-linejoin="round"/>
<path d="M288.718 551.585C290.291 552.19 291.709 553.141 292.865 554.369C294.021 555.596 294.887 557.067 295.397 558.674C295.959 560.372 296.135 562.173 295.914 563.948C295.692 565.722 295.077 567.425 294.115 568.932C293.153 570.439 291.866 571.712 290.35 572.659C288.834 573.606 287.126 574.204 285.35 574.407H285.063" stroke="#3F4347" stroke-linecap="round" stroke-linejoin="round"/>
<path d="M329.611 551.585C331.186 552.189 332.604 553.14 333.76 554.367C334.917 555.595 335.782 557.067 336.291 558.674C336.853 560.372 337.029 562.173 336.807 563.948C336.586 565.722 335.971 567.425 335.009 568.932C334.046 570.439 332.76 571.712 331.244 572.659C329.728 573.606 328.02 574.204 326.244 574.407H325.966" stroke="#323232" stroke-miterlimit="10"/>
<path d="M325.966 476.112L315.326 501.554C314.151 504.373 313.505 507.385 313.42 510.438L312.088 560.609C307.462 555.185 303.104 547.411 300.541 542.46C299.105 539.645 298.216 536.583 297.923 533.437C296.175 515.362 288.033 497.241 287.524 496.131L287.746 495.973C288.714 495.558 289.567 494.913 290.229 494.094C290.892 493.274 291.345 492.306 291.549 491.272L294.777 474.909L325.966 476.112Z" fill="#F9B499"/>
<path d="M310.386 576.915C300.195 565.318 291.373 552.586 284.091 538.971C287.505 524.848 282.879 518.277 282.879 518.277L276.301 504.395L287.524 496.167C288.033 497.278 296.175 515.399 297.923 533.474C298.216 536.62 299.105 539.682 300.541 542.497C303.104 547.448 307.443 555.222 312.088 560.646C316.464 575.944 310.386 576.915 310.386 576.915Z" fill="#21AFFF"/>
<path d="M310.386 576.915C298.46 582.764 268.308 519.453 268.308 519.453C262.951 508.735 276.338 504.358 276.338 504.358L282.917 518.24C282.917 518.24 286.987 524.034 284.665 536.435C284.339 538.114 284.604 539.853 285.415 541.359C292.477 554.049 300.846 565.966 310.386 576.915Z" fill="#E6E6E6"/>
<path d="M452.542 574.241L408.549 574.019C406.163 574 403.872 573.077 402.138 571.437L397.206 566.744C395.684 565.295 393.705 564.418 391.609 564.264L371.254 562.793L370.042 546.726L382.699 547.217C394.144 548.67 400.222 554.278 400.222 554.278C406.253 558.749 412.782 562.504 419.679 565.467H435.019C436.362 565.362 437.71 565.362 439.053 565.467C449.989 566.189 452.542 574.241 452.542 574.241Z" fill="#21AFFF"/>
<path d="M452.542 574.241C452.542 578.137 447.676 577.647 447.676 577.647L403.618 579.35C385.882 579.488 377.879 577.841 374.308 576.471C373.477 576.155 372.759 575.598 372.248 574.87C371.737 574.143 371.455 573.279 371.439 572.39L371.236 562.783L391.59 564.255C393.687 564.409 395.665 565.286 397.188 566.735L402.119 571.427C403.853 573.068 406.144 573.991 408.531 574.01L452.542 574.241Z" fill="#E6E6E6"/>
<path d="M439.053 565.467C437.71 565.362 436.362 565.362 435.019 565.467H419.679C412.775 562.503 406.24 558.745 400.204 554.269C400.204 554.269 394.125 548.661 382.681 547.208L370.024 546.717V541.599L346.413 474.881L381.459 475.372L396.309 537.222L439.053 565.467Z" fill="#F9B499"/>
<path d="M134.348 292.118C134.348 292.118 102.984 208.233 105.417 189.51C105.417 189.51 129.759 171.001 205.468 181.968L233.465 291.785L134.348 292.118Z" fill="#3F4347"/>
<path d="M113.207 193.166C113.207 193.166 124.652 199.737 136.818 232.129L157.959 291.84" stroke="#2E3135" stroke-linecap="round" stroke-linejoin="round"/>
<path d="M111.995 470.023H107.61V574.972H111.995V470.023Z" fill="#E1E1E2"/>
<path d="M127.085 470.023H122.7V574.972H127.085V470.023Z" fill="#E1E1E2"/>
<path d="M701.328 470.023H696.943V574.972H701.328V470.023Z" fill="#E1E1E2"/>
<path d="M716.418 470.023H712.033V574.972H716.418V470.023Z" fill="#E1E1E2"/>
<path d="M716.418 301.04H107.61V478.065H716.418V301.04Z" fill="#9EA0A3"/>
<path d="M335.459 272.544L341.056 271.572L337.697 286.898L333.553 287.139C333.553 287.139 332.433 281.179 335.459 272.544Z" fill="#F9B499"/>
<path d="M352.39 217.636L337.697 286.898L308.285 287.879V292.164H431.605L443.142 219.977C443.221 219.484 443.192 218.979 443.059 218.498C442.925 218.017 442.69 217.57 442.369 217.187C442.048 216.805 441.649 216.495 441.198 216.281C440.747 216.066 440.255 215.95 439.756 215.942L355.841 214.822C355.027 214.812 354.235 215.088 353.605 215.602C352.974 216.116 352.544 216.836 352.39 217.636Z" fill="black"/>
<path d="M252.82 192.583C252.82 192.583 265.347 197.062 274.358 218.737L290.42 258.671C290.42 258.671 325.966 266.464 326.697 270.11C326.697 270.11 337.161 268.407 335.459 272.544C334.206 277.316 333.55 282.224 333.506 287.157L318.416 287.648L271.435 284.723C271.435 284.723 261.942 278.143 265.347 252.822L264.616 252.341C268.41 243.885 268.931 234.321 266.078 225.502C266.078 225.502 260.018 214.526 259.509 205.049C258.539 200.331 256.214 195.999 252.82 192.583Z" fill="#21AFFF"/>
<path opacity="0.4" d="M252.82 192.583C252.82 192.583 265.347 197.062 274.358 218.737L290.42 258.671C290.42 258.671 325.966 266.464 326.697 270.11C326.697 270.11 337.161 268.407 335.459 272.544C334.206 277.316 333.55 282.224 333.506 287.157L318.416 287.648L271.435 284.723C271.435 284.723 261.942 278.143 265.347 252.822L264.616 252.341C268.41 243.885 268.931 234.321 266.078 225.502C266.078 225.502 260.018 214.526 259.509 205.049C258.539 200.331 256.214 195.999 252.82 192.583Z" fill="white"/>
<g opacity="0.4">
<path d="M290.42 259.134C290.342 259.13 290.266 259.107 290.198 259.069C290.151 259.069 284.952 255.756 282 256.441C281.947 256.454 281.891 256.457 281.837 256.448C281.782 256.44 281.73 256.42 281.683 256.391C281.636 256.361 281.596 256.323 281.565 256.277C281.533 256.232 281.512 256.18 281.501 256.126C281.476 256.019 281.494 255.907 281.551 255.813C281.608 255.72 281.7 255.653 281.806 255.626C285.1 254.867 290.42 258.218 290.642 258.403C290.689 258.431 290.73 258.469 290.762 258.513C290.794 258.558 290.817 258.608 290.829 258.662C290.841 258.716 290.842 258.771 290.832 258.825C290.822 258.879 290.802 258.931 290.771 258.977C290.73 259.029 290.676 259.071 290.615 259.098C290.554 259.126 290.487 259.138 290.42 259.134Z" fill="white"/>
</g>
<g opacity="0.4">
<path d="M322.552 285.871C322.442 285.857 322.341 285.801 322.27 285.715C322.2 285.629 322.165 285.519 322.173 285.408C323.625 271.193 326.29 269.832 326.586 269.721C326.637 269.701 326.693 269.691 326.748 269.693C326.803 269.694 326.858 269.707 326.908 269.731C326.958 269.754 327.003 269.787 327.04 269.829C327.077 269.87 327.105 269.919 327.123 269.971C327.157 270.072 327.152 270.182 327.11 270.28C327.067 270.378 326.989 270.456 326.891 270.499C326.808 270.545 324.365 272.1 323.005 285.492C322.994 285.601 322.94 285.702 322.855 285.773C322.771 285.844 322.662 285.879 322.552 285.871Z" fill="white"/>
</g>
<path d="M729.436 292.266H96.415V307.361H729.436V292.266Z" fill="#E1E1E2"/>
<path d="M625.86 264.27H676.986C677.405 264.272 677.819 264.364 678.198 264.54C678.578 264.717 678.915 264.974 679.186 265.293C679.456 265.612 679.655 265.987 679.767 266.39C679.879 266.793 679.903 267.216 679.836 267.63L664.293 361.668L659.917 386.748C659.917 386.748 657.474 411.098 629.237 421.565L673.785 605.892L665.995 606.142L621.965 424.98C621.965 424.98 608.818 426.442 599.085 426.442C599.085 426.442 593.534 424.73 591.295 437.15L549.91 605.652H543.582L584.235 432.772C584.235 432.772 585.457 418.89 599.038 418.89H514.133L558.672 605.892H552.344L505.362 423.999C505.362 423.999 483.213 421.565 479.808 432.041L438.914 604.68H431.365L472.018 433.013C472.018 433.013 472.508 421.815 485.165 419.131H470.316V403.305L629.996 402.815C629.996 402.815 637.545 400.63 637.545 408.904C637.545 408.904 654.338 404.036 656.53 361.427H639.007L625.323 335.356L625.86 264.27Z" fill="#3F4347"/>
<path d="M673.082 308.832L683.305 436.419L675.515 437.15L667.484 342.186L673.082 308.832Z" fill="black"/>
<path opacity="0.2" d="M673.082 308.832L683.305 436.419L675.515 437.15L667.484 342.186L673.082 308.832Z" fill="black"/>
<path d="M413.111 269.379C413.111 269.379 410.538 270.24 411.214 276.385C411.214 276.385 413.786 275.626 415.396 274.941C414.9 272.989 414.131 271.116 413.111 269.379Z" fill="#21AFFF"/>
<path opacity="0.2" d="M413.111 269.379C413.111 269.379 410.538 270.24 411.214 276.385C411.214 276.385 413.786 275.626 415.396 274.941C414.9 272.989 414.131 271.116 413.111 269.379Z" fill="black"/>
<path d="M566.544 167.037C563.25 156.698 552.2 150.989 541.865 154.284C531.529 157.58 525.821 168.633 529.116 178.971L534.862 197.003C538.156 207.342 549.206 213.052 559.541 209.756C569.877 206.461 575.585 195.408 572.29 185.069L566.544 167.037Z" fill="#F9B499"/>
<path d="M530.685 163.458C530.685 163.458 534.089 169.011 542.37 168.085C542.37 168.085 548.698 173.203 559.653 172.222C559.653 172.222 562.567 177.581 565.731 177.1L572.698 186.947L581.589 205.577C581.589 205.577 603.202 195.082 597.317 180.32C596.558 178.465 595.315 176.848 593.718 175.637C590.935 173.567 588.758 170.786 587.418 167.586C587.418 167.586 584.254 151.76 569.164 149.576C569.164 149.576 562.835 135.453 552.612 144.699C552.612 144.699 544.572 141.783 536.782 150.057C536.782 150.057 534.598 152.982 528.51 155.906C528.51 155.906 518.87 158.775 522.746 173.759C523.242 175.585 523.908 177.36 524.736 179.062C525.661 181.284 526.039 183.696 525.837 186.095C525.837 186.095 522.423 220.671 545.062 219.209C550.296 218.706 555.447 217.562 560.402 215.803L558.552 210.037C558.552 210.037 552.926 212.027 545.386 208.862C545.386 208.862 537.059 205.16 534.83 196.988L529.084 178.96C529.084 178.96 526.299 170.769 530.685 163.458Z" fill="black"/>
<path d="M535.755 222.022C535.703 222.032 535.65 222.032 535.598 222.022C529.861 219.764 525.624 214.618 523.348 207.122C522.299 203.645 521.714 200.045 521.609 196.414C522.673 185.845 519.758 178.988 519.758 178.923C517.501 171.334 518.722 166.503 520.156 163.782C520.991 162.062 522.292 160.613 523.912 159.599C524.004 159.546 524.112 159.53 524.216 159.554C524.319 159.578 524.409 159.64 524.467 159.728C524.495 159.769 524.513 159.816 524.521 159.864C524.528 159.913 524.526 159.963 524.513 160.01C524.499 160.057 524.476 160.101 524.444 160.139C524.413 160.177 524.373 160.207 524.329 160.228C522.834 161.193 521.634 162.551 520.859 164.152C519.508 166.753 518.352 171.389 520.535 178.71C520.711 179.136 523.477 186.049 522.441 196.507C522.441 197.155 522.765 216.247 535.931 221.421C535.978 221.436 536.022 221.461 536.059 221.494C536.096 221.527 536.125 221.568 536.145 221.613C536.165 221.659 536.176 221.708 536.175 221.758C536.175 221.808 536.164 221.857 536.143 221.902C536.095 221.954 536.033 221.993 535.965 222.014C535.897 222.035 535.825 222.038 535.755 222.022Z" fill="black"/>
<path d="M572.79 187.076L582.968 208.51C572.79 221.828 561.79 221.171 561.79 221.171L558.533 210.065C558.533 210.065 568.609 208.279 572.263 196.84C573.324 193.694 573.507 190.318 572.79 187.076Z" fill="#F9B499"/>
<path d="M558.579 210.084L560.818 218.126C560.818 218.126 575.677 211.916 571.8 198.302C570.644 201.147 568.851 203.688 566.559 205.73C564.267 207.773 561.537 209.262 558.579 210.084Z" fill="#F7A48B"/>
<path d="M560.578 217.201L556.044 219.709C556.044 219.709 561.161 260.374 574.548 292.757C574.548 292.757 578.925 225.308 589.638 208.751C587.402 207.918 585.03 207.507 582.644 207.539L583.06 208.51C583.06 208.51 575.279 220.44 561.882 221.171L560.578 217.201Z" fill="#E6E6E6"/>
<path d="M557.516 228.51L560.606 230.361C560.768 230.46 560.948 230.526 561.135 230.554C561.323 230.583 561.514 230.575 561.698 230.529C561.882 230.483 562.056 230.402 562.208 230.289C562.36 230.176 562.489 230.033 562.586 229.87L567.684 221.374L574.308 226.557C574.643 226.816 575.055 226.956 575.478 226.956C575.902 226.956 576.313 226.816 576.649 226.557L584.976 220.218" stroke="#CCCCCC" stroke-linecap="round" stroke-linejoin="round"/>
<path d="M640.95 353.635C640.95 353.635 650.202 370.432 640.025 383.824C640.025 383.824 644.891 359.715 624.204 353.144C615.113 349.492 605.258 348.153 595.523 349.248L569.238 350.22C569.238 350.22 567.286 350.951 567.535 348.757C567.535 348.757 574.835 348.757 571.912 331.719C571.912 331.719 570.7 316.625 554.869 318.328L553.944 311.266L541.87 293.543C539.895 290.624 538.627 287.284 538.17 283.789L537.652 279.856L501.384 292.516L417.644 292.266V292.146C417.644 291.008 417.357 282.114 415.414 274.941C414.925 273.01 414.204 271.146 413.268 269.388L473.702 263.299L556.044 219.709C556.044 219.709 560.911 258.912 574.548 292.757C574.548 292.757 578.684 227.261 589.638 208.751C589.638 208.751 613.25 215.322 617.635 219.709C617.635 219.709 631.263 232.61 638.082 260.374L648.056 302.493C648.056 302.493 652.681 324.408 633.696 332.45C633.65 332.45 633.16 340.484 640.95 353.635Z" fill="#21AFFF"/>
<g opacity="0.2">
<path d="M564.029 317.439C564.003 317.438 563.978 317.428 563.958 317.411C563.938 317.395 563.924 317.372 563.918 317.347C563.912 317.332 563.909 317.317 563.91 317.301C563.911 317.285 563.915 317.27 563.922 317.256C563.929 317.242 563.938 317.23 563.951 317.22C563.963 317.21 563.977 317.203 563.992 317.199L623.149 298.689C623.18 298.68 623.212 298.684 623.24 298.7C623.268 298.716 623.288 298.742 623.297 298.772C623.303 298.787 623.305 298.802 623.305 298.818C623.304 298.834 623.3 298.849 623.293 298.863C623.286 298.877 623.276 298.889 623.264 298.899C623.252 298.909 623.238 298.916 623.223 298.92L564.066 317.43L564.029 317.439Z" fill="black"/>
</g>
<g opacity="0.2">
<path d="M609.78 303.02C609.748 303.02 609.718 303.007 609.695 302.985C609.672 302.962 609.66 302.932 609.66 302.9L608.457 256.237C608.457 256.204 608.469 256.173 608.492 256.149C608.514 256.125 608.545 256.11 608.577 256.108C608.609 256.108 608.64 256.12 608.662 256.143C608.685 256.165 608.698 256.196 608.698 256.228L609.9 302.891C609.902 302.907 609.899 302.924 609.894 302.939C609.888 302.955 609.88 302.97 609.869 302.982C609.857 302.994 609.844 303.004 609.828 303.01C609.813 303.017 609.797 303.02 609.78 303.02Z" fill="black"/>
</g>
<g opacity="0.2">
<path d="M603.47 240.041C603.437 240.039 603.407 240.024 603.384 240C603.362 239.976 603.35 239.945 603.35 239.912C603.35 239.754 604.589 224.817 611.991 216.414C612.001 216.402 612.014 216.392 612.028 216.384C612.042 216.377 612.058 216.373 612.074 216.371C612.09 216.37 612.106 216.372 612.121 216.377C612.136 216.382 612.15 216.39 612.162 216.4C612.174 216.41 612.184 216.423 612.192 216.437C612.199 216.451 612.203 216.467 612.205 216.483C612.206 216.499 612.204 216.515 612.199 216.53C612.194 216.545 612.186 216.559 612.176 216.571C604.83 224.901 603.609 239.782 603.599 239.93C603.595 239.961 603.579 239.99 603.555 240.01C603.532 240.031 603.501 240.042 603.47 240.041Z" fill="black"/>
</g>
<g opacity="0.2">
<path d="M591.443 233.489L598.002 228.445C598.715 227.898 599.24 227.143 599.504 226.283C599.768 225.424 599.757 224.504 599.473 223.651L595.079 210.398C595.073 210.383 595.065 210.369 595.054 210.357C595.044 210.344 595.03 210.335 595.016 210.328C595.001 210.321 594.985 210.317 594.969 210.316C594.953 210.316 594.937 210.318 594.921 210.324C594.894 210.336 594.871 210.358 594.858 210.385C594.844 210.412 594.84 210.443 594.847 210.472L599.242 223.725C599.508 224.53 599.518 225.398 599.269 226.209C599.02 227.02 598.526 227.733 597.854 228.251L591.276 233.304C591.256 233.286 591.229 233.276 591.202 233.276C591.175 233.276 591.148 233.286 591.128 233.304C591.112 233.324 591.104 233.348 591.104 233.373C591.104 233.398 591.112 233.423 591.128 233.443L586.576 236.922C586.564 236.933 586.555 236.946 586.548 236.96C586.542 236.974 586.538 236.99 586.538 237.006C586.538 237.022 586.542 237.037 586.548 237.051C586.555 237.066 586.564 237.079 586.576 237.089C586.591 237.096 586.606 237.099 586.622 237.099C586.638 237.099 586.654 237.096 586.669 237.089C586.692 237.098 586.719 237.098 586.743 237.089L591.248 233.637L598.021 241.966C598.021 242.013 601.083 245.909 596.781 254.747C596.651 255.016 583.356 282.308 580.951 305.926C580.95 305.942 580.951 305.958 580.956 305.973C580.961 305.988 580.969 306.002 580.979 306.014C580.99 306.026 581.002 306.036 581.016 306.043C581.031 306.05 581.046 306.055 581.062 306.056C581.092 306.056 581.121 306.044 581.144 306.024C581.166 306.003 581.18 305.975 581.182 305.945C583.588 282.382 596.911 255.127 596.994 254.849C601.361 245.881 598.326 241.976 598.197 241.818L591.443 233.489Z" fill="black"/>
<path d="M548.004 261.735C547.584 261.164 547.317 260.495 547.23 259.792C547.143 259.088 547.237 258.374 547.505 257.718L552.344 244.326L556.396 246.362H556.451C556.472 246.361 556.493 246.354 556.51 246.343C556.528 246.331 556.543 246.316 556.553 246.298C556.561 246.284 556.567 246.268 556.569 246.252C556.571 246.236 556.57 246.22 556.565 246.205C556.561 246.189 556.554 246.174 556.544 246.162C556.534 246.149 556.521 246.139 556.507 246.131L552.427 244.095C552.436 244.066 552.433 244.034 552.419 244.006C552.406 243.979 552.382 243.957 552.353 243.947C552.341 243.941 552.328 243.937 552.314 243.936C552.3 243.935 552.287 243.936 552.274 243.941C552.261 243.945 552.249 243.952 552.239 243.961C552.228 243.97 552.22 243.981 552.214 243.993L547.431 241.605C546.976 241.379 546.606 241.014 546.373 240.563C546.14 240.112 546.057 239.599 546.136 239.097L548.523 223.364C548.525 223.331 548.515 223.299 548.495 223.273C548.474 223.247 548.444 223.23 548.412 223.225C548.381 223.223 548.351 223.232 548.327 223.251C548.303 223.27 548.287 223.297 548.282 223.327L545.895 239.06C545.803 239.615 545.892 240.184 546.149 240.684C546.405 241.184 546.816 241.588 547.32 241.837L552.122 244.243L547.236 257.653C546.958 258.348 546.86 259.102 546.952 259.845C547.045 260.588 547.324 261.296 547.764 261.901L571.773 294.774C571.781 294.791 571.795 294.805 571.811 294.815C571.827 294.825 571.846 294.83 571.865 294.83C571.889 294.839 571.916 294.839 571.939 294.83C571.961 294.807 571.973 294.777 571.973 294.746C571.973 294.715 571.961 294.686 571.939 294.663L548.004 261.735Z" fill="black"/>
</g>
<g opacity="0.2">
<path d="M553.805 311.386C553.785 311.386 553.766 311.38 553.748 311.371C553.73 311.361 553.715 311.347 553.704 311.331L541.676 293.608C537.661 287.852 537.411 279.939 537.411 279.855L541.556 257.7C541.558 257.684 541.563 257.668 541.572 257.655C541.58 257.641 541.591 257.629 541.604 257.619C541.617 257.61 541.631 257.603 541.647 257.599C541.663 257.596 541.679 257.595 541.695 257.598C541.726 257.606 541.754 257.626 541.773 257.653C541.791 257.68 541.8 257.713 541.796 257.746L537.661 279.892C537.661 280.244 537.975 287.907 541.87 293.497L553.944 311.22C553.966 311.244 553.979 311.275 553.979 311.308C553.979 311.34 553.966 311.372 553.944 311.396L553.805 311.386Z" fill="black"/>
</g>
<g opacity="0.2">
<path d="M537.013 251.24C536.986 251.239 536.96 251.229 536.938 251.213C536.916 251.196 536.901 251.173 536.893 251.147C535.218 244.428 528.168 234.405 528.094 234.303C528.084 234.291 528.076 234.276 528.072 234.26C528.067 234.245 528.065 234.228 528.067 234.212C528.069 234.195 528.074 234.18 528.082 234.165C528.089 234.151 528.1 234.138 528.113 234.128C528.126 234.117 528.14 234.11 528.156 234.105C528.172 234.1 528.188 234.099 528.204 234.1C528.221 234.102 528.237 234.107 528.251 234.115C528.265 234.123 528.278 234.133 528.289 234.146C528.353 234.239 535.431 244.326 537.124 251.073C537.13 251.105 537.124 251.138 537.107 251.165C537.09 251.192 537.063 251.212 537.032 251.221L537.013 251.24Z" fill="black"/>
</g>
<path opacity="0.2" d="M572.309 347.304C572.309 347.304 624.12 336.587 633.65 332.497C633.65 332.497 633.132 338.716 638.276 348.757C638.276 348.757 625.638 343.695 601.536 346.129L572.309 347.304Z" fill="black"/>
<g opacity="0.2">
<path d="M476.644 267.315C476.627 267.315 476.611 267.312 476.596 267.305C476.58 267.299 476.567 267.289 476.555 267.277C476.544 267.265 476.536 267.25 476.53 267.234C476.525 267.219 476.522 267.202 476.524 267.186C476.542 266.733 476.458 266.282 476.277 265.867C476.096 265.451 475.823 265.083 475.478 264.789C473.378 263.012 468.835 263.752 468.789 263.761C468.773 263.764 468.757 263.763 468.741 263.76C468.726 263.756 468.711 263.749 468.698 263.74C468.685 263.73 468.674 263.718 468.666 263.704C468.658 263.691 468.653 263.675 468.65 263.66C468.646 263.644 468.645 263.628 468.648 263.613C468.651 263.597 468.656 263.582 468.665 263.569C468.674 263.556 468.685 263.545 468.699 263.537C468.712 263.528 468.727 263.523 468.743 263.521C468.937 263.521 473.452 262.753 475.636 264.604C476.006 264.921 476.301 265.318 476.496 265.765C476.692 266.212 476.783 266.698 476.764 267.186C476.766 267.202 476.763 267.219 476.758 267.234C476.752 267.25 476.744 267.265 476.732 267.277C476.721 267.289 476.707 267.299 476.692 267.305C476.677 267.312 476.661 267.315 476.644 267.315Z" fill="black"/>
</g>
<path d="M639.978 383.824C639.248 399.649 629.996 402.814 629.996 402.814C592.988 403.305 565.981 406.229 565.981 406.229L563.058 491.697L533.118 496.056L526.438 521.822C526.33 522.246 526.129 522.641 525.85 522.979C525.572 523.317 525.222 523.589 524.826 523.776C524.431 523.964 523.998 524.062 523.561 524.063C523.123 524.064 522.69 523.969 522.293 523.784L520.748 523.071L495.999 511.54C494.912 511.019 493.794 510.568 492.65 510.188C491.739 509.885 490.813 509.631 489.874 509.43C484.49 508.403 479.384 506.246 474.895 503.099C474.379 502.714 473.981 502.191 473.748 501.591C473.514 500.99 473.453 500.336 473.572 499.703L489.763 412.8C497.063 367.507 511.422 370.228 511.422 370.228C507.527 323.233 533.303 322.437 533.303 322.437L561.327 329.84L567.415 348.831C567.165 351.275 569.118 350.294 569.118 350.294L595.402 349.322C613.666 347.619 624.084 353.218 624.084 353.218C645.335 360.446 639.978 383.824 639.978 383.824Z" fill="black"/>
<path d="M517.519 545.338C518.318 548.174 518.815 551.087 518.999 554.028L517.528 555.287C515.798 547.124 509.868 546.375 509.868 546.375C503.308 544.737 500.199 547.92 498.839 550.493C498.453 551.337 498.144 552.213 497.914 553.112C497.888 553.262 497.869 553.414 497.859 553.566C493.964 562.82 491.53 552.834 491.53 552.834V552.511L492.705 510.188C493.849 510.567 494.968 511.019 496.054 511.54L520.804 523.071C519.036 527.097 517.741 534.492 517.103 538.925C516.778 541.067 516.92 543.255 517.519 545.338Z" fill="#F9B499"/>
<path d="M519.037 554.029L517.334 555.491C515.623 547.217 509.294 546.967 509.294 546.967C502.984 545.986 500.153 548.318 498.876 550.475C500.237 547.902 503.345 544.718 509.905 546.356C509.905 546.356 515.835 547.106 517.565 555.269L519.037 554.029Z" fill="#F9B499"/>
<path d="M524.338 587.401C524.088 597.97 510.96 598.211 510.96 598.211C498.395 599.618 490.651 597.137 487.432 595.721C486.914 595.5 486.476 595.127 486.175 594.651C485.874 594.175 485.725 593.619 485.748 593.056C486.158 587.093 487.137 581.183 488.671 575.407C490.047 567.838 490.953 560.192 491.382 552.511C491.382 552.511 491.475 552.409 491.503 552.511C491.495 552.72 491.52 552.929 491.577 553.131C492.03 554.723 494.232 561.46 497.563 554.14C497.708 553.808 497.813 553.46 497.877 553.103C497.877 552.955 497.96 552.807 497.997 552.668C498.19 551.909 498.473 551.176 498.839 550.484C500.199 547.911 503.308 544.727 509.868 546.366C509.868 546.366 515.798 547.115 517.528 555.278L518.999 554.038C521.997 563.616 524.338 587.401 524.338 587.401Z" fill="#21AFFF"/>
<path d="M524.588 596.304C523.818 598.117 522.655 599.736 521.183 601.044C519.711 602.351 517.966 603.315 516.076 603.865C502.975 607.928 489.162 603.005 489.162 603.005C482.685 599.645 485.739 593.056 485.739 593.056C485.716 593.618 485.865 594.175 486.166 594.651C486.466 595.127 486.905 595.5 487.422 595.721C490.642 597.137 498.386 599.617 510.95 598.211C510.95 598.211 524.079 597.97 524.329 587.401C524.993 588.784 525.359 590.291 525.404 591.825C525.449 593.359 525.171 594.885 524.588 596.304Z" fill="#E6E6E6"/>
<path d="M697.674 482.933C697.674 482.933 693.529 492.188 646.788 500.221L619.282 505.57H619.143C618.162 505.422 612.102 503.636 610.761 481.721C610.761 481.721 610.761 455.881 612.176 445.71C612.248 445.204 612.473 444.733 612.823 444.36C613.172 443.987 613.628 443.732 614.128 443.628L674.266 431.069C674.266 431.069 682.057 428.154 686.923 443.739L697.674 482.933Z" fill="#21AFFF"/>
<path opacity="0.2" d="M613.694 449.57C613.694 449.57 616.155 474.271 619.374 485.441C619.826 487.021 620.795 488.404 622.125 489.369C623.455 490.333 625.069 490.824 626.711 490.763C633.132 490.531 646.224 489.18 667.004 483.174L682.334 479.278C682.334 479.278 690.855 476.594 690.365 470.263L691.096 461.258C691.096 461.258 693.436 469.893 692.447 475.816C692.254 476.968 691.763 478.049 691.023 478.952C690.283 479.855 689.319 480.548 688.228 480.962C681.279 483.627 659.13 491.142 622.455 495.344C622.455 495.344 615.637 497.537 613.934 482.933C613.934 482.933 612.482 456.39 613.694 449.57Z" fill="black"/>
<path d="M205.709 183.43L205.228 185.133C205.228 185.133 220.558 194.869 236.629 215.322L250.988 233.1C250.988 233.1 247.962 213.934 247.287 209.88L240.034 185.864C237.545 184.192 234.895 182.775 232.123 181.634L212.287 182.208L205.709 183.43Z" fill="#E6E6E6"/>
<path d="M250.988 233.1L247.287 209.88L240.034 185.864C257.807 189.76 259.509 205.095 259.509 205.095C262.183 218.246 266.078 225.548 266.078 225.548C270.065 233.202 268.271 243.132 266.726 248.685C265.11 254.43 264.457 260.403 264.792 266.362C265.634 280.651 271.435 284.77 271.435 284.77L226.156 285.501L197.474 255.302C215.516 246.279 213.083 229.176 210.834 221.374C210.048 218.672 208.392 215.655 207.624 212.953C203.266 197.682 194.551 190.741 194.551 190.741L205.228 185.096C213.834 191.137 221.732 198.128 228.774 205.937C228.774 205.937 234.612 212.36 246.695 227.705L250.988 233.1Z" fill="#21AFFF"/>
<path d="M194.514 190.732C194.514 190.732 185.993 187.807 176.991 210.167C176.991 210.167 164.038 245.955 164.325 277.856C164.325 277.856 161.651 296.847 177.722 293.201C177.722 293.201 225.915 288.814 232.003 280.54L237.841 278.587C237.841 278.587 233.946 273.479 236.139 257.403C236.139 257.403 236.379 251.073 239.303 249.37C239.303 249.37 233.752 247.667 227.617 253.017C227.617 253.017 214.47 251.314 197.437 255.21C197.437 255.21 218.541 246.992 210.659 220.967C209.955 218.644 209.289 216.34 208.734 213.934C207.439 208.482 203.775 197.321 194.514 190.732Z" fill="#21AFFF"/>
<path opacity="0.4" d="M236.138 257.45C235.563 261.358 235.365 265.312 235.546 269.259C235.963 276.163 237.841 278.634 237.841 278.634L232.003 280.587C225.915 288.86 177.712 293.238 177.712 293.238C161.651 296.893 164.334 277.903 164.334 277.903C164.093 246.001 176.991 210.213 176.991 210.213C185.993 187.807 194.514 190.778 194.514 190.778C203.766 197.368 207.467 208.538 208.734 214.035C209.289 216.414 209.955 218.746 210.668 221.078C218.541 247.084 197.428 255.321 197.428 255.321C214.48 251.425 227.617 253.137 227.617 253.137C233.705 247.769 239.303 249.481 239.303 249.481C236.379 251.119 236.138 257.45 236.138 257.45Z" fill="white"/>
<path d="M237.841 278.634C237.841 278.634 241.005 278.634 241.005 268.648L235.666 269.333C235.583 272.568 236.331 275.771 237.841 278.634Z" fill="#21AFFF"/>
<path opacity="0.5" d="M237.841 278.634C237.841 278.634 241.005 278.634 241.005 268.648L235.666 269.333C235.583 272.568 236.331 275.771 237.841 278.634Z" fill="white"/>
<g opacity="0.4">
<path d="M227.377 272.229C227.279 272.233 227.183 272.2 227.108 272.136C227.033 272.073 226.983 271.984 226.97 271.887C225.027 260.476 227.127 253.248 227.22 252.952C227.252 252.846 227.324 252.757 227.421 252.703C227.517 252.65 227.631 252.636 227.738 252.665C227.843 252.697 227.932 252.77 227.984 252.867C228.036 252.964 228.047 253.078 228.015 253.183C228.015 253.257 225.878 260.541 227.784 271.748C227.793 271.802 227.792 271.858 227.78 271.911C227.767 271.965 227.745 272.015 227.713 272.06C227.681 272.105 227.641 272.143 227.594 272.172C227.548 272.201 227.496 272.221 227.442 272.229H227.377Z" fill="white"/>
</g>
<path d="M267.91 245.363C267.91 245.363 275.311 244.058 275.82 247.214C275.82 247.214 276.125 250.12 273.785 251.101C273.785 251.11 272.415 248.121 267.91 245.363Z" fill="#F7A48B"/>
<path d="M246.221 230.447C246.624 229.984 247.194 229.7 247.806 229.658C248.418 229.616 249.022 229.818 249.484 230.221L280.652 257.371L277.614 260.861L246.446 233.711C245.984 233.308 245.7 232.738 245.658 232.126C245.616 231.513 245.818 230.91 246.221 230.447Z" fill="black"/>
<path d="M282.389 262.318L280.65 257.376L277.615 260.865L282.389 262.318Z" fill="black"/>
<path d="M417.487 292.146L379.554 292.025C379.195 291.89 378.87 291.679 378.601 291.405C378.333 291.132 378.127 290.803 377.998 290.442C377.87 290.08 377.821 289.696 377.857 289.314C377.892 288.932 378.01 288.562 378.203 288.231C371.662 284.279 374.622 279.68 374.622 279.68C371.005 275.746 375.89 273.359 375.89 273.359C387.631 267.611 388.324 271.757 388.324 271.757C394.671 269.129 403.636 274.534 403.636 274.534C408.753 277.884 414.221 275.459 415.22 274.913C417.2 282.114 417.459 291.007 417.487 292.146Z" fill="#F9B499"/>
<path d="M367.748 251.166L386.085 287.889L389.249 286.917L371.005 249.518C370.795 249.096 370.432 248.771 369.99 248.607C369.548 248.444 369.061 248.455 368.627 248.639C368.399 248.743 368.195 248.892 368.027 249.077C367.859 249.261 367.73 249.478 367.648 249.714C367.566 249.951 367.532 250.201 367.549 250.45C367.567 250.7 367.634 250.943 367.748 251.166Z" fill="#21AFFF"/>
<g opacity="0.4">
<path d="M197.437 255.673C197.34 255.676 197.244 255.643 197.169 255.58C197.084 255.508 197.031 255.406 197.021 255.295C197.01 255.185 197.044 255.074 197.113 254.988C203.248 247.677 198.288 218.607 198.242 218.32C198.233 218.266 198.234 218.211 198.247 218.157C198.259 218.104 198.282 218.053 198.313 218.009C198.345 217.964 198.386 217.926 198.432 217.897C198.479 217.868 198.53 217.848 198.585 217.839C198.692 217.823 198.802 217.848 198.891 217.91C198.981 217.972 199.043 218.066 199.066 218.172C199.269 219.385 204.136 247.917 197.752 255.525C197.714 255.572 197.666 255.609 197.612 255.635C197.557 255.661 197.498 255.673 197.437 255.673Z" fill="white"/>
</g>
<g opacity="0.4">
<path d="M184.29 261.272C184.204 261.274 184.12 261.248 184.05 261.198C183.98 261.148 183.928 261.076 183.902 260.994C183.881 260.943 183.872 260.889 183.873 260.834C183.875 260.779 183.888 260.725 183.912 260.676C183.935 260.626 183.968 260.582 184.01 260.546C184.051 260.51 184.099 260.483 184.152 260.467L197.456 255.737C197.56 255.701 197.675 255.707 197.775 255.754C197.874 255.802 197.951 255.888 197.988 255.992C198.025 256.096 198.019 256.211 197.971 256.311C197.923 256.411 197.838 256.487 197.734 256.524L184.429 261.253C184.385 261.268 184.337 261.275 184.29 261.272Z" fill="white"/>
</g>
<path d="M571.699 187.317C574.995 187.317 577.666 183.666 577.666 179.163C577.666 174.66 574.995 171.01 571.699 171.01C568.403 171.01 565.731 174.66 565.731 179.163C565.731 183.666 568.403 187.317 571.699 187.317Z" fill="#F9B499"/>
<path d="M554.777 318.365C554.777 318.365 531.647 315.931 532.877 323.964C532.877 323.964 518.028 329.322 520.461 337.355C520.461 337.355 515.345 341.492 517.537 344.907C517.537 344.907 518.463 347.582 525.087 344.417L539.687 338.327L525.087 347.054C525.087 347.054 522.164 349.979 525.818 351.682C525.818 351.682 528.732 353.144 535.07 348.757C535.07 348.757 544.081 342.918 548.707 343.889C548.707 343.889 549.919 345.592 546.024 347.304C546.024 347.304 535.847 351.932 538.484 355.337C538.484 355.337 540.667 357.771 548.217 353.144L562.095 342.677L572.541 339.105C572.541 339.105 572.541 325.935 567.554 322.372C567.544 322.372 563.298 316.865 554.777 318.365Z" fill="#F9B499"/>
<path d="M556.489 342.797C556.473 342.795 556.457 342.79 556.444 342.781C556.43 342.773 556.418 342.762 556.408 342.749C556.399 342.736 556.392 342.722 556.388 342.706C556.385 342.69 556.384 342.674 556.387 342.658C556.849 337.716 552.057 336.513 551.853 336.458C551.827 336.453 551.804 336.44 551.787 336.419C551.77 336.399 551.76 336.373 551.761 336.347C551.761 331.664 548.837 331.599 548.717 331.599C548.699 331.599 548.681 331.595 548.665 331.587C548.649 331.579 548.635 331.567 548.624 331.553C548.615 331.539 548.61 331.523 548.61 331.506C548.61 331.49 548.615 331.474 548.624 331.46C548.726 330.817 548.694 330.16 548.531 329.529C548.367 328.899 548.076 328.309 547.675 327.796C547.275 327.283 546.772 326.858 546.2 326.548C545.628 326.237 544.998 326.047 544.35 325.991C544.334 325.989 544.319 325.985 544.305 325.978C544.29 325.971 544.278 325.961 544.267 325.949C544.257 325.937 544.249 325.923 544.244 325.908C544.24 325.893 544.238 325.877 544.239 325.861C544.47 322.594 539.511 321.132 539.456 321.123C539.424 321.112 539.398 321.09 539.383 321.06C539.367 321.031 539.364 320.997 539.372 320.965C539.383 320.934 539.405 320.908 539.434 320.892C539.464 320.877 539.498 320.873 539.53 320.882C539.733 320.947 544.618 322.381 544.489 325.768C545.142 325.843 545.774 326.046 546.349 326.366C546.923 326.686 547.429 327.116 547.836 327.632C548.244 328.148 548.545 328.74 548.723 329.373C548.902 330.006 548.953 330.668 548.874 331.321C549.485 331.395 551.992 331.941 552.029 336.217C552.723 336.411 557.108 337.874 556.655 342.649C556.659 342.671 556.658 342.694 556.651 342.715C556.643 342.737 556.631 342.756 556.614 342.771C556.597 342.786 556.577 342.796 556.555 342.801C556.533 342.805 556.51 342.804 556.489 342.797Z" fill="#F7A48B"/>
<path d="M520.461 337.439C520.438 337.441 520.415 337.436 520.395 337.424C520.376 337.412 520.36 337.395 520.35 337.374C520.337 337.344 520.335 337.311 520.346 337.28C520.356 337.249 520.377 337.223 520.406 337.207L535.977 328.934C536.005 328.918 536.038 328.914 536.07 328.922C536.101 328.931 536.127 328.952 536.143 328.98C536.159 329.008 536.163 329.041 536.155 329.073C536.146 329.104 536.125 329.13 536.097 329.146L520.517 337.476L520.461 337.439Z" fill="#F7A48B"/>
<path d="M567.563 348.905C563.566 349.442 562.086 342.695 562.086 342.695L572.531 339.123C572.531 339.123 572.92 348.156 567.563 348.905Z" fill="#21AFFF"/>
<path opacity="0.2" d="M567.563 348.905C563.566 349.442 562.086 342.695 562.086 342.695L572.531 339.123C572.531 339.123 572.92 348.156 567.563 348.905Z" fill="black"/>
<path d="M388.278 271.813C388.278 271.813 379.517 275.959 384.143 279.124C384.143 279.124 386.085 280.827 393.876 276.931" fill="#F9B499"/>
<path d="M385.808 279.615C385.197 279.679 384.582 279.539 384.059 279.217C383.638 278.994 383.287 278.659 383.043 278.249C382.8 277.839 382.675 277.37 382.681 276.894C382.884 274.256 388.01 271.813 388.232 271.702C388.263 271.689 388.297 271.689 388.328 271.701C388.359 271.713 388.384 271.737 388.398 271.767C388.411 271.795 388.413 271.827 388.402 271.857C388.392 271.886 388.371 271.91 388.343 271.924C388.287 271.924 383.125 274.414 382.93 276.912C382.931 277.348 383.051 277.775 383.278 278.148C383.505 278.52 383.829 278.822 384.216 279.022C384.216 279.022 386.252 280.614 393.829 276.82C393.844 276.812 393.86 276.807 393.876 276.806C393.892 276.804 393.909 276.806 393.925 276.811C393.94 276.817 393.955 276.825 393.967 276.836C393.979 276.847 393.989 276.86 393.996 276.875C394.004 276.89 394.008 276.906 394.01 276.922C394.011 276.939 394.009 276.955 394.004 276.971C393.999 276.986 393.991 277.001 393.98 277.013C393.969 277.025 393.955 277.035 393.94 277.042C389.768 279.124 387.251 279.615 385.808 279.615Z" fill="#F7A48B"/>
<path d="M383.652 283.992C383.652 283.992 388.768 286.186 386.576 289.101C386.576 289.101 384.383 291.054 378.295 288.37" fill="#F9B499"/>
<path d="M383.957 289.915C381.989 289.835 380.058 289.35 378.286 288.49C378.256 288.476 378.232 288.451 378.22 288.42C378.208 288.389 378.209 288.354 378.221 288.324C378.238 288.296 378.263 288.275 378.294 288.263C378.324 288.252 378.357 288.25 378.388 288.259C384.124 290.785 386.372 289.138 386.52 289.018C386.733 288.765 386.885 288.466 386.962 288.145C387.039 287.824 387.04 287.489 386.964 287.167C386.492 285.381 383.671 284.15 383.643 284.14C383.628 284.134 383.615 284.125 383.604 284.114C383.593 284.103 383.584 284.09 383.578 284.075C383.572 284.061 383.569 284.045 383.569 284.029C383.569 284.013 383.572 283.998 383.578 283.983C383.584 283.969 383.593 283.955 383.604 283.944C383.615 283.933 383.629 283.924 383.643 283.918C383.658 283.912 383.674 283.909 383.689 283.909C383.705 283.909 383.721 283.912 383.735 283.918C383.856 283.965 386.696 285.205 387.205 287.102C387.293 287.468 387.294 287.85 387.207 288.217C387.12 288.583 386.948 288.924 386.705 289.212C385.897 289.755 384.927 290.004 383.957 289.915Z" fill="#F7A48B"/>
<path d="M394.643 292.322C394.679 291.896 394.604 291.468 394.426 291.079C394.247 290.691 393.972 290.355 393.625 290.105C393.279 289.854 392.874 289.697 392.449 289.65C392.025 289.602 391.595 289.665 391.202 289.832C391.202 289.832 392.432 286.278 386.816 286.426C386.982 286.615 387.108 286.835 387.186 287.074C387.264 287.313 387.293 287.565 387.27 287.815C387.248 288.066 387.175 288.309 387.055 288.53C386.936 288.751 386.773 288.945 386.576 289.101" fill="#F9B499"/>
<path d="M394.643 292.451C394.611 292.451 394.581 292.438 394.558 292.416C394.536 292.393 394.523 292.363 394.523 292.331C394.541 291.915 394.461 291.5 394.289 291.121C394.117 290.741 393.858 290.408 393.533 290.147C393.183 289.961 392.8 289.849 392.405 289.817C392.01 289.785 391.613 289.834 391.239 289.962C391.22 289.971 391.199 289.976 391.178 289.976C391.158 289.976 391.137 289.971 391.118 289.962C391.108 289.942 391.102 289.919 391.102 289.897C391.102 289.874 391.108 289.852 391.118 289.832C391.225 289.494 391.255 289.137 391.205 288.786C391.155 288.435 391.028 288.1 390.832 287.805C390.221 286.982 388.981 286.565 387.084 286.584C387.38 286.99 387.503 287.496 387.429 287.993C387.354 288.49 387.088 288.938 386.687 289.24C386.661 289.251 386.632 289.254 386.604 289.247C386.576 289.24 386.552 289.225 386.534 289.203C386.516 289.181 386.506 289.153 386.505 289.125C386.504 289.096 386.513 289.068 386.529 289.045C386.715 288.9 386.869 288.718 386.982 288.511C387.095 288.304 387.164 288.076 387.186 287.841C387.208 287.606 387.181 287.37 387.108 287.145C387.035 286.921 386.917 286.714 386.761 286.537C386.749 286.519 386.743 286.499 386.743 286.477C386.743 286.456 386.749 286.435 386.761 286.417C386.77 286.395 386.785 286.376 386.805 286.363C386.825 286.35 386.848 286.343 386.872 286.343C388.963 286.287 390.369 286.732 391.054 287.666C391.238 287.963 391.36 288.294 391.413 288.639C391.465 288.984 391.447 289.337 391.359 289.675C391.74 289.564 392.14 289.532 392.534 289.58C392.929 289.627 393.309 289.754 393.653 289.952C394.01 290.235 394.294 290.597 394.484 291.011C394.674 291.424 394.763 291.876 394.745 292.331C394.745 292.362 394.734 292.393 394.714 292.417C394.694 292.44 394.665 292.456 394.634 292.46L394.643 292.451Z" fill="#F7A48B"/>
<path d="M390.619 278.476C390.619 278.476 393.876 278.143 396.309 284.233Z" fill="#F9B499"/>
<path d="M396.309 284.353C396.285 284.353 396.262 284.346 396.242 284.333C396.222 284.32 396.207 284.301 396.198 284.279C393.829 278.365 390.647 278.597 390.647 278.597C390.615 278.597 390.584 278.584 390.562 278.562C390.539 278.539 390.526 278.508 390.526 278.476C390.526 278.445 390.539 278.414 390.562 278.391C390.584 278.369 390.615 278.356 390.647 278.356C390.785 278.356 394.024 278.088 396.466 284.187C396.472 284.202 396.475 284.218 396.474 284.234C396.474 284.25 396.47 284.266 396.463 284.281C396.456 284.296 396.446 284.309 396.434 284.32C396.422 284.331 396.408 284.339 396.392 284.344L396.309 284.353Z" fill="#F7A48B"/>
<path d="M379.276 275.709C379.276 275.709 385.114 278.874 384.873 281.262C384.893 281.701 384.877 282.14 384.827 282.576C384.797 282.893 384.686 283.197 384.505 283.459C384.323 283.72 384.077 283.93 383.791 284.069C383.504 284.207 383.187 284.27 382.869 284.25C382.552 284.23 382.244 284.129 381.977 283.955L376.352 280.54" fill="#F9B499"/>
<path d="M382.958 284.4C382.592 284.399 382.233 284.296 381.922 284.103L376.288 280.688C376.259 280.671 376.239 280.643 376.231 280.611C376.224 280.579 376.229 280.545 376.246 280.517C376.263 280.489 376.291 280.469 376.323 280.461C376.355 280.453 376.389 280.458 376.417 280.476L382.042 283.9C382.294 284.052 382.581 284.138 382.875 284.151C383.169 284.164 383.461 284.104 383.726 283.975C383.991 283.846 384.219 283.653 384.39 283.414C384.562 283.175 384.67 282.896 384.707 282.604C384.757 282.177 384.773 281.747 384.753 281.318C384.984 278.976 379.276 275.848 379.202 275.82C379.175 275.803 379.156 275.777 379.147 275.746C379.138 275.715 379.142 275.682 379.156 275.654C379.163 275.64 379.174 275.627 379.186 275.617C379.199 275.607 379.214 275.6 379.229 275.595C379.245 275.591 379.261 275.59 379.277 275.592C379.293 275.594 379.308 275.599 379.322 275.607C379.563 275.737 385.234 278.837 384.984 281.327C385.004 281.762 384.988 282.199 384.938 282.632C384.879 283.119 384.645 283.567 384.278 283.893C383.912 284.218 383.439 284.399 382.949 284.4H382.958Z" fill="#F7A48B"/>
<g opacity="0.2">
<path d="M565.981 406.35C565.965 406.351 565.949 406.349 565.933 406.344C565.918 406.338 565.904 406.329 565.893 406.318C565.881 406.306 565.873 406.292 565.867 406.277C565.861 406.262 565.859 406.246 565.861 406.23L566.592 354.847C566.592 354.815 566.604 354.784 566.627 354.762C566.649 354.739 566.68 354.727 566.712 354.727C566.744 354.727 566.774 354.739 566.797 354.762C566.82 354.784 566.832 354.815 566.832 354.847L566.101 406.23C566.101 406.261 566.089 406.292 566.066 406.315C566.044 406.337 566.013 406.35 565.981 406.35Z" fill="black"/>
</g>
<g opacity="0.2">
<path d="M566.481 361.455C566.455 361.453 566.431 361.443 566.412 361.427C566.392 361.411 566.378 361.389 566.372 361.364C566.366 361.339 566.368 361.313 566.377 361.29C566.387 361.266 566.404 361.246 566.425 361.233C573.919 356.8 592.793 354.264 592.978 354.245C592.994 354.243 593.01 354.243 593.026 354.247C593.042 354.251 593.056 354.258 593.069 354.267C593.082 354.277 593.093 354.289 593.101 354.302C593.11 354.316 593.115 354.331 593.117 354.347C593.12 354.363 593.119 354.379 593.116 354.395C593.112 354.41 593.105 354.425 593.096 354.438C593.086 354.451 593.074 354.462 593.06 354.47C593.047 354.478 593.031 354.484 593.016 354.486C592.821 354.486 574.003 357.031 566.546 361.446L566.481 361.455Z" fill="black"/>
</g>
<g opacity="0.2">
<path d="M503.66 473.308C503.643 473.306 503.627 473.3 503.612 473.292C503.598 473.283 503.585 473.271 503.576 473.257C503.566 473.243 503.559 473.227 503.556 473.21C503.553 473.194 503.554 473.177 503.558 473.16C503.632 472.836 510.377 440.148 510.617 405.498C510.617 405.258 508.943 380.51 511.348 370.164C511.355 370.132 511.375 370.104 511.403 370.087C511.431 370.069 511.464 370.064 511.496 370.071C511.528 370.078 511.556 370.098 511.573 370.126C511.59 370.154 511.596 370.187 511.589 370.219C509.183 380.547 510.848 405.239 510.858 405.489C510.617 440.176 503.872 472.892 503.798 473.216C503.792 473.246 503.774 473.273 503.748 473.29C503.722 473.307 503.69 473.314 503.66 473.308Z" fill="black"/>
</g>
<path opacity="0.2" d="M531.471 488.717C531.471 488.717 501.717 481.471 505.121 477.612C505.121 477.612 506.657 474.058 529.177 478.149L531.471 488.717Z" fill="black"/>
<path d="M566.953 555.287C566.953 555.287 569.876 588.891 548.449 594.241C548.449 594.241 543.823 596.193 532.628 596.924C532.628 596.924 525.087 596.924 527.761 590.104L544.313 546.763C544.313 546.763 547.968 537.749 553.075 544.811C553.075 544.811 559.403 553.584 562.327 543.885L566.462 528.448L574.012 544.024C574.058 544.181 574.761 547.198 566.953 555.287Z" fill="#21AFFF"/>
<path d="M580.1 559.387C580.1 566.939 569.626 573.51 569.626 573.51C567.443 585.199 561.355 591.529 561.355 591.529C549.179 606.142 530.925 601.265 530.925 601.265C522.894 597.618 527.761 590.067 527.761 590.067C525.087 596.887 532.628 596.887 532.628 596.887C543.823 596.156 548.448 594.203 548.448 594.203C569.876 588.854 566.952 555.25 566.952 555.25C574.761 547.198 574.058 544.218 574.012 544.052L580.1 559.387Z" fill="#E6E6E6"/>
<path d="M529.14 478.111L544.313 546.726C544.313 546.726 547.718 538.203 553.075 544.774C553.075 544.774 558.922 554.028 562.327 543.848L565.731 531.428L561.355 491.013C561.355 491.013 558.505 482.544 529.14 478.111Z" fill="#F9B499"/>
<path d="M612.185 445.701C610.77 455.881 610.77 481.712 610.77 481.712C612.111 503.627 618.172 505.413 619.152 505.561C617.126 505.339 592.729 502.507 592.025 493.641C594.268 480.481 597.607 467.531 602.008 454.928C602.008 454.928 606.875 436.419 611.741 416.456L642.088 308.323C642.088 308.323 653.893 272.405 659.824 264.076L669.215 264.289C669.215 264.289 644.336 314.181 631.679 372.625L614.101 443.619C613.607 443.729 613.159 443.988 612.817 444.36C612.475 444.732 612.254 445.2 612.185 445.701Z" fill="black"/>
<path opacity="0.2" d="M612.185 445.701C610.77 455.881 610.77 481.712 610.77 481.712C612.111 503.627 618.172 505.413 619.152 505.561C617.126 505.339 592.729 502.507 592.025 493.641C594.268 480.481 597.607 467.531 602.008 454.928C602.008 454.928 606.875 436.419 611.741 416.456L642.088 308.323C642.088 308.323 653.893 272.405 659.824 264.076L669.215 264.289C669.215 264.289 644.336 314.181 631.679 372.625L614.101 443.619C613.607 443.729 613.159 443.988 612.817 444.36C612.475 444.732 612.254 445.2 612.185 445.701Z" fill="black"/>
<path d="M184.531 159.497C184.45 159.495 184.372 159.471 184.305 159.427C184.238 159.383 184.185 159.32 184.151 159.247C182.319 154.924 181.576 150.218 181.986 145.541C180.728 146.466 178.202 148.993 178.378 154.684C178.379 154.739 178.37 154.794 178.35 154.845C178.33 154.896 178.301 154.942 178.263 154.982C178.225 155.021 178.18 155.053 178.13 155.075C178.08 155.097 178.026 155.109 177.971 155.11C177.916 155.111 177.862 155.102 177.811 155.082C177.76 155.062 177.713 155.033 177.674 154.995C177.634 154.957 177.603 154.912 177.581 154.862C177.559 154.812 177.547 154.758 177.545 154.703C177.296 146.725 182.125 144.458 182.329 144.365C182.391 144.327 182.463 144.307 182.537 144.307C182.61 144.307 182.682 144.327 182.745 144.365C182.807 144.41 182.855 144.471 182.884 144.541C182.913 144.611 182.923 144.688 182.912 144.763C182.36 149.555 183.048 154.409 184.91 158.858C184.955 158.959 184.958 159.074 184.92 159.177C184.882 159.281 184.806 159.365 184.707 159.414C184.653 159.451 184.593 159.479 184.531 159.497Z" fill="black"/>
<path d="M201.813 157.859L207.411 175.637L225.915 183.18L229.569 178.312L227.377 172.472L204.21 155.888L201.813 157.859Z" fill="#F9B499"/>
<path d="M227.377 172.472L229.569 178.312C229.569 178.312 217.727 182.421 212.694 169.289L227.377 172.472Z" fill="#F7A48B"/>
<path d="M240.727 140.016H240.644C240.536 139.993 240.442 139.929 240.381 139.837C240.32 139.745 240.298 139.633 240.32 139.525C240.431 138.933 242.911 124.977 230.754 120.895C230.699 120.88 230.647 120.854 230.603 120.819C230.558 120.783 230.522 120.739 230.495 120.689C230.468 120.639 230.452 120.583 230.447 120.527C230.443 120.47 230.45 120.413 230.468 120.359C230.487 120.305 230.516 120.255 230.554 120.213C230.593 120.171 230.639 120.137 230.691 120.114C230.743 120.09 230.799 120.078 230.856 120.077C230.913 120.076 230.969 120.087 231.022 120.109C243.864 124.421 241.199 139.544 241.134 139.682C241.115 139.776 241.064 139.861 240.99 139.922C240.916 139.982 240.823 140.015 240.727 140.016Z" fill="black"/>
<path d="M199.01 119.451L187.131 148.336C185.268 147.621 183.659 146.372 182.505 144.745C181.265 142.894 180.488 140.33 181.376 136.675C181.376 136.675 183.328 120.738 194.699 119.322C196.134 119.152 197.587 119.196 199.01 119.451Z" fill="#21AFFF"/>
<path d="M181.339 136.675C180.414 140.33 181.228 142.931 182.468 144.745C180.321 144.68 166.887 143.69 168.682 129.123C168.682 129.123 168.192 123.283 176.472 119.146C176.472 119.146 179.868 103.607 194.662 119.322C183.319 120.738 181.339 136.675 181.339 136.675Z" fill="black"/>
<path d="M230.649 130.506C225.08 122.137 213.784 119.868 205.42 125.437C197.055 131.007 194.789 142.307 200.358 150.676L212.063 168.264C217.632 176.633 228.928 178.903 237.292 173.333C245.657 167.764 247.923 156.464 242.353 148.095L230.649 130.506Z" fill="#F9B499"/>
<path d="M205.394 169.177C205.394 169.177 189.666 168.817 187.01 146.901C187.01 146.901 186.039 134.731 190.175 130.835C190.175 130.835 195.291 112.325 216.228 117.684C216.228 117.684 234.242 113.788 236.185 127.91L236.61 139.359L230.337 129.965C230.337 129.965 224.018 122.311 217.44 126.939C217.44 126.939 214.035 131.807 208.438 132.778C207.629 133.019 206.876 133.42 206.226 133.958C205.576 134.497 205.041 135.161 204.654 135.911C204.267 136.662 204.035 137.482 203.973 138.325C203.911 139.167 204.02 140.013 204.293 140.812C204.293 140.812 201.166 141.108 203.09 150.946L201.86 157.859L205.394 169.177Z" fill="black"/>
<path d="M202.711 160.93C205.421 159.053 205.571 154.575 203.046 150.927C200.521 147.28 196.278 145.844 193.568 147.721C190.858 149.598 190.709 154.076 193.234 157.724C195.758 161.371 200.002 162.807 202.711 160.93Z" fill="#F9B499"/>
<path d="M207.411 175.637C207.411 175.637 205.709 174.656 205.709 177.831V183.384L222.751 186.058C222.751 186.058 225.675 186.058 224.213 191.176C224.213 191.176 214.47 210.408 225.425 224.049L227.858 190.926C227.858 190.926 228.348 188.733 230.301 190.926C230.301 190.926 243.929 208.214 245.391 216.988C245.391 216.988 252.45 198.719 240.765 192.388L230.051 187.28C230.051 187.28 227.617 186.058 230.051 184.115L231.198 183.189C231.533 182.924 231.781 182.564 231.908 182.156C232.035 181.749 232.036 181.312 231.91 180.903C231.55 179.774 230.856 178.377 229.57 178.229L225.915 183.097L207.411 175.637Z" fill="#21AFFF"/>
<path opacity="0.4" d="M207.411 175.637C207.411 175.637 205.709 174.656 205.709 177.831V183.384L222.751 186.058C222.751 186.058 225.675 186.058 224.213 191.176C224.213 191.176 214.47 210.408 225.425 224.049L227.858 190.926C227.858 190.926 228.348 188.733 230.301 190.926C230.301 190.926 243.929 208.214 245.391 216.988C245.391 216.988 252.45 198.719 240.765 192.388L230.051 187.28C230.051 187.28 227.617 186.058 230.051 184.115L231.198 183.189C231.533 182.924 231.781 182.564 231.908 182.156C232.035 181.749 232.036 181.312 231.91 180.903C231.55 179.774 230.856 178.377 229.57 178.229L225.915 183.097L207.411 175.637Z" fill="white"/>
<path d="M272.166 257.45C272.166 257.45 273.627 260.865 268.27 261.105C268.27 261.105 267.54 263.78 263.154 263.78C263.154 263.78 262.673 266.945 257.806 266.945L241.014 268.648L235.546 269.259C235.364 265.313 235.563 261.358 236.138 257.45C236.138 257.45 236.379 251.119 239.303 249.416L244.659 248.861C245.777 248.744 246.849 248.36 247.787 247.741L254.263 243.475C255.182 242.866 256.221 242.463 257.311 242.294C258.4 242.124 259.513 242.193 260.573 242.494C263.348 243.308 267.207 244.65 269.482 246.492C269.492 246.492 278.984 253.313 272.166 257.45Z" fill="#F9B499"/>
<path d="M272.166 257.866C272.08 257.867 271.996 257.84 271.926 257.79C271.857 257.74 271.804 257.67 271.777 257.588C269.001 249.907 258.824 248.861 258.741 248.852C258.686 248.847 258.633 248.832 258.584 248.806C258.535 248.781 258.492 248.746 258.457 248.704C258.422 248.662 258.395 248.613 258.379 248.561C258.362 248.508 258.357 248.453 258.362 248.398C258.376 248.29 258.43 248.192 258.515 248.123C258.599 248.054 258.706 248.02 258.815 248.028C258.926 248.028 269.575 249.12 272.554 257.283C272.575 257.334 272.584 257.388 272.583 257.443C272.581 257.498 272.568 257.552 272.544 257.601C272.521 257.651 272.488 257.695 272.446 257.731C272.405 257.767 272.357 257.794 272.304 257.811L272.166 257.866Z" fill="#F7A48B"/>
<path d="M268.308 261.522C268.212 261.522 268.119 261.488 268.045 261.428C267.971 261.367 267.92 261.282 267.901 261.189C266.753 255.46 256.669 253.979 256.567 253.97C256.458 253.954 256.359 253.895 256.293 253.807C256.228 253.718 256.199 253.607 256.215 253.498C256.221 253.444 256.237 253.391 256.264 253.344C256.291 253.296 256.327 253.255 256.37 253.222C256.414 253.189 256.463 253.165 256.516 253.152C256.569 253.139 256.624 253.137 256.678 253.146C257.122 253.202 267.456 254.719 268.705 261.022C268.727 261.13 268.706 261.242 268.645 261.334C268.584 261.426 268.489 261.49 268.382 261.512L268.308 261.522Z" fill="#F7A48B"/>
<path d="M263.154 264.196C263.061 264.196 262.97 264.164 262.898 264.105C262.825 264.046 262.775 263.964 262.756 263.872C261.831 259.874 251.83 260.059 251.728 260.059C251.673 260.061 251.619 260.051 251.568 260.031C251.517 260.012 251.47 259.982 251.431 259.944C251.391 259.906 251.36 259.861 251.338 259.811C251.316 259.761 251.304 259.707 251.302 259.652C251.3 259.597 251.309 259.542 251.328 259.491C251.347 259.439 251.377 259.392 251.415 259.352C251.453 259.312 251.499 259.281 251.549 259.259C251.6 259.238 251.654 259.226 251.71 259.227C252.154 259.227 262.525 259.023 263.561 263.687C263.575 263.741 263.578 263.797 263.569 263.851C263.56 263.906 263.541 263.958 263.511 264.005C263.482 264.052 263.443 264.092 263.398 264.123C263.352 264.154 263.301 264.176 263.247 264.187L263.154 264.196Z" fill="#F7A48B"/>
<path d="M320.979 284.825H212.407C210.19 284.825 208.392 286.623 208.392 288.842C208.392 291.06 210.19 292.858 212.407 292.858H320.979C323.197 292.858 324.995 291.06 324.995 288.842C324.995 286.623 323.197 284.825 320.979 284.825Z" fill="#E6E6E6"/>
<g filter="url(#filter0_b_400_37)">
<path d="M420.625 298.114C422.125 298.952 422.125 301.048 420.625 301.886L400.375 313.205C398.875 314.043 397 312.995 397 311.319L397 288.681C397 287.005 398.875 285.957 400.375 286.795L420.625 298.114Z" fill="white"/>
<rect x="372.5" y="266.5" width="67" height="67" rx="33.5" stroke="white" stroke-width="5"/>
</g>
<rect x="0.5" y="0.5" width="800" height="631" rx="9.5" stroke="#21AFFF"/>
<defs>
<filter id="filter0_b_400_37" x="354" y="248" width="104" height="104" filterUnits="userSpaceOnUse" color-interpolation-filters="sRGB">
<feFlood flood-opacity="0" result="BackgroundImageFix"/>
<feGaussianBlur in="BackgroundImageFix" stdDeviation="8"/>
<feComposite in2="SourceAlpha" operator="in" result="effect1_backgroundBlur_400_37"/>
<feBlend mode="normal" in="SourceGraphic" in2="effect1_backgroundBlur_400_37" result="shape"/>
</filter>
</defs>
</svg>
