<svg width="50" height="50" viewBox="0 0 50 50" fill="none" xmlns="http://www.w3.org/2000/svg">
<g clip-path="url(#clip0_2_115)">
<path d="M25 22.5C24.8783 22.5 24.7575 22.4733 24.645 22.4208L10.4783 15.7542C10.1867 15.6167 10 15.3225 10 15C10 14.6775 10.1867 14.3833 10.4783 14.2458L24.645 7.57917C24.87 7.47334 25.13 7.47334 25.355 7.57917L39.5217 14.2458C39.8133 14.3833 40 14.6775 40 15C40 15.3225 39.8133 15.6167 39.5217 15.7542L25.355 22.4208C25.2425 22.4733 25.1217 22.5 25 22.5ZM12.7908 15L25 20.7458L37.2092 15L25 9.25417L12.7908 15Z" fill="#A5A5A5"/>
<path d="M25 29.1667C24.8725 29.1667 24.7442 29.1375 24.6275 29.0792L14.6275 24.0792C14.345 23.9375 14.1667 23.6492 14.1667 23.3333V16.9608C14.1667 16.6758 14.3125 16.41 14.5534 16.2575C14.7942 16.1042 15.0967 16.0867 15.3542 16.2067L25 20.7458L34.645 16.2067C34.9034 16.0858 35.2059 16.1042 35.4459 16.2575C35.6875 16.41 35.8334 16.6758 35.8334 16.9608V23.3333C35.8334 23.6492 35.655 23.9375 35.3725 24.0792L25.3725 29.0792C25.2559 29.1375 25.1275 29.1667 25 29.1667ZM15.8334 22.8183L25 27.4017L34.1667 22.8183V18.2742L25.355 22.4208C25.13 22.5267 24.87 22.5267 24.645 22.4208L15.8334 18.2742V22.8183Z" fill="#A5A5A5"/>
<path d="M39.1667 15.8333H25C24.54 15.8333 24.1667 15.46 24.1667 15C24.1667 14.54 24.54 14.1667 25 14.1667H39.1667C39.6267 14.1667 40 14.54 40 15C40 15.46 39.6267 15.8333 39.1667 15.8333Z" fill="#A5A5A5"/>
<path d="M39.1666 23.3333C38.7066 23.3333 38.3333 22.96 38.3333 22.5V15C38.3333 14.54 38.7066 14.1667 39.1666 14.1667C39.6266 14.1667 40 14.54 40 15V22.5C40 22.96 39.6266 23.3333 39.1666 23.3333Z" fill="#A5A5A5"/>
<path d="M25 17.5C24.54 17.5 24.1667 17.1267 24.1667 16.6667V13.3333C24.1667 12.8733 24.54 12.5 25 12.5C25.46 12.5 25.8334 12.8733 25.8334 13.3333V16.6667C25.8334 17.1267 25.46 17.5 25 17.5Z" fill="#A5A5A5"/>
<path d="M37.4991 25.8333C37.3408 25.8333 37.18 25.7883 37.0375 25.6933C36.655 25.4383 36.5516 24.9208 36.8066 24.5375L38.4733 22.0375C38.7283 21.6542 39.245 21.55 39.6291 21.8067C40.0116 22.0617 40.115 22.5792 39.86 22.9625L38.1933 25.4625C38.0325 25.7033 37.7683 25.8333 37.4991 25.8333Z" fill="#A5A5A5"/>
<path d="M40.8342 25.8333C40.565 25.8333 40.3008 25.7033 40.14 25.4625L38.4733 22.9625C38.2183 22.58 38.3217 22.0617 38.7042 21.8067C39.0867 21.55 39.6042 21.6542 39.86 22.0375L41.5267 24.5375C41.7817 24.92 41.6783 25.4383 41.2958 25.6933C41.1533 25.7883 40.9925 25.8333 40.8342 25.8333Z" fill="#A5A5A5"/>
<path d="M25 25C24.54 25 24.1667 24.6267 24.1667 24.1667V21.6667C24.1667 21.2067 24.54 20.8333 25 20.8333C25.46 20.8333 25.8334 21.2067 25.8334 21.6667V24.1667C25.8334 24.6267 25.46 25 25 25Z" fill="#A5A5A5"/>
<path d="M49.1667 32.5H0.833333C0.373333 32.5 0 32.1267 0 31.6667V4.1675C0 2.32916 1.49583 0.833328 3.33417 0.833328H46.6658C48.5042 0.833328 50 2.32916 50 4.1675V31.6667C50 32.1267 49.6267 32.5 49.1667 32.5ZM1.66667 30.8333H48.3333V4.1675C48.3333 3.2475 47.5858 2.5 46.6658 2.5H3.33417C2.41417 2.5 1.66667 3.2475 1.66667 4.1675V30.8333Z" fill="#A5A5A5"/>
<path d="M46.6658 39.1667H3.33417C1.49583 39.1667 0 37.6708 0 35.8325V31.6667C0 31.2067 0.373333 30.8333 0.833333 30.8333H49.1667C49.6267 30.8333 50 31.2067 50 31.6667V35.8325C50 37.6708 48.5042 39.1667 46.6658 39.1667ZM1.66667 32.5V35.8325C1.66667 36.7525 2.41417 37.5 3.33417 37.5H46.6658C47.5858 37.5 48.3333 36.7525 48.3333 35.8325V32.5H1.66667Z" fill="#A5A5A5"/>
<path d="M27.5 35.8333H22.5C22.04 35.8333 21.6667 35.46 21.6667 35C21.6667 34.54 22.04 34.1667 22.5 34.1667H27.5C27.96 34.1667 28.3334 34.54 28.3334 35C28.3334 35.46 27.96 35.8333 27.5 35.8333Z" fill="#A5A5A5"/>
<path d="M45.8333 32.5H4.16665C3.70665 32.5 3.33331 32.1267 3.33331 31.6667V5C3.33331 4.54 3.70665 4.16666 4.16665 4.16666H45.8333C46.2933 4.16666 46.6666 4.54 46.6666 5V31.6667C46.6666 32.1267 46.2933 32.5 45.8333 32.5ZM4.99998 30.8333H45V5.83333H4.99998V30.8333Z" fill="#A5A5A5"/>
<path d="M35.8334 49.1667H14.1667C12.7884 49.1667 11.6667 48.045 11.6667 46.6667C11.6667 45.2883 12.7884 44.1667 14.1667 44.1667H35.8334C37.2117 44.1667 38.3334 45.2883 38.3334 46.6667C38.3334 48.045 37.2117 49.1667 35.8334 49.1667ZM14.1667 45.8333C13.7075 45.8333 13.3334 46.2075 13.3334 46.6667C13.3334 47.1258 13.7075 47.5 14.1667 47.5H35.8334C36.2925 47.5 36.6667 47.1258 36.6667 46.6667C36.6667 46.2075 36.2925 45.8333 35.8334 45.8333H14.1667Z" fill="#A5A5A5"/>
<path d="M34.1667 45.8333H15.8333C15.3733 45.8333 15 45.46 15 45C15 44.54 15.3733 44.1667 15.8333 44.1667C18.5983 44.1667 20 42.2042 20 38.3333C20 37.8733 20.3733 37.5 20.8333 37.5H29.1667C29.6267 37.5 30 37.8733 30 38.3333C30 42.2042 31.4017 44.1667 34.1667 44.1667C34.6267 44.1667 35 44.54 35 45C35 45.46 34.6267 45.8333 34.1667 45.8333ZM19.8925 44.1667H30.1083C29.0817 43.03 28.4775 41.3375 28.3567 39.1667H21.6442C21.5225 41.3375 20.9192 43.03 19.8925 44.1667Z" fill="#A5A5A5"/>
</g>
<defs>
<clipPath id="clip0_2_115">
<rect width="50" height="50" fill="white"/>
</clipPath>
</defs>
</svg>
