<svg width="189" height="94" viewBox="0 0 189 94" fill="none" xmlns="http://www.w3.org/2000/svg">
<path d="M182.415 94C185.791 94 188.549 91.2598 188.33 87.8904C187.662 77.6363 185.316 67.5468 181.373 58.0278C176.649 46.6232 169.725 36.2607 160.996 27.532C152.268 18.8033 141.905 11.8793 130.501 7.15532C119.096 2.43138 106.873 -5.39585e-07 94.5284 0C82.1842 5.39585e-07 69.9608 2.43138 58.5562 7.15533C47.1516 11.8793 36.7891 18.8033 28.0604 27.532C19.3317 36.2607 12.4077 46.6232 7.68376 58.0278C3.74084 67.5468 1.39507 77.6363 0.727195 87.8904C0.507735 91.2598 3.26569 94 6.64226 94L20.9896 94C24.3662 94 27.0747 91.2572 27.3804 87.8945C27.9952 81.1332 29.6288 74.4915 32.2358 68.1976C35.6243 60.0172 40.5908 52.5843 46.8518 46.3233C53.1127 40.0623 60.5456 35.0958 68.726 31.7074C76.9064 28.319 85.6741 26.575 94.5284 26.575C103.383 26.575 112.15 28.319 120.331 31.7074C128.511 35.0958 135.944 40.0623 142.205 46.3233C148.466 52.5843 153.433 60.0172 156.821 68.1976C159.428 74.4915 161.062 81.1332 161.676 87.8945C161.982 91.2572 164.691 94 168.067 94H182.415Z" fill="#E1E1E1"/>
</svg>
