<svg width="95" height="94" viewBox="0 0 95 94" fill="none" xmlns="http://www.w3.org/2000/svg">
<path d="M94.5284 6.11383C94.5284 2.73726 91.7883 -0.0207075 88.4188 0.198753C78.1648 0.866631 68.0753 3.2124 58.5562 7.15532C47.1516 11.8793 36.7891 18.8033 28.0604 27.532C19.3317 36.2607 12.4077 46.6232 7.68376 58.0278C3.74083 67.5468 1.39507 77.6363 0.727195 87.8904C0.507734 91.2598 3.26569 94 6.64226 94L20.9896 94C24.3662 94 27.0747 91.2572 27.3804 87.8945C27.9952 81.1332 29.6288 74.4915 32.2358 68.1976C35.6243 60.0172 40.5908 52.5843 46.8518 46.3233C53.1127 40.0623 60.5456 35.0958 68.726 31.7074C75.02 29.1004 81.6616 27.4668 88.4229 26.852C91.7856 26.5462 94.5284 23.8377 94.5284 20.4612L94.5284 6.11383Z" fill="#FFA800"/>
</svg>
