<svg width="75" height="110" viewBox="0 0 75 110" fill="none" xmlns="http://www.w3.org/2000/svg">
<path opacity="0.8" d="M7.96181e-07 8.23367C8.50407e-07 3.68634 3.69736 -0.046731 8.21731 0.451493C18.4851 1.58329 28.4395 4.82786 37.4414 10.0143C48.8289 16.5752 58.2925 26.0132 64.8842 37.3829C71.4758 48.7526 74.9642 61.6548 74.9997 74.7971C75.0278 85.1862 72.8975 95.4369 68.7779 104.91C66.9644 109.08 61.8877 110.434 57.9414 108.174V108.174C53.9951 105.915 52.6881 100.898 54.372 96.6741C57.1311 89.7525 58.5527 82.3433 58.5325 74.8416C58.5047 64.585 55.7823 54.5156 50.6379 45.6423C45.4935 36.769 38.1078 29.4032 29.2206 24.2829C22.7206 20.5379 15.5843 18.0902 8.20669 17.0455C3.70428 16.4079 7.41954e-07 12.781 7.96181e-07 8.23367V8.23367Z" fill="#FFA800"/>
</svg>
