<svg width="50" height="50" viewBox="0 0 50 50" fill="none" xmlns="http://www.w3.org/2000/svg">
<path d="M29.1666 16.6667V15H27.5V16.6667H25.8333V18.3333H27.5V20H29.1666V18.3333H30.8333V16.6667H29.1666Z" fill="#A5A5A5"/>
<path d="M21.6075 13.0233C21.4807 12.707 21.1742 12.4998 20.8333 12.5C20.4925 12.4997 20.1859 12.707 20.0592 13.0233L16.7258 21.3567L18.2742 21.9767L19.0642 20H22.6025L23.3925 21.9767L24.9408 21.3567L21.6075 13.0233ZM19.7308 18.3333L20.8333 15.5767L21.9358 18.3333H19.7308Z" fill="#A5A5A5"/>
<path d="M24.1667 8.33333C17.7333 8.33333 12.5 12.4458 12.5 17.5C12.5 22.5542 17.7333 26.6667 24.1667 26.6667C25.9839 26.671 27.7855 26.3318 29.4767 25.6667L28.8567 24.1192C27.3629 24.706 25.7716 25.005 24.1667 25C18.6525 25 14.1667 21.635 14.1667 17.5C14.1667 13.365 18.6525 9.99999 24.1667 9.99999C29.6808 9.99999 34.1667 13.365 34.1667 17.5C34.1172 19.3149 33.3071 21.0253 31.9342 22.2133L33.0658 23.4367C34.7818 21.9348 35.7864 19.7799 35.8333 17.5C35.8333 12.4458 30.6 8.33333 24.1667 8.33333Z" fill="#A5A5A5"/>
<path d="M43.3333 6.66667H40.8333V4.16667C40.8333 3.70646 40.4602 3.33333 40 3.33333H15.8333V2.91667C15.8333 1.30583 14.5275 0 12.9167 0C11.3058 0 10 1.30583 10 2.91667V3.33333H8.33333C7.87313 3.33333 7.5 3.70646 7.5 4.16667V40H3.33333C2.87312 40 2.5 40.3731 2.5 40.8333V43.3333C2.5 45.1743 3.9924 46.6667 5.83333 46.6667H10.8333V49.1667C10.8333 49.6269 11.2065 50 11.6667 50H43.3333C43.7935 50 44.1667 49.6269 44.1667 49.1667V7.5C44.1667 7.03979 43.7935 6.66667 43.3333 6.66667ZM11.6667 2.91667C11.6667 2.22635 12.2264 1.66667 12.9167 1.66667C13.607 1.66667 14.1667 2.22635 14.1667 2.91667V3.33333H11.6667V2.91667ZM9.16667 5H14.1667V7.5C14.1667 7.96021 13.7935 8.33333 13.3333 8.33333C12.8731 8.33333 12.5 7.96021 12.5 7.5V6.66667H10.8333V7.5C10.8333 8.88073 11.9526 10 13.3333 10C14.7141 10 15.8333 8.88073 15.8333 7.5V5H39.1667V43.3333C39.1667 44.2539 38.4205 45 37.5 45C36.5795 45 35.8333 44.2539 35.8333 43.3333V40.8333C35.8333 40.3731 35.4602 40 35 40H9.16667V5ZM5.83333 45C4.91281 45 4.16667 44.2539 4.16667 43.3333V41.6667H34.1667V43.3333C34.1657 43.9186 34.3202 44.4939 34.6142 45H5.83333ZM42.5 48.3333H12.5V46.6667H37.5C39.3409 46.6667 40.8333 45.1743 40.8333 43.3333V8.33333H42.5V48.3333Z" fill="#A5A5A5"/>
<path d="M16.6667 29.1667H15V30.8333H16.6667V29.1667Z" fill="#A5A5A5"/>
<path d="M36.6666 29.1667H18.3333V30.8333H36.6666V29.1667Z" fill="#A5A5A5"/>
<path d="M36.6667 32.5H11.6667V34.1667H36.6667V32.5Z" fill="#A5A5A5"/>
<path d="M33.3334 35.8333H11.6667V37.5H33.3334V35.8333Z" fill="#A5A5A5"/>
<path d="M47.5 35.8333H45.8333V46.6667H47.5V35.8333Z" fill="#A5A5A5"/>
<path d="M47.5 48.3333H45.8333V50H47.5V48.3333Z" fill="#A5A5A5"/>
<path d="M5.83335 11.6667H4.16669V22.5H5.83335V11.6667Z" fill="#A5A5A5"/>
<path d="M5.83335 8.33333H4.16669V9.99999H5.83335V8.33333Z" fill="#A5A5A5"/>
</svg>
