<svg width="48" height="48" viewBox="0 0 48 48" fill="none" xmlns="http://www.w3.org/2000/svg">
<path fill-rule="evenodd" clip-rule="evenodd" d="M35.4585 30.2499V36.4999C35.4585 37.0749 35.9252 37.5416 36.5002 37.5416H42.7502C43.3252 37.5416 43.7918 37.0749 43.7918 36.4999C43.7918 35.9249 43.3252 35.4583 42.7502 35.4583H37.5418V30.2499C37.5418 29.6749 37.0752 29.2083 36.5002 29.2083C35.9252 29.2083 35.4585 29.6749 35.4585 30.2499Z" fill="#A5A5A5"/>
<path fill-rule="evenodd" clip-rule="evenodd" d="M12.5417 18.9999C12.5417 18.3926 12.3001 17.8093 11.8709 17.3791C11.4407 16.9499 10.8574 16.7083 10.2501 16.7083H8.58341C7.97612 16.7083 7.39279 16.9499 6.96258 17.3791C6.53341 17.8093 6.29175 18.3926 6.29175 18.9999V20.6666C6.29175 21.2739 6.53341 21.8572 6.96258 22.2874C7.39279 22.7166 7.97612 22.9583 8.58341 22.9583H10.2501C10.8574 22.9583 11.4407 22.7166 11.8709 22.2874C12.3001 21.8572 12.5417 21.2739 12.5417 20.6666V18.9999ZM10.4584 18.9999V20.6666C10.4584 20.7218 10.4365 20.7749 10.397 20.8135C10.3584 20.853 10.3053 20.8749 10.2501 20.8749H8.58341C8.5282 20.8749 8.47509 20.853 8.43655 20.8135C8.39696 20.7749 8.37508 20.7218 8.37508 20.6666V18.9999C8.37508 18.9447 8.39696 18.8916 8.43655 18.853C8.47509 18.8135 8.5282 18.7916 8.58341 18.7916H10.2501C10.3053 18.7916 10.3584 18.8135 10.397 18.853C10.4365 18.8916 10.4584 18.9447 10.4584 18.9999Z" fill="#A5A5A5"/>
<path fill-rule="evenodd" clip-rule="evenodd" d="M12.5417 27.3333C12.5417 26.726 12.3001 26.1427 11.8709 25.7125C11.4407 25.2833 10.8574 25.0416 10.2501 25.0416H8.58341C7.97612 25.0416 7.39279 25.2833 6.96258 25.7125C6.53341 26.1427 6.29175 26.726 6.29175 27.3333V29C6.29175 29.6073 6.53341 30.1906 6.96258 30.6208C7.39279 31.05 7.97612 31.2916 8.58341 31.2916H10.2501C10.8574 31.2916 11.4407 31.05 11.8709 30.6208C12.3001 30.1906 12.5417 29.6073 12.5417 29V27.3333ZM10.4584 27.3333V29C10.4584 29.0552 10.4365 29.1083 10.397 29.1468C10.3584 29.1864 10.3053 29.2083 10.2501 29.2083H8.58341C8.5282 29.2083 8.47509 29.1864 8.43655 29.1468C8.39696 29.1083 8.37508 29.0552 8.37508 29V27.3333C8.37508 27.2781 8.39696 27.225 8.43655 27.1864C8.47509 27.1468 8.5282 27.125 8.58341 27.125H10.2501C10.3053 27.125 10.3584 27.1468 10.397 27.1864C10.4365 27.225 10.4584 27.2781 10.4584 27.3333Z" fill="#A5A5A5"/>
<path fill-rule="evenodd" clip-rule="evenodd" d="M12.5417 35.6667C12.5417 35.0594 12.3001 34.476 11.8709 34.0458C11.4407 33.6167 10.8574 33.375 10.2501 33.375H8.58341C7.97612 33.375 7.39279 33.6167 6.96258 34.0458C6.53341 34.476 6.29175 35.0594 6.29175 35.6667V37.3333C6.29175 37.9406 6.53341 38.524 6.96258 38.9542C7.39279 39.3833 7.97612 39.625 8.58341 39.625H10.2501C10.8574 39.625 11.4407 39.3833 11.8709 38.9542C12.3001 38.524 12.5417 37.9406 12.5417 37.3333V35.6667ZM10.4584 35.6667V37.3333C10.4584 37.3885 10.4365 37.4417 10.397 37.4802C10.3584 37.5198 10.3053 37.5417 10.2501 37.5417H8.58341C8.5282 37.5417 8.47509 37.5198 8.43655 37.4802C8.39696 37.4417 8.37508 37.3885 8.37508 37.3333V35.6667C8.37508 35.6115 8.39696 35.5583 8.43655 35.5198C8.47509 35.4802 8.5282 35.4583 8.58341 35.4583H10.2501C10.3053 35.4583 10.3584 35.4802 10.397 35.5198C10.4365 35.5583 10.4584 35.6115 10.4584 35.6667Z" fill="#A5A5A5"/>
<path fill-rule="evenodd" clip-rule="evenodd" d="M20.875 18.9999C20.875 18.3926 20.6333 17.8093 20.2042 17.3791C19.774 16.9499 19.1906 16.7083 18.5833 16.7083H16.9167C16.3094 16.7083 15.726 16.9499 15.2958 17.3791C14.8667 17.8093 14.625 18.3926 14.625 18.9999V20.6666C14.625 21.2739 14.8667 21.8572 15.2958 22.2874C15.726 22.7166 16.3094 22.9583 16.9167 22.9583H18.5833C19.1906 22.9583 19.774 22.7166 20.2042 22.2874C20.6333 21.8572 20.875 21.2739 20.875 20.6666V18.9999ZM18.7917 18.9999V20.6666C18.7917 20.7218 18.7698 20.7749 18.7302 20.8135C18.6917 20.853 18.6385 20.8749 18.5833 20.8749H16.9167C16.8615 20.8749 16.8083 20.853 16.7698 20.8135C16.7302 20.7749 16.7083 20.7218 16.7083 20.6666V18.9999C16.7083 18.9447 16.7302 18.8916 16.7698 18.853C16.8083 18.8135 16.8615 18.7916 16.9167 18.7916H18.5833C18.6385 18.7916 18.6917 18.8135 18.7302 18.853C18.7698 18.8916 18.7917 18.9447 18.7917 18.9999Z" fill="#A5A5A5"/>
<path fill-rule="evenodd" clip-rule="evenodd" d="M20.875 27.3333C20.875 26.726 20.6333 26.1427 20.2042 25.7125C19.774 25.2833 19.1906 25.0416 18.5833 25.0416H16.9167C16.3094 25.0416 15.726 25.2833 15.2958 25.7125C14.8667 26.1427 14.625 26.726 14.625 27.3333V29C14.625 29.6073 14.8667 30.1906 15.2958 30.6208C15.726 31.05 16.3094 31.2916 16.9167 31.2916H18.5833C19.1906 31.2916 19.774 31.05 20.2042 30.6208C20.6333 30.1906 20.875 29.6073 20.875 29V27.3333ZM18.7917 27.3333V29C18.7917 29.0552 18.7698 29.1083 18.7302 29.1468C18.6917 29.1864 18.6385 29.2083 18.5833 29.2083H16.9167C16.8615 29.2083 16.8083 29.1864 16.7698 29.1468C16.7302 29.1083 16.7083 29.0552 16.7083 29V27.3333C16.7083 27.2781 16.7302 27.225 16.7698 27.1864C16.8083 27.1468 16.8615 27.125 16.9167 27.125H18.5833C18.6385 27.125 18.6917 27.1468 18.7302 27.1864C18.7698 27.225 18.7917 27.2781 18.7917 27.3333Z" fill="#A5A5A5"/>
<path fill-rule="evenodd" clip-rule="evenodd" d="M20.875 35.6667C20.875 35.0594 20.6333 34.476 20.2042 34.0458C19.774 33.6167 19.1906 33.375 18.5833 33.375H16.9167C16.3094 33.375 15.726 33.6167 15.2958 34.0458C14.8667 34.476 14.625 35.0594 14.625 35.6667V37.3333C14.625 37.9406 14.8667 38.524 15.2958 38.9542C15.726 39.3833 16.3094 39.625 16.9167 39.625H18.5833C19.1906 39.625 19.774 39.3833 20.2042 38.9542C20.6333 38.524 20.875 37.9406 20.875 37.3333V35.6667ZM18.7917 35.6667V37.3333C18.7917 37.3885 18.7698 37.4417 18.7302 37.4802C18.6917 37.5198 18.6385 37.5417 18.5833 37.5417H16.9167C16.8615 37.5417 16.8083 37.5198 16.7698 37.4802C16.7302 37.4417 16.7083 37.3885 16.7083 37.3333V35.6667C16.7083 35.6115 16.7302 35.5583 16.7698 35.5198C16.8083 35.4802 16.8615 35.4583 16.9167 35.4583H18.5833C18.6385 35.4583 18.6917 35.4802 18.7302 35.5198C18.7698 35.5583 18.7917 35.6115 18.7917 35.6667Z" fill="#A5A5A5"/>
<path fill-rule="evenodd" clip-rule="evenodd" d="M29.2085 18.9999C29.2085 18.3926 28.9668 17.8093 28.5377 17.3791C28.1075 16.9499 27.5241 16.7083 26.9168 16.7083H25.2502C24.6429 16.7083 24.0595 16.9499 23.6293 17.3791C23.2002 17.8093 22.9585 18.3926 22.9585 18.9999V20.6666C22.9585 21.2739 23.2002 21.8572 23.6293 22.2874C24.0595 22.7166 24.6429 22.9583 25.2502 22.9583H26.9168C27.5241 22.9583 28.1075 22.7166 28.5377 22.2874C28.9668 21.8572 29.2085 21.2739 29.2085 20.6666V18.9999ZM27.1252 18.9999V20.6666C27.1252 20.7218 27.1033 20.7749 27.0637 20.8135C27.0252 20.853 26.972 20.8749 26.9168 20.8749H25.2502C25.195 20.8749 25.1418 20.853 25.1033 20.8135C25.0637 20.7749 25.0418 20.7218 25.0418 20.6666V18.9999C25.0418 18.9447 25.0637 18.8916 25.1033 18.853C25.1418 18.8135 25.195 18.7916 25.2502 18.7916H26.9168C26.972 18.7916 27.0252 18.8135 27.0637 18.853C27.1033 18.8916 27.1252 18.9447 27.1252 18.9999Z" fill="#A5A5A5"/>
<path fill-rule="evenodd" clip-rule="evenodd" d="M37.5417 18.9999C37.5417 18.3926 37.3001 17.8093 36.8709 17.3791C36.4407 16.9499 35.8574 16.7083 35.2501 16.7083H33.5834C32.9761 16.7083 32.3928 16.9499 31.9626 17.3791C31.5334 17.8093 31.2917 18.3926 31.2917 18.9999V20.6666C31.2917 21.2739 31.5334 21.8572 31.9626 22.2874C32.3928 22.7166 32.9761 22.9583 33.5834 22.9583H35.2501C35.8574 22.9583 36.4407 22.7166 36.8709 22.2874C37.3001 21.8572 37.5417 21.2739 37.5417 20.6666V18.9999ZM35.4584 18.9999V20.6666C35.4584 20.7218 35.4365 20.7749 35.397 20.8135C35.3584 20.853 35.3053 20.8749 35.2501 20.8749H33.5834C33.5282 20.8749 33.4751 20.853 33.4365 20.8135C33.397 20.7749 33.3751 20.7218 33.3751 20.6666V18.9999C33.3751 18.9447 33.397 18.8916 33.4365 18.853C33.4751 18.8135 33.5282 18.7916 33.5834 18.7916H35.2501C35.3053 18.7916 35.3584 18.8135 35.397 18.853C35.4365 18.8916 35.4584 18.9447 35.4584 18.9999Z" fill="#A5A5A5"/>
<path fill-rule="evenodd" clip-rule="evenodd" d="M27.6636 43.7916H5.25008C3.86883 43.7916 2.54384 43.2427 1.56675 42.2666C0.590711 41.2895 0.041748 39.9645 0.041748 38.5833V9.41663C0.041748 6.54058 2.37404 4.20829 5.25008 4.20829H8.37508V3.16663C8.37508 1.44058 9.77404 0.041626 11.5001 0.041626C13.2261 0.041626 14.6251 1.44058 14.6251 3.16663V4.20829H29.2084V3.16663C29.2084 1.44058 30.6074 0.041626 32.3334 0.041626C34.0595 0.041626 35.4584 1.44058 35.4584 3.16663V4.20829H38.5834C41.4595 4.20829 43.7918 6.54058 43.7918 9.41663V27.6635C46.3365 29.7666 47.9584 32.9448 47.9584 36.5C47.9584 42.8239 42.824 47.9583 36.5001 47.9583C32.9449 47.9583 29.7667 46.3364 27.6636 43.7916ZM36.5001 27.125C41.674 27.125 45.8751 31.326 45.8751 36.5C45.8751 41.6739 41.674 45.875 36.5001 45.875C31.3261 45.875 27.1251 41.6739 27.1251 36.5C27.1251 31.326 31.3261 27.125 36.5001 27.125ZM41.7084 26.2927V14.625H2.12508V38.5833C2.12508 39.4125 2.45425 40.2073 3.0407 40.7927C3.62612 41.3791 4.42092 41.7083 5.25008 41.7083H26.2928C25.4928 40.1458 25.0417 38.375 25.0417 36.5C25.0417 30.176 30.1761 25.0416 36.5001 25.0416C38.3751 25.0416 40.1459 25.4927 41.7084 26.2927ZM35.4584 6.29163V7.33329C35.4584 9.05933 34.0595 10.4583 32.3334 10.4583C30.6074 10.4583 29.2084 9.05933 29.2084 7.33329V6.29163H14.6251V7.33329C14.6251 9.05933 13.2261 10.4583 11.5001 10.4583C9.77404 10.4583 8.37508 9.05933 8.37508 7.33329V6.29163H5.25008C3.52404 6.29163 2.12508 7.69058 2.12508 9.41663V12.5416H41.7084V9.41663C41.7084 7.69058 40.3095 6.29163 38.5834 6.29163H35.4584ZM33.3751 3.16663V7.33329C33.3751 7.90829 32.9084 8.37496 32.3334 8.37496C31.7584 8.37496 31.2918 7.90829 31.2918 7.33329V3.16663C31.2918 2.59163 31.7584 2.12496 32.3334 2.12496C32.9084 2.12496 33.3751 2.59163 33.3751 3.16663ZM12.5417 3.16663V7.33329C12.5417 7.90829 12.0751 8.37496 11.5001 8.37496C10.9251 8.37496 10.4584 7.90829 10.4584 7.33329V3.16663C10.4584 2.59163 10.9251 2.12496 11.5001 2.12496C12.0751 2.12496 12.5417 2.59163 12.5417 3.16663Z" fill="#A5A5A5"/>
</svg>
