<svg width="38" height="40" viewBox="0 0 38 40" fill="none" xmlns="http://www.w3.org/2000/svg">
<path d="M31.9039 25.2968V17.6968C31.9039 12.0516 28.2911 7.12907 23.3168 5.29037C23.3749 5.00001 23.4071 4.7033 23.4071 4.40647C23.4072 1.97423 21.433 0 19.0007 0C16.5685 0 14.5943 1.97423 14.5943 4.40647C14.5943 4.69683 14.6265 4.98708 14.6781 5.26452C12.9685 5.87099 11.3878 6.83224 10.0394 8.13547C7.49752 10.5871 6.09754 13.8838 6.09754 17.4193V25.2968C6.09754 25.5742 5.87171 25.8065 5.58782 25.8065C3.20719 25.8065 1.17488 27.6001 0.955523 29.8839C0.832914 31.1549 1.25235 32.4194 2.11039 33.3614C2.96197 34.2969 4.18138 34.8388 5.45228 34.8388H13.233C13.5555 37.7356 16.0201 40.0001 19.0007 40.0001C21.9814 40.0001 24.4459 37.7356 24.7685 34.8388H32.5492C33.8202 34.8388 35.0395 34.2969 35.8911 33.3614C36.7427 32.4194 37.1621 31.1549 37.0459 29.8839C36.8266 27.6001 34.7879 25.8065 32.4137 25.8065C32.1298 25.8064 31.9039 25.5806 31.9039 25.2968ZM19.0007 2.5806C20.0071 2.5806 20.8265 3.39996 20.8265 4.40636C20.8265 4.49019 20.8136 4.56765 20.8006 4.65147C20.3619 4.58694 19.9167 4.54179 19.4716 4.52886C18.7038 4.50301 17.949 4.55472 17.2006 4.65794C17.1877 4.57412 17.1748 4.49665 17.1748 4.41283C17.175 3.39996 17.9943 2.5806 19.0007 2.5806ZM19.0007 37.4193C17.4459 37.4193 16.1427 36.3096 15.8394 34.8387H22.1619C21.8589 36.3097 20.5556 37.4193 19.0007 37.4193ZM34.4782 30.129C34.5298 30.6839 34.3556 31.2194 33.9878 31.6258C33.6072 32.0323 33.1039 32.258 32.5492 32.258H5.45239C4.89753 32.258 4.39438 32.0322 4.02009 31.6258C3.64591 31.2194 3.47169 30.6838 3.5233 30.129C3.61358 29.1549 4.52334 28.3871 5.58782 28.3871C7.29109 28.3871 8.67813 27 8.67813 25.2968V17.4193C8.67813 14.5935 9.80068 11.9549 11.833 9.99356C13.7749 8.11619 16.304 7.09675 19.0007 7.09675C19.1298 7.09675 19.2523 7.09675 19.3814 7.10321C24.8588 7.29671 29.3233 12.0516 29.3233 17.6968V25.2968C29.3233 27 30.7104 28.3871 32.4137 28.3871C33.4781 28.3871 34.3814 29.1549 34.4782 30.129Z" fill="#FFA800"/>
</svg>
