<svg width="43" height="50" viewBox="0 0 43 50" fill="none" xmlns="http://www.w3.org/2000/svg">
<path d="M41.3333 6.66667H38.8333V4.16667C38.8333 3.70646 38.4602 3.33333 38 3.33333H13.8333V2.91667C13.8333 1.30583 12.5275 0 10.9167 0C9.30583 0 8 1.30583 8 2.91667V3.33333H6.33333C5.87313 3.33333 5.5 3.70646 5.5 4.16667V40H1.33333C0.873125 40 0.5 40.3731 0.5 40.8333V43.3333C0.5 45.1743 1.9924 46.6667 3.83333 46.6667H8.83333V49.1667C8.83333 49.6269 9.20646 50 9.66667 50H41.3333C41.7935 50 42.1667 49.6269 42.1667 49.1667V7.5C42.1667 7.03979 41.7935 6.66667 41.3333 6.66667ZM9.66667 2.91667C9.66667 2.22635 10.2264 1.66667 10.9167 1.66667C11.607 1.66667 12.1667 2.22635 12.1667 2.91667V3.33333H9.66667V2.91667ZM7.16667 5H12.1667V7.5C12.1667 7.96021 11.7935 8.33333 11.3333 8.33333C10.8731 8.33333 10.5 7.96021 10.5 7.5V6.66667H8.83333V7.5C8.83333 8.88073 9.9526 10 11.3333 10C12.7141 10 13.8333 8.88073 13.8333 7.5V5H37.1667V43.3333C37.1667 44.2539 36.4205 45 35.5 45C34.5795 45 33.8333 44.2539 33.8333 43.3333V40.8333C33.8333 40.3731 33.4602 40 33 40H7.16667V5ZM3.83333 45C2.91281 45 2.16667 44.2539 2.16667 43.3333V41.6667H32.1667V43.3333C32.1657 43.9186 32.3202 44.4939 32.6142 45H3.83333ZM40.5 48.3333H10.5V46.6667H35.5C37.3409 46.6667 38.8333 45.1743 38.8333 43.3333V8.33333H40.5V48.3333Z" fill="#A5A5A5"/>
</svg>
