<svg width="50" height="44" viewBox="0 0 50 44" fill="none" xmlns="http://www.w3.org/2000/svg">
<path d="M40.3186 23.7055V5.34355C40.3186 2.80066 38.2455 0.727539 35.7026 0.727539H4.61601C2.07312 0.727539 0 2.80066 0 5.34355V23.7055C0 26.2484 2.07312 28.3215 4.61601 28.3215H5.93341V33.8566C5.93341 34.8779 6.76062 35.7051 7.79208 35.7051C8.32312 35.7051 8.83374 35.4702 9.19118 35.0617L15.0225 28.3113H35.7128C38.2455 28.3215 40.3186 26.2484 40.3186 23.7055ZM14.4404 25.8195C14.0727 25.8195 13.7357 25.9726 13.4906 26.2484L8.42525 32.1001V27.0654C8.42525 26.3709 7.86356 25.8092 7.16912 25.8092H4.61601C3.4518 25.8092 2.50204 24.8595 2.50204 23.6953V5.34355C2.50204 4.17934 3.4518 3.22958 4.61601 3.22958H35.7026C36.8668 3.22958 37.8166 4.17934 37.8166 5.34355V23.7055C37.8166 24.8697 36.8668 25.8195 35.7026 25.8195H14.4404Z" fill="#A5A5A5"/>
<path d="M40.819 42.629C41.1765 43.0477 41.6871 43.2724 42.2079 43.2724C42.4224 43.2724 42.6471 43.2316 42.8615 43.1499C43.5968 42.8741 44.0666 42.2001 44.0666 41.4138V35.8786H45.384C47.9269 35.8786 50 33.8055 50 31.2626V12.9007C50 10.3578 47.9269 8.28467 45.384 8.28467C44.6895 8.28467 44.1278 8.84635 44.1278 9.53058C44.1278 10.225 44.6895 10.7867 45.384 10.7867C46.5482 10.7867 47.4979 11.7365 47.4979 12.9007V31.2626C47.4979 32.4268 46.5482 33.3766 45.384 33.3766H42.8207C42.1262 33.3766 41.5645 33.9383 41.5645 34.6327V39.6674L36.4992 33.8157C36.2643 33.54 35.9171 33.3868 35.5494 33.3868H16.7586C16.0641 33.3868 15.5024 33.9485 15.5024 34.6429C15.5024 35.3374 16.0641 35.899 16.7586 35.899H34.9775L40.819 42.629Z" fill="#A5A5A5"/>
<path d="M20.1592 16.4547C20.9827 16.4547 21.6502 15.7871 21.6502 14.9637C21.6502 14.1402 20.9827 13.4727 20.1592 13.4727C19.3358 13.4727 18.6682 14.1402 18.6682 14.9637C18.6682 15.7871 19.3358 16.4547 20.1592 16.4547Z" fill="#A5A5A5"/>
<path d="M25.1531 16.4547C25.9766 16.4547 26.6441 15.7871 26.6441 14.9637C26.6441 14.1402 25.9766 13.4727 25.1531 13.4727C24.3297 13.4727 23.6621 14.1402 23.6621 14.9637C23.6621 15.7871 24.3297 16.4547 25.1531 16.4547Z" fill="#A5A5A5"/>
<path d="M15.1653 16.4547C15.9888 16.4547 16.6563 15.7871 16.6563 14.9637C16.6563 14.1402 15.9888 13.4727 15.1653 13.4727C14.3419 13.4727 13.6743 14.1402 13.6743 14.9637C13.6743 15.7871 14.3419 16.4547 15.1653 16.4547Z" fill="#A5A5A5"/>
</svg>
