<svg width="50" height="50" viewBox="0 0 50 50" fill="none" xmlns="http://www.w3.org/2000/svg">
<path d="M40.625 50.0002H32.2917C31.7167 50.0002 31.25 49.5335 31.25 48.9585V34.3752C31.25 33.8002 30.7833 33.3335 30.2083 33.3335H19.7917C19.2167 33.3335 18.75 33.8002 18.75 34.3752V48.9585C18.75 49.5335 18.2833 50.0002 17.7083 50.0002H9.375C7.65208 50.0002 6.25 48.5981 6.25 46.8752V27.0835H2.08333C0.935417 27.0835 0 26.1481 0 25.0002C0 24.4481 0.225 23.9064 0.616667 23.5148L24.2708 0.298096C24.675 -0.0977376 25.325 -0.0977376 25.7292 0.298096L49.375 23.5064C49.775 23.9064 50 24.4481 50 25.0002C50 26.1481 49.0646 27.0835 47.9167 27.0835H43.75V46.8752C43.75 48.5981 42.3479 50.0002 40.625 50.0002ZM33.3333 47.9168H40.625C41.2 47.9168 41.6667 47.4502 41.6667 46.8752V26.0418C41.6667 25.4668 42.1333 25.0002 42.7083 25.0002H47.9167L25 2.50226L2.08333 24.9939L7.29167 25.0002C7.86667 25.0002 8.33333 25.4668 8.33333 26.0418V46.8752C8.33333 47.4502 8.8 47.9168 9.375 47.9168H16.6667V34.3752C16.6667 32.6523 18.0687 31.2502 19.7917 31.2502H30.2083C31.9312 31.2502 33.3333 32.6523 33.3333 34.3752V47.9168Z" fill="#21AFFF"/>
</svg>
