<svg width="50" height="50" viewBox="0 0 50 50" fill="none" xmlns="http://www.w3.org/2000/svg">
<g clip-path="url(#clip0_13_49)">
<path d="M48.436 23.4383H28.6448C27.7823 23.4383 27.0823 22.7383 27.0823 21.8759C27.0823 21.0134 27.7823 20.3134 28.6448 20.3134H48.436C49.2984 20.3134 49.9984 21.0134 49.9984 21.8759C49.9984 22.7383 49.2984 23.4383 48.436 23.4383Z" fill="#FFA800"/>
<path d="M40.6237 31.2506C40.2236 31.2506 39.8238 31.0984 39.5194 30.7924C38.9091 30.1817 38.9091 29.1922 39.5194 28.5819L46.2277 21.874L39.5194 15.1656C38.9091 14.5553 38.9091 13.5658 39.5194 12.9555C40.1301 12.3448 41.1196 12.3448 41.7299 12.9555L49.5422 20.7677C50.1525 21.3781 50.1525 22.3676 49.5422 22.9779L41.7299 30.7902C41.4236 31.0984 41.0239 31.2506 40.6237 31.2506Z" fill="#FFA800"/>
<path d="M16.6663 50C16.2203 50 15.7973 49.9374 15.3747 49.8062L2.83728 45.6292C1.1314 45.0334 0 43.4439 0 41.667V4.16822C0 1.87032 1.86876 0.0015564 4.16666 0.0015564C4.61221 0.0015564 5.03524 0.0641155 5.45828 0.195337L17.9953 4.3723C19.7015 4.96814 20.8326 6.55767 20.8326 8.3345V45.8333C20.8326 48.1312 18.9642 50 16.6663 50ZM4.16666 3.12646C3.59371 3.12646 3.1249 3.59527 3.1249 4.16822V41.667C3.1249 42.1107 3.42282 42.523 3.84776 42.671L16.3264 46.8293C16.416 46.8583 16.5328 46.8751 16.6663 46.8751C17.2392 46.8751 17.7077 46.4063 17.7077 45.8333V8.3345C17.7077 7.89087 17.4097 7.47851 16.9848 7.3305L4.50616 3.17223C4.41652 3.14324 4.29979 3.12646 4.16666 3.12646Z" fill="#FFA800"/>
<path d="M31.7697 16.6678C30.9072 16.6678 30.2072 15.9679 30.2072 15.1054V5.73067C30.2072 4.29524 29.0388 3.12646 27.6034 3.12646H4.16664C3.30416 3.12646 2.60419 2.42648 2.60419 1.56401C2.60419 0.701531 3.30416 0.0015564 4.16664 0.0015564H27.6034C30.7638 0.0015564 33.3321 2.57029 33.3321 5.73067V15.1054C33.3321 15.9679 32.6322 16.6678 31.7697 16.6678Z" fill="#FFA800"/>
<path d="M27.6034 43.7502H19.2701C18.4076 43.7502 17.7076 43.0502 17.7076 42.1877C17.7076 41.3252 18.4076 40.6253 19.2701 40.6253H27.6034C29.0388 40.6253 30.2073 39.4565 30.2073 38.021V28.6463C30.2073 27.7839 30.9072 27.0839 31.7697 27.0839C32.6322 27.0839 33.3322 27.7839 33.3322 28.6463V38.021C33.3322 41.1814 30.7638 43.7502 27.6034 43.7502Z" fill="#FFA800"/>
</g>
<defs>
<clipPath id="clip0_13_49">
<rect width="50" height="50" fill="white"/>
</clipPath>
</defs>
</svg>
