<svg width="21" height="50" viewBox="0 0 21 50" fill="none" xmlns="http://www.w3.org/2000/svg">
<path d="M16.6663 50C16.2203 50 15.7973 49.9375 15.3747 49.8062L2.83728 45.6293C1.1314 45.0334 0 43.4439 0 41.6671V4.16825C0 1.87035 1.86876 0.00158691 4.16666 0.00158691C4.61221 0.00158691 5.03524 0.064146 5.45828 0.195368L17.9953 4.37233C19.7015 4.96817 20.8326 6.5577 20.8326 8.33453V45.8334C20.8326 48.1313 18.9642 50 16.6663 50ZM4.16666 3.12649C3.59371 3.12649 3.1249 3.5953 3.1249 4.16825V41.6671C3.1249 42.1107 3.42282 42.5231 3.84776 42.6711L16.3264 46.8293C16.416 46.8583 16.5328 46.8751 16.6663 46.8751C17.2392 46.8751 17.7077 46.4063 17.7077 45.8334V8.33453C17.7077 7.8909 17.4097 7.47854 16.9848 7.33054L4.50616 3.17226C4.41652 3.14327 4.29979 3.12649 4.16666 3.12649Z" fill="#FFA800"/>
</svg>
