<svg width="30" height="16" viewBox="0 0 30 16" fill="none" xmlns="http://www.w3.org/2000/svg">
<path d="M15 15.5C14.8783 15.5 14.7575 15.4733 14.645 15.4208L0.478334 8.75413C0.186667 8.61663 0 8.32247 0 7.99996C0 7.67746 0.186667 7.3833 0.478334 7.2458L14.645 0.579131C14.87 0.473298 15.13 0.473298 15.355 0.579131L29.5217 7.2458C29.8133 7.3833 30 7.67746 30 7.99996C30 8.32247 29.8133 8.61663 29.5217 8.75413L15.355 15.4208C15.2425 15.4733 15.1217 15.5 15 15.5ZM2.79083 7.99996L15 13.7458L27.2092 7.99996L15 2.25413L2.79083 7.99996Z" fill="#A5A5A5"/>
</svg>
