<svg width="22" height="14" viewBox="0 0 22 14" fill="none" xmlns="http://www.w3.org/2000/svg">
<path d="M11.0001 13.1667C10.8726 13.1667 10.7442 13.1376 10.6276 13.0792L0.627581 8.07922C0.345081 7.93755 0.166748 7.64922 0.166748 7.33338V0.960883C0.166748 0.675883 0.312582 0.41005 0.553415 0.25755C0.794249 0.104217 1.09675 0.0867159 1.35425 0.206716L11.0001 4.74588L20.6451 0.206716C20.9034 0.0858826 21.2059 0.104217 21.4459 0.25755C21.6876 0.41005 21.8334 0.675883 21.8334 0.960883V7.33338C21.8334 7.64922 21.6551 7.93755 21.3726 8.07922L11.3726 13.0792C11.2559 13.1376 11.1276 13.1667 11.0001 13.1667ZM1.83341 6.81838L11.0001 11.4017L20.1667 6.81838V2.27422L11.3551 6.42088C11.1301 6.52672 10.8701 6.52672 10.6451 6.42088L1.83341 2.27422V6.81838Z" fill="#A5A5A5"/>
</svg>
