<svg width="20" height="9" viewBox="0 0 20 9" fill="none" xmlns="http://www.w3.org/2000/svg">
<path d="M19.1667 8.83333H0.833333C0.373333 8.83333 0 8.46 0 8C0 7.54 0.373333 7.16667 0.833333 7.16667C3.59833 7.16667 5 5.20417 5 1.33333C5 0.873333 5.37333 0.5 5.83333 0.5H14.1667C14.6267 0.5 15 0.873333 15 1.33333C15 5.20417 16.4017 7.16667 19.1667 7.16667C19.6267 7.16667 20 7.54 20 8C20 8.46 19.6267 8.83333 19.1667 8.83333ZM4.8925 7.16667H15.1083C14.0817 6.03 13.4775 4.3375 13.3567 2.16667H6.64417C6.5225 4.3375 5.91917 6.03 4.8925 7.16667Z" fill="#A5A5A5"/>
</svg>
