<svg width="41" height="41" viewBox="0 0 41 41" fill="none" xmlns="http://www.w3.org/2000/svg">
<rect width="41" height="41" rx="4" fill="#FC9302" fill-opacity="0.5"/>
<g clip-path="url(#clip0_538_545)">
<path d="M29.0862 26.3386H12.9143C12.1807 26.3386 11.5859 25.7438 11.5859 25.0102V12.937C11.5859 12.2034 12.1807 11.6086 12.9143 11.6086H29.0862C29.8198 11.6086 30.4146 12.2034 30.4146 12.937V25.0102C30.4146 25.7438 29.8198 26.3386 29.0862 26.3386Z" fill="#CCEEFF"/>
<path d="M29.0861 11.6086H20.998V26.3386H29.0861C29.8197 26.3386 30.4145 25.7438 30.4145 25.0102V12.937C30.4145 12.2034 29.8197 11.6086 29.0861 11.6086Z" fill="#FF405C"/>
<path d="M11.5859 18.9736V25.0102C11.5859 25.7439 12.1807 26.3386 12.9143 26.3386H29.0861C29.8198 26.3386 30.4145 25.7439 30.4145 25.0102V18.9736H11.5859Z" fill="white"/>
<path d="M20.998 18.9736V26.3386H29.0861C29.8197 26.3386 30.4145 25.7439 30.4145 25.0102V18.9736H20.998Z" fill="#00215A"/>
<path d="M17.7568 30.3947L18.3937 26.3386H23.5832L24.1548 30.3943L17.7568 30.3947Z" fill="#004DB6"/>
<path d="M20.998 30.3946L24.155 30.3944L23.5834 26.3387H20.998V30.3946Z" fill="#192B80"/>
<path d="M25.6329 30.9771H16.367C16.0435 30.9771 15.7812 30.7148 15.7812 30.3914C15.7812 30.0679 16.0435 29.8057 16.367 29.8057H25.6329C25.9563 29.8057 26.2186 30.0679 26.2186 30.3914C26.2186 30.7148 25.9563 30.9771 25.6329 30.9771Z" fill="#0089FF"/>
<path d="M25.6331 29.8057H20.998V30.9771H25.6331C25.9566 30.9771 26.2188 30.7148 26.2188 30.3914C26.2188 30.0679 25.9566 29.8057 25.6331 29.8057Z" fill="#295FCC"/>
<path d="M25.5691 23.5452C26.3159 23.5452 26.9213 22.9398 26.9213 22.193C26.9213 21.4461 26.3159 20.8407 25.5691 20.8407C24.8222 20.8407 24.2168 21.4461 24.2168 22.193C24.2168 22.9398 24.8222 23.5452 25.5691 23.5452Z" fill="#FFA64D"/>
<path d="M25.5693 20.8407V23.5452C26.3162 23.5452 26.9216 22.9398 26.9216 22.193C26.9216 21.4461 26.3162 20.8407 25.5693 20.8407Z" fill="#FF9933"/>
<path d="M26.4471 23.7544H24.6728L24.6728 23.7547C23.9238 23.7606 23.3184 24.3693 23.3184 25.1197V25.4263C23.3184 25.6237 23.4784 25.7838 23.6759 25.7838H27.4549C27.6524 25.7838 27.8125 25.6237 27.8125 25.4263V25.1197C27.8125 24.3657 27.2012 23.7544 26.4471 23.7544Z" fill="#7AFFE4"/>
<path d="M26.4471 23.7544H25.5693V25.7838H27.4549C27.6524 25.7838 27.8125 25.6237 27.8125 25.4263V25.1197C27.8125 24.3657 27.2012 23.7544 26.4471 23.7544Z" fill="#00ECCE"/>
<path d="M16.4548 23.5452C17.2016 23.5452 17.8071 22.9398 17.8071 22.193C17.8071 21.4461 17.2016 20.8407 16.4548 20.8407C15.708 20.8407 15.1025 21.4461 15.1025 22.193C15.1025 22.9398 15.708 23.5452 16.4548 23.5452Z" fill="#FFCC99"/>
<path d="M16.4551 20.8407V23.5452C17.2019 23.5452 17.8073 22.9398 17.8073 22.193C17.8073 21.4461 17.2019 20.8407 16.4551 20.8407Z" fill="#FFB366"/>
<path d="M17.3329 23.7544H15.5586L15.5585 23.7547C14.8095 23.7606 14.2041 24.3693 14.2041 25.1197V25.4263C14.2041 25.6237 14.3642 25.7838 14.5616 25.7838H18.3407C18.5381 25.7838 18.6982 25.6237 18.6982 25.4263V25.1197C18.6982 24.3657 18.0869 23.7544 17.3329 23.7544Z" fill="#FF9100"/>
<path d="M17.3329 23.7544H16.4551V25.7838H18.3407C18.5381 25.7838 18.6982 25.6237 18.6982 25.4263V25.1197C18.6982 24.3657 18.0869 23.7544 17.3329 23.7544Z" fill="#FF641A"/>
<path d="M25.5691 16.7345C26.3159 16.7345 26.9213 16.1291 26.9213 15.3823C26.9213 14.6355 26.3159 14.03 25.5691 14.03C24.8222 14.03 24.2168 14.6355 24.2168 15.3823C24.2168 16.1291 24.8222 16.7345 25.5691 16.7345Z" fill="#FFA64D"/>
<path d="M25.5693 14.03V16.7345C26.3162 16.7345 26.9216 16.1291 26.9216 15.3823C26.9216 14.6355 26.3162 14.03 25.5693 14.03Z" fill="#FF9933"/>
<path d="M26.4471 16.9437H24.6728L24.6728 16.944C23.9238 16.9499 23.3184 17.5586 23.3184 18.3091V18.6156C23.3184 18.813 23.4784 18.9731 23.6759 18.9731H27.4549C27.6524 18.9731 27.8125 18.813 27.8125 18.6156V18.3091C27.8125 17.555 27.2012 16.9437 26.4471 16.9437Z" fill="#FFDA2D"/>
<path d="M26.4471 16.9437H25.5693V18.9731H27.4549C27.6524 18.9731 27.8125 18.813 27.8125 18.6156V18.3091C27.8125 17.555 27.2012 16.9437 26.4471 16.9437Z" fill="#FDBF00"/>
<path d="M16.4548 16.7345C17.2016 16.7345 17.8071 16.1291 17.8071 15.3823C17.8071 14.6355 17.2016 14.03 16.4548 14.03C15.708 14.03 15.1025 14.6355 15.1025 15.3823C15.1025 16.1291 15.708 16.7345 16.4548 16.7345Z" fill="#FFCC99"/>
<path d="M16.4551 14.03V16.7345C17.2019 16.7345 17.8073 16.1291 17.8073 15.3823C17.8073 14.6355 17.2019 14.03 16.4551 14.03Z" fill="#FFB366"/>
<path d="M17.3329 16.9437H15.5586L15.5585 16.944C14.8095 16.9499 14.2041 17.5586 14.2041 18.3091V18.6156C14.2041 18.813 14.3642 18.9731 14.5616 18.9731H18.3407C18.5381 18.9731 18.6982 18.813 18.6982 18.6156V18.3091C18.6982 17.555 18.0869 16.9437 17.3329 16.9437Z" fill="#FF405C"/>
<path d="M17.3329 16.9437H16.4551V18.9731H18.3407C18.5381 18.9731 18.6982 18.813 18.6982 18.6156V18.3091C18.6982 17.555 18.0869 16.9437 17.3329 16.9437Z" fill="#C1126B"/>
<path d="M29.2407 26.9245H12.7593C11.7877 26.9245 11 26.1369 11 25.1652V12.7825C11 11.8109 11.7877 11.0232 12.7593 11.0232H29.2408C30.2124 11.0232 31 11.8109 31 12.7825V25.1652C31 26.1369 30.2123 26.9245 29.2407 26.9245ZM12.7593 12.1946C12.4346 12.1946 12.1714 12.4578 12.1714 12.7825V25.1652C12.1714 25.4899 12.4346 25.7531 12.7593 25.7531H29.2407C29.5654 25.7531 29.8286 25.4899 29.8286 25.1652V12.7825C29.8286 12.4578 29.5654 12.1946 29.2407 12.1946L12.7593 12.1946Z" fill="#0089FF"/>
<path d="M29.3884 11.0229H20.998V12.1944H29.3884C29.6316 12.1944 29.8287 12.3915 29.8287 12.6347V25.1281C29.8287 25.4732 29.549 25.7529 29.204 25.7529H20.998V26.9243H29.3884C30.2786 26.9243 31.0002 26.2027 31.0002 25.3125V12.6347C31.0002 11.7445 30.2786 11.0229 29.3884 11.0229Z" fill="#295FCC"/>
</g>
<defs>
<clipPath id="clip0_538_545">
<rect width="20" height="20" fill="white" transform="translate(11 11)"/>
</clipPath>
</defs>
</svg>
