<svg width="50" height="50" viewBox="0 0 50 50" fill="none" xmlns="http://www.w3.org/2000/svg">
<g clip-path="url(#clip0_367_41)">
<path d="M25 22.5002C24.8783 22.5002 24.7575 22.4735 24.645 22.421L10.4783 15.7544C10.1867 15.6169 10 15.3227 10 15.0002C10 14.6777 10.1867 14.3835 10.4783 14.246L24.645 7.57938C24.87 7.47354 25.13 7.47354 25.355 7.57938L39.5217 14.246C39.8133 14.3835 40 14.6777 40 15.0002C40 15.3227 39.8133 15.6169 39.5217 15.7544L25.355 22.421C25.2425 22.4735 25.1217 22.5002 25 22.5002ZM12.7908 15.0002L25 20.746L37.2092 15.0002L25 9.25437L12.7908 15.0002Z" fill="#21AFFF"/>
<path d="M25.0001 29.1665C24.8726 29.1665 24.7442 29.1373 24.6276 29.079L14.6276 24.079C14.3451 23.9373 14.1667 23.649 14.1667 23.3331V16.9606C14.1667 16.6756 14.3126 16.4098 14.5534 16.2573C14.7942 16.104 15.0967 16.0865 15.3542 16.2065L25.0001 20.7456L34.6451 16.2065C34.9034 16.0856 35.2059 16.104 35.4459 16.2573C35.6876 16.4098 35.8334 16.6756 35.8334 16.9606V23.3331C35.8334 23.649 35.6551 23.9373 35.3726 24.079L25.3726 29.079C25.2559 29.1373 25.1276 29.1665 25.0001 29.1665ZM15.8334 22.8181L25.0001 27.4015L34.1667 22.8181V18.274L25.3551 22.4206C25.1301 22.5265 24.8701 22.5265 24.6451 22.4206L15.8334 18.274V22.8181Z" fill="#21AFFF"/>
<path d="M39.1667 15.8332H25.0001C24.5401 15.8332 24.1667 15.4598 24.1667 14.9998C24.1667 14.5398 24.5401 14.1665 25.0001 14.1665H39.1667C39.6267 14.1665 40.0001 14.5398 40.0001 14.9998C40.0001 15.4598 39.6267 15.8332 39.1667 15.8332Z" fill="#21AFFF"/>
<path d="M39.1666 23.3332C38.7066 23.3332 38.3333 22.9598 38.3333 22.4998V14.9998C38.3333 14.5398 38.7066 14.1665 39.1666 14.1665C39.6266 14.1665 39.9999 14.5398 39.9999 14.9998V22.4998C39.9999 22.9598 39.6266 23.3332 39.1666 23.3332Z" fill="#21AFFF"/>
<path d="M25.0001 17.5C24.5401 17.5 24.1667 17.1267 24.1667 16.6667V13.3333C24.1667 12.8733 24.5401 12.5 25.0001 12.5C25.4601 12.5 25.8334 12.8733 25.8334 13.3333V16.6667C25.8334 17.1267 25.4601 17.5 25.0001 17.5Z" fill="#21AFFF"/>
<path d="M37.4991 25.8335C37.3408 25.8335 37.18 25.7885 37.0375 25.6935C36.655 25.4385 36.5516 24.921 36.8066 24.5377L38.4733 22.0377C38.7283 21.6544 39.245 21.5502 39.6291 21.8069C40.0116 22.0619 40.115 22.5794 39.86 22.9627L38.1933 25.4627C38.0325 25.7035 37.7683 25.8335 37.4991 25.8335Z" fill="#21AFFF"/>
<path d="M40.8342 25.8335C40.5651 25.8335 40.3009 25.7035 40.1401 25.4627L38.4734 22.9627C38.2184 22.5802 38.3217 22.0619 38.7042 21.8069C39.0867 21.5502 39.6042 21.6544 39.8601 22.0377L41.5267 24.5377C41.7817 24.9202 41.6784 25.4385 41.2959 25.6935C41.1534 25.7885 40.9926 25.8335 40.8342 25.8335Z" fill="#21AFFF"/>
<path d="M25.0001 25.0002C24.5401 25.0002 24.1667 24.6268 24.1667 24.1668V21.6668C24.1667 21.2068 24.5401 20.8335 25.0001 20.8335C25.4601 20.8335 25.8334 21.2068 25.8334 21.6668V24.1668C25.8334 24.6268 25.4601 25.0002 25.0001 25.0002Z" fill="#21AFFF"/>
<path d="M49.1667 32.5002H0.833333C0.373333 32.5002 0 32.1268 0 31.6668V4.16766C0 2.32933 1.49583 0.833496 3.33417 0.833496H46.6658C48.5042 0.833496 50 2.32933 50 4.16766V31.6668C50 32.1268 49.6267 32.5002 49.1667 32.5002ZM1.66667 30.8335H48.3333V4.16766C48.3333 3.24766 47.5858 2.50016 46.6658 2.50016H3.33417C2.41417 2.50016 1.66667 3.24766 1.66667 4.16766V30.8335Z" fill="#21AFFF"/>
<path d="M46.6658 39.1668H3.33417C1.49583 39.1668 0 37.671 0 35.8327V31.6668C0 31.2068 0.373333 30.8335 0.833333 30.8335H49.1667C49.6267 30.8335 50 31.2068 50 31.6668V35.8327C50 37.671 48.5042 39.1668 46.6658 39.1668ZM1.66667 32.5002V35.8327C1.66667 36.7527 2.41417 37.5002 3.33417 37.5002H46.6658C47.5858 37.5002 48.3333 36.7527 48.3333 35.8327V32.5002H1.66667Z" fill="#21AFFF"/>
<path d="M27.5001 35.8332H22.5001C22.0401 35.8332 21.6667 35.4598 21.6667 34.9998C21.6667 34.5398 22.0401 34.1665 22.5001 34.1665H27.5001C27.9601 34.1665 28.3334 34.5398 28.3334 34.9998C28.3334 35.4598 27.9601 35.8332 27.5001 35.8332Z" fill="#21AFFF"/>
<path d="M45.8333 32.4998H4.16659C3.70659 32.4998 3.33325 32.1265 3.33325 31.6665V4.99984C3.33325 4.53984 3.70659 4.1665 4.16659 4.1665H45.8333C46.2933 4.1665 46.6666 4.53984 46.6666 4.99984V31.6665C46.6666 32.1265 46.2933 32.4998 45.8333 32.4998ZM4.99992 30.8332H44.9999V5.83317H4.99992V30.8332Z" fill="#21AFFF"/>
<path d="M35.8334 49.1665H14.1667C12.7884 49.1665 11.6667 48.0448 11.6667 46.6665C11.6667 45.2882 12.7884 44.1665 14.1667 44.1665H35.8334C37.2117 44.1665 38.3334 45.2882 38.3334 46.6665C38.3334 48.0448 37.2117 49.1665 35.8334 49.1665ZM14.1667 45.8332C13.7076 45.8332 13.3334 46.2073 13.3334 46.6665C13.3334 47.1257 13.7076 47.4998 14.1667 47.4998H35.8334C36.2926 47.4998 36.6667 47.1257 36.6667 46.6665C36.6667 46.2073 36.2926 45.8332 35.8334 45.8332H14.1667Z" fill="#21AFFF"/>
<path d="M34.1667 45.8333H15.8333C15.3733 45.8333 15 45.46 15 45C15 44.54 15.3733 44.1667 15.8333 44.1667C18.5983 44.1667 20 42.2042 20 38.3333C20 37.8733 20.3733 37.5 20.8333 37.5H29.1667C29.6267 37.5 30 37.8733 30 38.3333C30 42.2042 31.4017 44.1667 34.1667 44.1667C34.6267 44.1667 35 44.54 35 45C35 45.46 34.6267 45.8333 34.1667 45.8333ZM19.8925 44.1667H30.1083C29.0817 43.03 28.4775 41.3375 28.3567 39.1667H21.6442C21.5225 41.3375 20.9192 43.03 19.8925 44.1667Z" fill="#21AFFF"/>
</g>
<defs>
<clipPath id="clip0_367_41">
<rect width="50" height="50" fill="white"/>
</clipPath>
</defs>
</svg>
